if (_typeface_js && _typeface_js.loadFace) _typeface_js.loadFace({"glyphs":{"¦":{"x_min":179,"x_max":289,"ha":468,"o":"m 289 277 l 289 -237 l 179 -237 l 179 277 l 289 277 m 289 971 l 289 457 l 179 457 l 179 971 l 289 971 "},"ﻵ":{"x_min":67.828125,"x_max":657,"ha":725,"o":"m 468 1135 l 434 1039 q 399 1038 413 1039 q 265 978 316 1028 q 220 949 244 958 q 170 940 196 940 q 98 956 136 940 q 67 972 86 961 l 95 1052 q 126 1044 114 1047 q 192 1035 165 1035 q 227 1039 212 1035 q 252 1052 242 1043 q 366 1122 302 1100 q 451 1136 408 1136 q 461 1136 457 1136 q 468 1135 465 1136 m 655 264 q 655 218 655 239 q 657 177 656 197 q 644 78 657 124 q 582 -78 628 15 q 600 -137 593 -105 q 606 -202 606 -169 q 601 -256 606 -231 q 582 -301 595 -281 q 500 -349 550 -334 q 403 -362 459 -362 q 338 -358 373 -362 q 255 -336 282 -344 q 187 -289 206 -320 q 185 -279 185 -283 q 198 -258 185 -267 q 221 -245 204 -253 q 230 -245 226 -245 q 240 -245 235 -245 q 372 -194 309 -245 q 466 -84 420 -156 q 411 23 444 -38 q 353 132 382 77 q 297 243 320 195 q 216 413 247 343 q 145 588 172 512 q 93 772 112 681 q 118 791 97 787 q 151 799 148 797 q 185 761 178 799 q 194 728 189 736 q 296 481 238 612 q 409 243 344 372 q 531 7 465 131 q 558 100 550 51 q 567 198 567 150 q 554 337 567 261 q 529 475 552 352 q 507 614 512 565 q 501 653 503 635 q 499 692 499 672 q 514 710 499 703 q 550 717 530 717 q 566 715 558 717 l 583 688 q 611 544 597 616 q 636 407 630 445 q 655 264 647 338 m 524 -248 l 524 -239 q 524 -215 524 -226 q 516 -180 523 -194 q 491 -200 505 -190 q 444 -233 467 -216 q 383 -280 414 -256 q 460 -273 425 -280 q 524 -248 495 -266 "},"٥":{"x_min":61.71875,"x_max":599.546875,"ha":657,"o":"m 599 0 l 586 0 q 514 44 545 0 q 477 134 486 82 l 387 642 l 158 642 l 255 98 l 402 98 q 425 89 417 93 q 453 54 449 75 q 454 44 454 51 q 437 10 454 24 q 420 0 432 5 l 261 0 q 198 19 223 0 q 156 98 166 44 l 63 623 q 61 647 61 636 q 87 709 61 687 q 152 731 113 731 l 375 731 q 446 705 414 731 q 486 636 479 680 l 599 0 "},"ﺹ":{"x_min":68,"x_max":1541.640625,"ha":1609,"o":"m 1499 316 q 1227 71 1415 159 q 866 -8 1058 -8 q 857 -53 862 -19 q 826 -123 849 -105 q 821 -124 825 -124 q 815 -124 817 -124 q 789 -119 802 -124 q 773 -104 777 -115 q 763 -71 765 -88 q 761 -32 761 -54 q 761 -13 761 -22 q 761 4 761 -4 q 760 28 761 19 q 753 46 758 38 q 708 80 730 63 q 667 114 685 97 l 672 40 q 647 -65 660 -24 q 600 -165 628 -124 q 514 -241 566 -214 q 448 -267 485 -258 q 376 -276 411 -276 q 239 -245 302 -276 q 104 -78 147 -185 q 68 139 68 12 q 76 263 68 200 q 98 393 84 326 q 127 470 121 461 q 167 498 142 493 q 199 490 183 494 q 217 466 214 484 q 190 335 214 442 q 173 201 173 256 q 196 5 173 82 q 298 -148 225 -93 q 377 -162 337 -162 q 512 -117 455 -162 q 548 -31 537 -76 q 559 61 559 13 q 546 183 559 116 q 515 309 541 204 q 487 440 495 392 q 514 464 495 454 q 554 474 533 474 q 588 462 575 474 q 612 415 605 448 q 626 351 619 381 l 634 314 q 702 229 664 269 q 785 155 745 182 q 866 388 814 280 q 1005 595 925 512 q 1210 729 1096 690 q 1279 744 1243 744 q 1393 713 1333 744 q 1487 645 1443 687 q 1527 567 1513 611 q 1541 474 1541 522 q 1499 316 1541 385 m 1439 425 q 1441 468 1439 441 q 1443 501 1443 496 q 1437 552 1443 533 q 1412 593 1430 577 q 1358 626 1387 615 q 1298 638 1329 638 q 1157 592 1233 638 q 1037 496 1093 554 q 955 355 990 434 q 902 195 921 275 q 898 153 900 189 q 885 105 895 118 q 888 101 884 102 q 906 100 892 100 q 957 103 921 100 q 1005 106 994 106 q 1013 105 1011 105 q 1275 207 1165 134 q 1439 425 1409 295 "},"ﺲ":{"x_min":68,"x_max":1318.5625,"ha":1318,"o":"m 1318 0 q 1201 48 1261 0 q 1124 134 1153 86 q 1086 42 1109 73 q 1003 0 1055 0 q 917 31 946 0 q 867 76 881 71 q 826 20 843 37 q 784 0 805 0 q 769 0 779 0 q 724 7 743 0 q 679 44 699 18 q 651 -61 664 -22 q 603 -161 632 -119 q 516 -239 567 -211 q 452 -264 486 -256 q 379 -273 417 -273 q 306 -264 342 -273 q 238 -241 270 -256 q 104 -81 146 -182 q 68 128 68 7 q 76 254 68 188 q 100 387 85 320 q 120 455 110 420 q 166 501 136 494 q 198 494 182 497 q 217 470 213 488 q 189 339 214 449 q 171 203 171 259 q 194 9 171 86 q 299 -144 225 -89 q 379 -159 337 -159 q 513 -115 457 -159 q 550 -28 538 -74 q 561 67 561 17 q 548 189 561 120 q 519 313 540 227 q 490 444 497 399 q 520 467 500 459 q 554 481 552 480 q 598 422 588 464 q 621 355 611 367 q 664 200 651 232 q 760 94 702 102 q 788 140 780 112 q 797 207 797 169 q 786 319 797 249 q 778 373 778 369 q 769 408 778 382 q 761 446 761 434 q 767 467 761 458 q 787 481 773 476 q 824 490 801 490 q 845 487 835 490 q 863 481 856 485 q 901 343 882 438 q 934 211 920 249 q 1007 94 959 137 q 1032 141 1024 116 q 1039 196 1039 166 q 1025 284 1039 235 q 998 384 1012 334 q 984 466 984 434 q 1036 488 1005 488 q 1052 486 1046 488 q 1070 481 1058 485 q 1105 396 1090 440 q 1127 307 1119 353 q 1203 161 1163 212 q 1318 94 1256 94 l 1318 0 "},"ب":{"x_min":67.828125,"x_max":1311,"ha":1379,"o":"m 1308 233 q 1311 203 1311 217 q 1286 115 1311 162 q 1130 -24 1252 47 q 935 -114 1032 -82 q 680 -171 843 -142 q 430 -201 518 -201 q 288 -176 364 -201 q 144 -101 200 -148 q 67 27 76 -45 q 187 226 67 147 q 446 322 283 290 q 697 347 572 347 q 719 304 719 323 q 704 276 719 289 q 668 254 692 266 q 514 249 575 254 q 358 219 424 240 q 217 145 278 193 q 181 98 193 114 q 157 47 160 69 q 200 -9 164 19 q 265 -51 226 -30 q 366 -77 311 -69 q 483 -86 421 -86 q 786 -45 622 -86 q 1050 42 925 -12 q 1155 104 1123 80 q 1224 201 1224 154 q 1216 231 1224 217 q 1176 272 1196 251 q 1150 328 1150 302 q 1154 347 1150 336 q 1205 373 1180 373 q 1222 369 1214 373 q 1239 361 1231 366 q 1284 308 1266 342 q 1308 233 1303 275 m 767 -346 q 774 -376 774 -359 q 743 -431 774 -413 q 712 -439 730 -439 q 681 -430 695 -439 q 658 -407 667 -422 q 650 -376 650 -392 q 682 -321 650 -340 q 711 -315 695 -315 q 744 -323 728 -315 q 767 -346 759 -331 "},"Ž":{"x_min":62,"x_max":910,"ha":965,"o":"m 62 0 l 62 48 l 692 930 l 169 930 l 169 779 l 86 779 l 86 1013 l 886 1013 l 886 964 l 255 83 l 827 83 l 827 225 l 910 225 l 910 0 l 62 0 m 423 1109 l 267 1288 l 345 1288 l 483 1178 l 621 1288 l 700 1288 l 543 1109 l 423 1109 "},"Á":{"x_min":-8,"x_max":1017,"ha":1003,"o":"m 278 367 l 649 367 l 464 848 l 278 367 m -8 0 l -8 72 l 80 72 l 441 1013 l 555 1013 l 917 72 l 1017 72 l 1017 0 l 648 0 l 648 72 l 761 72 l 676 294 l 250 294 l 165 72 l 276 72 l 276 0 l -8 0 m 544 1288 l 678 1288 l 500 1109 l 421 1109 l 544 1288 "},"Î":{"x_min":60,"x_max":493,"ha":549,"o":"m 344 72 l 473 72 l 473 0 l 77 0 l 77 72 l 206 72 l 206 940 l 77 940 l 77 1013 l 473 1013 l 473 940 l 344 940 l 344 72 m 216 1288 l 336 1288 l 493 1109 l 414 1109 l 276 1218 l 138 1109 l 60 1109 l 216 1288 "},"ﺮ":{"x_min":69.03125,"x_max":839.640625,"ha":840,"o":"m 839 0 q 738 33 792 0 q 655 112 685 66 q 615 91 636 105 q 576 59 598 80 q 524 -47 541 9 q 508 -138 512 -90 q 504 -245 504 -186 q 472 -333 504 -287 q 389 -422 446 -369 q 281 -521 335 -472 q 193 -576 246 -554 q 118 -606 147 -594 q 106 -608 113 -608 q 79 -600 91 -608 q 69 -583 67 -592 q 111 -539 72 -564 q 179 -494 145 -517 q 286 -412 233 -453 q 375 -329 346 -363 q 416 -243 411 -285 q 424 -120 419 -185 q 445 0 428 -55 q 519 141 468 73 q 567 181 535 163 q 648 203 607 203 q 710 190 678 203 q 769 121 739 142 q 839 99 798 99 l 839 0 "},"e":{"x_min":69,"x_max":753,"ha":822,"o":"m 753 348 l 215 348 l 215 342 q 270 121 215 196 q 432 47 325 47 q 567 90 514 47 q 641 218 619 133 l 741 218 q 630 39 711 99 q 419 -20 550 -20 q 165 84 261 -20 q 69 360 69 188 q 163 636 69 531 q 411 741 257 741 q 662 640 574 741 q 753 348 749 539 m 606 420 q 552 609 601 545 q 411 674 503 674 q 275 609 324 674 q 215 420 225 545 l 606 420 "},"ﻂ":{"x_min":67.828125,"x_max":1141.453125,"ha":1141,"o":"m 1141 0 q 1050 17 1100 0 q 975 61 1001 34 q 935 93 945 85 q 907 132 921 106 q 685 23 811 56 q 438 -4 579 -4 q 415 -87 438 -5 q 392 -155 406 -118 q 370 -137 387 -158 q 347 -101 353 -116 q 333 -50 333 -69 q 335 -29 333 -45 q 338 0 338 -14 q 279 27 307 4 q 229 75 272 32 q 138 208 179 126 q 86 339 106 271 q 67 413 71 385 q 88 455 80 442 q 122 480 102 480 q 156 467 138 480 q 185 388 164 444 q 216 305 200 347 q 273 199 249 235 q 359 112 316 133 q 370 199 366 176 q 387 306 379 260 q 406 380 396 352 q 347 612 380 474 q 297 836 333 672 q 241 1073 266 972 q 255 1106 245 1095 q 278 1117 265 1117 q 311 1101 295 1117 q 334 1058 326 1085 q 388 854 362 956 q 432 678 396 826 q 484 476 461 561 q 611 631 541 569 q 784 733 689 701 q 819 745 800 741 q 857 749 838 749 q 965 721 908 749 q 1055 657 1015 697 q 1097 574 1083 621 q 1112 475 1112 526 q 1072 320 1112 386 q 1025 254 1058 295 q 971 192 998 221 q 1050 117 1002 143 q 1141 94 1093 94 l 1141 0 m 1012 429 q 1013 465 1012 440 q 1015 504 1015 491 q 1009 556 1015 536 q 984 597 1002 581 q 931 631 959 620 q 870 641 902 641 q 729 596 805 641 q 611 499 667 559 q 569 442 586 467 q 534 379 548 410 q 562 283 548 331 q 575 225 575 240 q 567 212 575 212 q 486 271 550 212 q 472 210 479 244 q 453 108 463 159 q 459 104 453 105 q 478 103 466 103 q 535 106 496 103 q 579 109 574 109 q 587 108 585 108 q 848 210 738 137 q 1012 429 981 298 "},"»":{"x_min":131,"x_max":743,"ha":850,"o":"m 425 718 l 743 435 l 743 379 l 425 96 l 425 174 l 626 407 l 425 640 l 425 718 m 131 718 l 449 435 l 449 379 l 131 96 l 131 174 l 332 407 l 131 640 l 131 718 "},"∆":{"x_min":35,"x_max":927,"ha":970,"o":"m 729 111 l 446 850 l 161 111 l 729 111 m 35 0 l 423 1013 l 539 1013 l 927 0 l 35 0 "},"ﻖ":{"x_min":68,"x_max":955.53125,"ha":956,"o":"m 635 788 q 641 759 641 775 q 610 704 641 721 q 580 696 597 696 q 549 704 563 696 q 526 728 534 712 q 520 752 520 740 q 531 786 520 769 q 559 814 542 803 q 586 821 572 821 q 613 812 601 821 q 635 788 626 804 m 473 788 q 480 759 480 775 q 449 704 480 721 q 418 696 435 696 q 387 704 401 696 q 364 728 372 712 q 358 752 358 740 q 369 786 358 769 q 398 814 380 803 q 424 821 410 821 q 451 812 439 821 q 473 788 464 804 m 955 0 q 912 6 934 0 q 868 27 891 13 q 850 -165 868 -69 q 775 -331 833 -261 q 627 -429 717 -402 q 514 -454 577 -454 q 430 -442 469 -454 q 361 -404 392 -430 q 133 -151 208 -316 q 68 182 68 -6 q 79 335 68 254 q 100 380 84 362 q 140 415 100 381 q 163 420 149 420 q 182 416 174 420 q 192 404 190 413 q 169 281 177 343 q 162 160 162 220 q 168 67 162 111 q 220 -111 181 -35 q 363 -292 266 -203 q 444 -335 402 -320 q 526 -350 486 -350 q 667 -302 603 -350 q 763 -177 732 -255 q 767 -139 765 -158 q 769 -101 769 -120 q 768 -63 769 -76 q 763 -34 764 -44 q 701 -72 732 -53 q 627 -96 659 -96 q 518 -22 568 -87 q 445 121 473 34 q 423 266 423 190 q 455 427 423 356 q 548 521 487 497 q 561 522 554 522 q 572 522 568 522 q 680 480 632 522 q 756 381 719 447 q 813 269 762 371 q 849 164 834 221 q 899 115 872 132 q 955 97 925 97 l 955 0 m 695 161 q 655 224 693 177 q 637 260 637 246 q 643 276 637 268 q 661 292 649 284 q 675 305 668 297 q 689 318 683 313 q 645 386 685 349 q 569 425 604 425 q 541 416 554 425 q 524 384 529 406 q 509 318 515 352 q 504 255 504 284 q 508 199 504 223 q 525 144 512 174 q 571 64 541 103 q 636 0 602 25 q 657 -4 647 -4 q 694 29 681 -4 q 705 100 705 59 q 695 161 705 143 "},"ﻉ":{"x_min":67.828125,"x_max":1003.765625,"ha":1072,"o":"m 999 -191 q 1003 -204 1003 -199 q 992 -227 1003 -214 q 974 -247 983 -237 q 760 -369 875 -320 q 518 -438 644 -418 q 371 -464 444 -464 q 212 -419 276 -464 q 124 -270 141 -369 q 168 -126 124 -195 q 270 -12 202 -71 q 391 83 276 -7 q 259 128 318 101 q 143 204 188 160 q 69 322 89 255 q 67 336 67 328 q 67 347 67 343 q 108 464 67 410 q 207 550 143 511 q 333 602 265 583 q 468 622 401 622 q 537 616 503 622 q 602 599 571 610 q 673 550 651 567 q 727 490 712 522 q 747 452 740 472 q 753 409 753 432 q 748 367 753 389 q 734 322 743 346 q 653 251 706 276 q 555 229 606 229 q 541 229 548 229 q 533 230 535 230 q 487 238 505 230 q 451 263 469 245 q 411 300 425 286 q 363 372 370 344 q 392 400 368 375 q 424 417 410 417 q 446 411 435 417 q 498 339 475 361 q 560 312 526 312 q 627 331 590 312 q 654 373 647 347 q 659 422 659 391 l 659 438 q 593 508 639 481 q 499 539 552 532 q 311 504 392 539 q 181 386 218 464 q 180 374 180 380 q 179 365 179 367 q 197 299 179 330 q 277 219 218 263 q 362 182 311 196 q 460 162 394 173 q 527 157 495 157 q 609 165 562 157 q 701 179 675 177 q 921 238 811 209 q 942 220 934 232 q 950 194 950 208 q 938 167 950 178 q 887 141 919 146 q 826 132 855 136 q 648 80 776 114 q 475 23 533 50 q 320 -84 385 -16 q 272 -140 289 -117 q 230 -241 230 -194 q 248 -307 230 -272 q 322 -350 281 -336 q 410 -364 364 -364 q 564 -339 471 -364 q 656 -315 610 -327 q 760 -275 718 -292 q 862 -227 817 -251 q 954 -166 914 -198 q 980 -173 967 -170 q 999 -191 995 -178 "},"ط":{"x_min":67.828125,"x_max":1112.28125,"ha":1180,"o":"m 1072 320 q 990 215 1049 278 q 934 160 970 194 q 698 37 834 80 q 438 -4 569 -4 q 415 -87 438 -5 q 392 -155 406 -118 q 370 -137 387 -158 q 347 -101 353 -116 q 333 -50 333 -69 q 335 -29 333 -45 q 338 0 338 -14 q 279 27 307 4 q 229 75 272 32 q 138 208 179 126 q 86 339 106 271 q 67 413 71 385 q 88 455 80 442 q 122 480 102 480 q 156 467 138 480 q 185 388 164 444 q 216 305 200 347 q 273 199 249 235 q 359 112 316 133 q 370 199 366 176 q 387 306 379 260 q 406 380 396 352 q 347 612 380 474 q 297 836 333 672 q 241 1073 266 972 q 255 1106 245 1095 q 278 1117 265 1117 q 311 1101 295 1117 q 334 1058 326 1085 q 388 854 362 956 q 432 678 396 826 q 484 476 461 561 q 611 631 541 569 q 784 733 689 701 q 819 745 800 741 q 857 749 838 749 q 965 721 908 749 q 1055 657 1015 697 q 1097 574 1083 621 q 1112 475 1112 526 q 1072 320 1112 386 m 1012 429 q 1013 465 1012 440 q 1015 504 1015 491 q 1009 556 1015 536 q 984 597 1002 581 q 931 631 959 620 q 870 641 902 641 q 729 596 805 641 q 611 499 667 559 q 573 438 592 474 q 541 373 561 416 q 572 297 559 335 q 584 236 584 258 q 570 212 584 212 q 538 227 558 212 q 486 278 518 243 q 467 193 476 246 q 453 108 457 126 q 459 104 453 105 q 478 103 466 103 q 535 106 496 103 q 579 109 574 109 q 587 108 585 108 q 848 210 738 137 q 1012 429 981 298 "},"ò":{"x_min":69,"x_max":766,"ha":836,"o":"m 417 47 q 568 126 517 47 q 620 360 620 205 q 568 594 620 515 q 417 674 517 674 q 266 594 317 674 q 215 360 215 515 q 266 126 215 205 q 417 47 317 47 m 417 -20 q 164 84 260 -20 q 69 360 69 188 q 164 637 69 533 q 417 741 259 741 q 670 637 575 741 q 766 360 766 533 q 670 84 766 188 q 417 -20 575 -20 m 319 1110 l 496 855 l 416 855 l 186 1110 l 319 1110 "},"^":{"x_min":147,"x_max":1016,"ha":1164,"o":"m 647 1013 l 1016 635 l 912 635 l 581 893 l 251 635 l 147 635 l 515 1013 l 647 1013 "},"ﺞ":{"x_min":67.828125,"x_max":1064.8125,"ha":1065,"o":"m 1063 0 q 961 30 1011 0 q 878 100 918 56 q 822 177 851 132 q 639 76 725 130 q 459 -57 537 12 q 296 -230 372 -133 q 171 -420 224 -322 q 178 -466 171 -445 q 201 -501 185 -488 q 299 -519 244 -519 q 480 -481 381 -519 q 656 -390 567 -447 q 795 -285 736 -339 q 811 -281 804 -282 q 826 -280 819 -280 q 850 -286 841 -280 q 864 -304 860 -291 q 865 -312 865 -306 q 860 -334 865 -321 q 855 -346 859 -338 q 548 -547 716 -480 q 417 -589 483 -572 q 263 -612 329 -612 q 174 -599 213 -612 q 110 -557 135 -586 q 78 -513 88 -540 q 67 -455 67 -486 q 71 -415 67 -435 q 159 -258 108 -336 q 288 -89 221 -163 q 394 7 336 -37 q 524 94 453 52 q 439 90 481 90 q 323 97 377 90 q 232 113 268 104 q 115 177 162 126 q 69 289 69 229 q 79 341 69 317 q 110 386 89 365 q 353 516 216 473 q 648 559 490 559 q 793 556 748 559 q 940 528 880 549 q 1045 455 1013 503 q 1064 408 1064 434 q 1014 313 1064 366 q 911 230 975 273 q 980 138 943 172 q 1063 98 1022 98 l 1063 0 m 592 -187 q 599 -217 599 -201 q 568 -272 599 -255 q 537 -280 555 -280 q 506 -271 520 -280 q 483 -248 492 -263 q 475 -217 475 -233 q 507 -163 475 -181 q 536 -156 520 -156 q 569 -165 553 -156 q 592 -187 584 -173 m 940 407 q 806 460 903 449 q 652 469 729 464 q 474 448 534 458 q 309 401 376 431 q 185 305 230 365 q 179 282 179 293 q 216 223 179 254 q 282 179 235 207 q 307 170 293 173 q 333 167 321 167 q 432 203 368 167 q 531 240 495 240 q 542 240 537 240 q 558 237 547 240 q 572 224 569 232 q 576 202 576 215 q 575 188 576 195 q 574 173 575 180 q 576 161 574 167 q 715 226 602 176 q 863 302 815 269 q 940 407 934 352 "},"ث":{"x_min":67.828125,"x_max":1311,"ha":1379,"o":"m 778 680 q 785 650 785 667 q 754 595 785 613 q 723 588 741 588 q 692 596 706 588 q 669 619 678 604 q 661 650 661 634 q 693 705 661 686 q 722 711 706 711 q 754 702 739 711 q 778 680 770 694 m 855 555 q 862 525 862 541 q 831 470 862 488 q 800 463 818 463 q 769 471 784 463 q 747 494 755 479 q 738 525 738 509 q 771 579 738 561 q 799 586 784 586 q 832 577 816 586 q 855 555 847 569 m 702 555 q 709 525 709 541 q 678 470 709 488 q 647 463 665 463 q 616 471 630 463 q 593 494 602 479 q 585 525 585 509 q 617 579 585 561 q 646 586 630 586 q 678 577 663 586 q 702 555 694 569 m 1308 233 q 1311 203 1311 216 q 1286 115 1311 161 q 1130 -24 1252 47 q 935 -114 1032 -82 q 680 -171 843 -142 q 430 -201 518 -201 q 288 -176 364 -201 q 144 -101 200 -148 q 67 27 76 -45 q 187 226 67 147 q 446 322 283 290 q 697 347 572 347 q 719 304 719 323 q 704 276 719 289 q 668 254 692 266 q 514 249 575 254 q 358 219 424 240 q 217 145 278 193 q 180 102 192 117 q 157 47 157 74 q 180 -3 157 18 q 265 -51 189 -11 q 366 -77 311 -69 q 483 -86 421 -86 q 786 -45 622 -86 q 1050 42 925 -11 q 1155 104 1123 81 q 1224 201 1224 155 q 1216 231 1224 217 q 1176 272 1196 252 q 1150 328 1150 302 q 1154 347 1150 337 q 1205 373 1180 373 q 1222 369 1214 373 q 1239 360 1231 366 q 1284 308 1266 341 q 1308 233 1303 275 "},"«":{"x_min":107,"x_max":719,"ha":850,"o":"m 719 718 l 719 640 l 518 407 l 719 174 l 719 96 l 401 379 l 401 435 l 719 718 m 425 718 l 425 640 l 224 407 l 425 174 l 425 96 l 107 379 l 107 435 l 425 718 "},"ﻻ":{"x_min":67.609375,"x_max":631,"ha":699,"o":"m 629 264 q 629 218 629 239 q 631 177 630 197 q 618 78 631 124 q 556 -78 602 16 q 574 -137 567 -105 q 580 -202 580 -169 q 575 -256 580 -231 q 556 -301 569 -281 q 474 -349 524 -334 q 377 -362 433 -362 q 312 -358 347 -362 q 229 -336 256 -344 q 161 -289 180 -320 q 159 -279 159 -283 q 172 -258 159 -267 q 195 -245 178 -253 q 204 -245 200 -245 q 214 -245 209 -245 q 346 -194 283 -245 q 440 -84 394 -156 q 385 23 418 -38 q 327 132 356 77 q 271 243 294 195 q 190 413 221 343 q 119 589 146 512 q 67 773 86 682 q 92 792 71 787 q 125 800 122 798 q 159 761 152 800 q 168 729 163 736 q 270 482 212 613 q 383 243 318 373 q 505 7 439 131 q 532 100 524 51 q 541 198 541 150 q 528 337 541 261 q 503 475 526 352 q 482 614 486 565 q 475 653 477 635 q 473 692 473 672 q 488 710 473 703 q 524 718 504 718 q 540 715 532 718 l 557 688 q 585 544 571 616 q 610 407 604 445 q 629 264 621 338 m 499 -248 l 499 -239 q 499 -215 499 -226 q 491 -180 497 -194 q 465 -200 479 -190 q 419 -233 442 -216 q 358 -280 388 -256 q 434 -273 400 -280 q 499 -248 469 -266 "},"∙":{"x_min":129,"x_max":310,"ha":442,"o":"m 129 482 q 155 545 129 519 q 219 572 181 572 q 283 545 257 572 q 310 482 310 519 q 283 418 310 444 q 219 392 257 392 q 155 417 181 392 q 129 482 129 443 "},"ل":{"x_min":67.828125,"x_max":798.953125,"ha":867,"o":"m 798 -81 q 718 -245 784 -171 q 561 -341 652 -318 q 481 -365 524 -357 q 392 -374 437 -374 q 253 -353 318 -374 q 147 -293 189 -333 q 100 -241 123 -267 q 67 -175 73 -207 q 102 -27 67 -94 q 202 89 137 40 q 280 121 221 102 q 392 142 347 142 q 432 134 417 142 q 446 108 446 126 q 413 63 446 74 q 348 45 381 54 q 231 -9 290 39 q 167 -120 167 -64 q 190 -180 167 -152 q 303 -252 232 -227 q 443 -275 368 -275 q 475 -268 452 -270 q 511 -259 499 -267 q 638 -191 571 -259 q 715 -64 699 -128 q 694 115 715 23 q 642 283 676 193 q 573 444 623 330 q 538 546 560 489 q 497 646 529 568 q 458 747 470 714 q 472 773 460 763 q 518 792 476 776 q 573 748 564 792 q 593 673 586 682 q 679 425 617 589 q 761 182 737 272 q 798 -81 798 42 "},"í":{"x_min":51,"x_max":454,"ha":444,"o":"m 295 72 l 413 72 l 413 0 l 51 0 l 51 72 l 170 72 l 170 648 l 51 648 l 51 721 l 295 721 l 295 72 m 319 1111 l 454 1111 l 223 856 l 144 856 l 319 1111 "},"ˆ":{"x_min":131,"x_max":564,"ha":695,"o":"m 290 1111 l 404 1111 l 564 856 l 485 856 l 347 1032 l 209 856 l 131 856 l 290 1111 "},"ﺜ":{"x_min":0,"x_max":476.796875,"ha":477,"o":"m 238 897 q 244 867 244 884 q 213 812 244 830 q 183 805 200 805 q 151 813 166 805 q 129 836 137 821 q 120 867 120 851 q 153 922 120 903 q 181 928 166 928 q 214 919 198 928 q 238 897 229 911 m 315 772 q 322 742 322 758 q 290 687 322 705 q 260 680 278 680 q 229 688 243 680 q 206 711 215 696 q 198 742 198 726 q 230 796 198 778 q 259 803 243 803 q 291 795 276 803 q 315 772 307 786 m 162 772 q 168 742 168 758 q 137 687 168 705 q 107 680 124 680 q 75 688 90 680 q 53 711 61 696 q 44 742 44 726 q 77 796 44 778 q 105 803 90 803 q 138 795 122 803 q 162 772 153 786 m 476 0 q 357 48 419 0 q 274 148 301 92 q 223 89 229 95 q 143 27 185 49 q 26 -1 88 -1 q 10 -1 18 -1 q 0 0 2 0 l 0 100 q 21 98 10 98 q 127 130 71 98 q 187 197 183 162 q 189 216 189 205 q 190 239 190 228 q 183 319 190 271 q 168 460 168 430 q 184 486 171 476 q 213 497 198 497 q 237 487 227 497 q 246 457 246 477 q 296 308 278 354 q 370 164 333 213 q 476 100 420 100 l 476 0 "},"و":{"x_min":67.828125,"x_max":663.984375,"ha":732,"o":"m 648 -2 q 601 -131 632 -71 q 531 -236 575 -181 q 443 -339 511 -262 q 278 -499 358 -435 q 103 -600 186 -572 q 94 -601 97 -601 q 76 -592 83 -601 q 69 -574 69 -584 q 67 -561 67 -566 q 78 -533 67 -548 q 97 -510 91 -518 q 187 -444 139 -482 q 296 -352 242 -401 q 402 -244 359 -294 q 495 -116 452 -188 q 558 6 533 -53 q 522 4 541 4 q 331 102 411 4 q 246 298 265 185 q 272 446 246 389 q 387 549 306 521 q 502 517 455 542 q 579 447 548 491 q 640 312 617 394 q 663 139 663 230 q 648 -2 663 65 m 573 108 q 560 233 573 168 q 518 366 545 313 q 478 417 499 400 q 425 437 453 437 q 355 406 392 437 q 334 310 334 356 q 359 218 334 260 q 436 142 383 176 q 510 112 475 118 q 573 108 550 110 "},"µ":{"x_min":39.609375,"x_max":852,"ha":903,"o":"m 500 721 l 734 721 l 734 71 l 852 71 l 852 0 l 609 0 l 609 127 q 524 17 573 55 q 413 -20 474 -20 q 343 -7 374 -20 q 285 29 311 4 l 285 -216 l 403 -216 l 403 -289 l 39 -289 l 39 -216 l 160 -216 l 160 648 l 47 648 l 47 721 l 285 721 l 285 301 q 317 120 285 169 q 431 72 349 72 q 563 135 518 72 q 609 320 609 199 l 609 648 l 500 648 l 500 721 "},"č":{"x_min":69,"x_max":714,"ha":778,"o":"m 714 216 q 612 40 687 100 q 417 -20 536 -20 q 164 84 260 -20 q 69 360 69 188 q 164 637 69 533 q 417 741 260 741 q 553 725 485 741 q 690 677 621 709 l 690 493 l 617 493 q 555 630 602 587 q 418 674 507 674 q 266 595 317 674 q 215 360 215 517 q 266 125 215 204 q 419 47 317 47 q 548 89 500 47 q 614 216 596 131 l 714 216 m 354 856 l 195 1111 l 273 1111 l 411 934 l 549 1111 l 628 1111 l 468 856 l 354 856 "},"’":{"x_min":99,"x_max":331,"ha":442,"o":"m 99 724 q 175 825 151 766 q 199 971 199 883 l 199 1013 l 331 1013 q 287 813 330 895 q 151 670 244 731 l 99 724 "},"-":{"x_min":61,"x_max":408,"ha":469,"o":"m 61 425 l 408 425 l 408 319 l 61 319 l 61 425 "},"ﻘ":{"x_min":0.125,"x_max":593.1875,"ha":593,"o":"m 434 971 q 441 942 441 958 q 410 887 441 904 q 379 879 396 879 q 347 887 362 879 q 324 911 333 895 q 318 935 318 923 q 329 969 318 952 q 358 997 341 986 q 385 1004 371 1004 q 412 995 400 1004 q 434 971 425 987 m 271 971 q 278 942 278 958 q 247 887 278 904 q 217 879 234 879 q 186 887 200 879 q 163 911 171 895 q 156 935 156 923 q 168 969 156 952 q 197 997 179 986 q 223 1004 209 1004 q 250 995 237 1004 q 271 971 262 987 m 593 0 q 468 39 530 7 q 360 112 415 66 q 188 28 257 52 q 0 0 103 0 l 0 98 q 193 121 123 98 q 290 181 252 141 q 223 319 248 238 q 198 476 198 400 q 200 514 198 495 q 236 656 200 592 q 339 729 277 729 q 366 726 354 729 q 394 715 377 723 q 473 585 446 664 q 497 434 497 516 q 472 300 497 366 q 425 173 447 235 q 593 98 505 109 l 593 0 m 389 518 q 363 575 380 546 q 327 628 350 600 q 298 573 304 586 q 284 515 284 542 q 283 500 283 507 q 283 489 283 494 q 306 358 283 428 q 365 244 329 289 q 403 414 403 322 q 389 518 403 468 "},"ﻇ":{"x_min":0,"x_max":902.71875,"ha":971,"o":"m 421 971 q 427 942 427 958 q 396 887 427 904 q 366 879 383 879 q 335 887 349 879 q 311 911 320 895 q 305 935 305 923 q 317 969 305 952 q 345 996 328 986 q 372 1003 358 1003 q 399 995 387 1003 q 421 971 412 987 m 862 320 q 805 240 841 282 q 748 182 779 210 q 723 160 724 160 q 489 44 626 82 q 229 9 366 9 q 204 -82 225 0 q 183 -155 196 -118 q 152 -128 175 -159 q 135 -100 141 -112 q 127 -74 130 -87 q 124 -52 124 -61 q 126 -31 124 -43 q 130 8 130 -4 q 86 -1 111 2 q 36 -5 60 -5 q 0 0 14 -5 l 0 99 q 29 88 11 92 q 65 84 47 84 q 145 101 114 84 q 166 246 160 203 q 197 380 183 345 q 137 612 168 484 q 85 838 118 692 q 30 1073 52 984 q 44 1106 34 1095 q 68 1117 54 1117 q 101 1100 85 1117 q 124 1058 118 1084 q 183 832 153 955 q 273 476 259 528 q 401 631 331 569 q 573 733 479 701 q 609 745 590 741 q 646 749 628 749 q 754 721 698 749 q 844 657 804 697 q 888 574 873 621 q 902 474 902 527 q 892 392 902 432 q 862 320 882 352 m 801 429 q 803 465 801 440 q 804 504 804 491 q 798 556 804 536 q 773 597 791 581 q 720 631 749 620 q 660 641 691 641 q 519 596 594 641 q 401 499 455 558 q 311 393 356 446 q 343 305 330 349 q 360 224 360 251 q 347 200 360 200 q 317 216 337 200 q 264 271 295 234 q 249 191 255 232 q 244 113 244 149 q 315 118 264 113 q 376 122 366 122 q 554 174 474 140 q 710 272 649 214 q 801 429 780 340 "},"Q":{"x_min":78,"x_max":1061,"ha":1139,"o":"m 585 -20 q 215 122 353 -20 q 78 505 78 265 q 114 724 78 627 q 227 897 151 821 q 379 997 294 963 q 569 1031 465 1031 q 925 886 789 1031 q 1061 505 1061 741 q 959 167 1061 304 q 678 -8 857 30 q 767 -75 715 -53 q 894 -97 820 -97 l 915 -97 l 915 -222 q 718 -166 800 -216 q 585 -20 637 -115 m 569 53 q 820 167 735 53 q 905 505 905 281 q 820 843 905 729 q 569 958 735 958 q 317 843 402 958 q 233 505 233 729 q 317 167 233 281 q 569 53 402 53 "},"ﺺ":{"x_min":68,"x_max":1565,"ha":1565,"o":"m 1565 0 q 1443 53 1505 0 q 1368 144 1392 96 l 1360 161 q 1122 38 1258 82 q 863 -3 993 -3 q 851 -64 855 -44 q 822 -118 845 -101 q 810 -120 818 -120 q 785 -115 797 -120 q 769 -99 773 -110 q 759 -65 762 -83 q 757 -26 757 -47 l 757 2 q 755 34 757 25 q 749 51 754 43 q 706 85 748 51 q 665 117 676 107 q 667 81 665 98 q 670 45 668 64 q 644 -59 657 -21 q 596 -160 624 -119 q 510 -237 561 -211 q 444 -263 481 -254 q 373 -272 407 -272 q 236 -240 298 -272 q 103 -79 145 -180 q 68 130 68 9 q 77 261 68 195 q 100 388 83 314 q 119 456 109 422 q 165 502 134 496 q 196 495 180 498 q 213 472 210 489 q 170 205 191 338 q 192 11 170 86 q 293 -144 221 -88 q 370 -157 329 -157 q 507 -113 449 -157 q 543 -26 532 -72 q 555 67 555 20 q 541 189 555 120 q 512 311 534 222 q 482 446 490 399 q 511 469 492 460 q 550 479 530 479 q 585 467 572 479 q 610 418 602 453 q 621 357 615 387 l 629 319 q 699 234 663 273 q 783 161 743 186 q 861 394 811 288 q 1000 601 920 517 q 1206 735 1091 696 q 1275 749 1237 749 q 1390 718 1329 749 q 1484 650 1441 692 q 1524 572 1511 616 q 1538 480 1538 529 q 1527 396 1538 437 q 1495 322 1516 355 q 1464 271 1482 296 q 1424 221 1446 245 q 1486 132 1455 162 q 1565 96 1523 96 l 1565 0 m 1436 430 q 1436 470 1436 454 q 1438 500 1437 486 q 1431 560 1438 535 q 1404 601 1424 584 q 1351 634 1380 624 q 1292 645 1323 645 q 1152 599 1227 645 q 1034 501 1091 563 q 951 356 987 438 q 898 198 917 281 q 892 165 895 185 q 881 110 883 117 q 889 105 881 106 q 909 104 896 104 q 959 106 931 104 q 1010 110 988 108 q 1187 165 1105 128 q 1344 270 1284 209 q 1436 430 1414 340 "},"M":{"x_min":70,"x_max":1352,"ha":1422,"o":"m 77 0 l 77 72 l 206 72 l 206 940 l 70 940 l 70 1013 l 364 1013 l 719 291 l 1074 1013 l 1352 1013 l 1352 940 l 1217 940 l 1217 72 l 1347 72 l 1347 0 l 950 0 l 950 72 l 1079 72 l 1079 854 l 731 148 l 636 148 l 289 854 l 289 72 l 418 72 l 418 0 l 77 0 "},"ظ":{"x_min":67.828125,"x_max":1112.28125,"ha":1180,"o":"m 593 978 q 600 948 600 965 q 569 893 600 911 q 538 886 556 886 q 507 894 521 886 q 484 918 493 902 q 478 942 478 929 q 489 976 478 959 q 518 1003 500 993 q 544 1010 531 1010 q 572 1002 559 1010 q 593 978 584 994 m 1072 320 q 990 215 1049 278 q 934 160 970 194 q 698 37 834 80 q 438 -4 569 -4 q 415 -87 438 -5 q 392 -155 406 -118 q 370 -137 387 -158 q 347 -101 353 -116 q 333 -50 333 -69 q 335 -29 333 -45 q 338 0 338 -14 q 279 27 307 4 q 229 75 272 32 q 138 208 179 126 q 86 339 106 271 q 67 413 71 385 q 88 455 80 442 q 122 480 102 480 q 156 467 138 480 q 185 388 164 444 q 216 305 200 347 q 273 199 249 235 q 359 112 316 133 q 370 199 366 176 q 387 306 379 260 q 406 380 396 352 q 347 612 380 474 q 297 836 333 672 q 241 1073 266 972 q 255 1106 245 1095 q 278 1117 265 1117 q 311 1101 295 1117 q 334 1058 326 1085 q 388 854 362 956 q 432 678 396 826 q 484 476 461 561 q 611 631 541 569 q 784 733 689 701 q 819 745 800 741 q 857 749 838 749 q 965 721 908 749 q 1055 657 1015 697 q 1097 574 1083 621 q 1112 475 1112 526 q 1072 320 1112 386 m 1012 429 q 1013 465 1012 440 q 1015 504 1015 491 q 1009 556 1015 536 q 984 597 1002 581 q 931 631 959 620 q 870 641 902 641 q 729 596 805 641 q 611 499 667 559 q 568 444 589 472 q 531 386 543 412 q 568 292 550 347 q 587 210 587 238 q 575 189 587 189 q 543 207 564 189 q 484 271 518 228 q 471 210 477 246 q 453 108 453 109 q 459 104 453 105 q 478 103 466 103 q 535 106 496 103 q 579 109 574 109 q 587 108 585 108 q 848 210 738 137 q 1012 429 981 298 "},"ؤ":{"x_min":67.828125,"x_max":663.984375,"ha":732,"o":"m 439 857 q 443 845 443 854 q 440 823 443 835 q 431 808 436 812 q 421 795 425 799 q 402 781 413 784 q 252 745 324 756 q 140 736 193 736 q 113 737 124 736 q 86 739 103 738 l 103 766 q 111 765 105 765 q 168 776 132 765 q 221 795 189 782 q 166 816 183 803 q 133 866 144 831 q 132 877 132 870 q 146 923 132 900 q 181 965 159 946 q 228 995 203 984 q 278 1006 254 1006 q 343 981 316 1006 q 376 941 363 962 q 388 900 388 919 q 373 867 388 879 q 344 850 358 855 q 316 845 330 845 q 261 864 288 845 q 240 884 252 871 q 250 894 246 891 q 262 901 257 901 q 269 899 265 901 q 287 878 278 884 q 304 871 296 871 q 323 881 316 871 q 327 901 330 891 q 304 932 322 921 q 264 943 286 943 q 233 927 246 943 q 219 899 220 911 q 217 879 217 888 q 229 846 217 858 q 274 829 242 834 q 303 826 288 826 q 330 829 316 826 q 361 835 345 832 q 402 846 377 838 q 439 857 427 854 m 648 -2 q 601 -131 632 -71 q 531 -236 575 -181 q 443 -339 511 -261 q 278 -499 358 -435 q 103 -600 186 -572 q 94 -601 97 -601 q 76 -592 83 -601 q 69 -574 69 -584 q 67 -561 67 -566 q 78 -533 67 -548 q 97 -510 91 -518 q 187 -444 139 -482 q 296 -352 242 -401 q 402 -244 359 -294 q 495 -116 452 -188 q 558 6 533 -53 q 522 4 541 4 q 331 102 411 4 q 246 298 265 185 q 272 446 246 389 q 387 548 306 520 q 502 516 455 541 q 579 447 548 491 q 640 312 617 394 q 663 139 663 229 q 648 -2 663 65 m 573 108 q 560 233 573 168 q 518 366 545 313 q 478 417 499 400 q 425 437 453 437 q 355 406 392 437 q 334 310 334 356 q 359 218 334 260 q 436 142 383 176 q 510 112 475 118 q 573 108 550 110 "},"ﺍ":{"x_min":67.828125,"x_max":333,"ha":401,"o":"m 333 30 q 282 -12 318 -12 q 233 21 252 -12 q 173 288 204 123 q 122 579 147 433 q 67 854 92 752 q 81 885 71 874 q 103 896 90 896 q 137 880 120 896 q 160 837 153 864 q 219 577 189 731 q 269 311 244 444 q 333 30 300 150 "},"œ":{"x_min":69,"x_max":1304,"ha":1373,"o":"m 417 47 q 568 126 517 47 q 620 360 620 205 q 568 594 620 515 q 417 674 517 674 q 266 594 317 674 q 215 360 215 515 q 266 126 215 205 q 417 47 317 47 m 1304 348 l 766 348 l 766 342 q 821 121 766 196 q 983 47 876 47 q 1118 90 1065 47 q 1192 218 1170 133 l 1292 218 q 1181 39 1262 99 q 970 -20 1101 -20 q 812 13 882 -20 q 692 112 742 46 q 575 13 645 47 q 417 -20 505 -20 q 164 84 260 -20 q 69 360 69 188 q 164 637 69 533 q 417 741 259 741 q 576 707 506 741 q 694 608 646 673 q 811 707 743 673 q 962 741 879 741 q 1213 640 1126 741 q 1304 348 1300 539 m 1157 420 q 1103 609 1152 545 q 962 674 1054 674 q 826 609 875 674 q 766 420 776 545 l 1157 420 "},"ﻢ":{"x_min":68,"x_max":731.453125,"ha":731,"o":"m 731 0 q 722 0 726 0 q 717 0 719 0 q 668 14 686 0 q 635 61 650 29 q 596 11 620 29 q 544 -12 572 -7 q 443 19 492 -12 q 365 97 402 47 q 326 187 342 137 q 310 285 310 238 q 315 332 310 311 q 337 357 323 347 q 366 367 351 367 q 384 362 375 367 q 393 316 390 341 q 395 267 395 291 q 429 161 395 215 q 513 84 464 107 q 529 80 521 80 q 565 106 544 80 q 589 139 580 127 q 543 270 589 201 q 437 369 497 338 q 361 383 410 383 q 279 373 318 383 q 219 349 239 364 q 171 283 186 322 q 157 190 157 244 q 184 26 157 118 q 253 -152 207 -52 q 331 -303 285 -221 q 410 -435 374 -379 q 477 -536 428 -463 q 491 -563 487 -553 q 496 -587 496 -574 q 494 -598 496 -589 q 475 -616 489 -610 q 448 -621 467 -619 q 389 -568 426 -618 q 326 -471 367 -539 q 277 -396 289 -410 q 188 -216 225 -297 q 105 0 134 -97 q 68 214 68 123 q 73 281 68 247 q 164 410 101 357 q 337 475 240 475 q 352 475 342 475 q 367 476 362 476 q 492 443 434 476 q 580 349 550 410 q 620 320 605 349 q 645 271 633 295 q 673 172 659 221 q 731 98 694 112 l 731 0 "},"ﺴ":{"x_min":0,"x_max":1214.703125,"ha":1215,"o":"m 1214 0 q 1099 41 1155 0 q 1025 121 1055 75 q 984 36 1013 67 q 896 0 950 0 q 805 20 832 0 q 763 67 779 49 q 715 13 739 30 q 665 -3 691 -3 q 623 5 645 -3 q 575 30 602 13 q 513 92 542 52 q 467 178 483 133 q 302 50 419 96 q 0 0 178 0 l 0 94 q 307 157 187 94 q 425 286 410 211 q 427 302 427 292 q 411 365 427 324 q 386 436 390 420 q 406 455 394 448 q 447 472 427 463 q 503 431 491 472 q 522 345 512 388 q 562 194 550 225 q 660 94 599 102 q 710 143 694 113 q 727 224 727 173 q 705 366 727 281 q 691 405 705 376 q 677 447 677 434 q 681 464 677 457 q 698 475 686 470 q 725 484 710 484 q 741 480 733 484 q 758 472 750 477 q 799 326 777 427 q 834 185 820 224 q 900 94 859 114 q 952 142 937 102 q 963 216 963 171 q 932 342 963 259 q 902 461 902 426 q 935 480 920 480 q 946 478 942 480 q 965 472 951 477 q 1001 385 985 427 q 1027 292 1020 332 q 1102 154 1064 200 q 1214 95 1152 95 l 1214 0 "},"ﺭ":{"x_min":69.03125,"x_max":752.828125,"ha":821,"o":"m 746 118 q 674 105 710 118 q 596 59 631 90 q 545 -47 562 9 q 528 -138 532 -90 q 524 -245 524 -186 q 487 -342 524 -288 q 398 -442 456 -388 q 295 -528 351 -487 q 216 -569 264 -551 q 118 -606 168 -587 q 106 -608 113 -608 q 79 -600 91 -608 q 69 -583 67 -592 q 128 -531 73 -561 q 183 -500 183 -501 q 352 -378 287 -439 q 436 -243 430 -305 q 444 -120 440 -185 q 465 0 448 -55 q 539 141 489 73 q 588 181 556 163 q 668 203 627 203 q 731 190 699 203 q 747 170 742 181 q 752 148 752 159 q 750 131 752 139 q 746 118 748 122 "},"{":{"x_min":173.828125,"x_max":710.078125,"ha":884,"o":"m 710 -156 l 710 -227 l 668 -227 q 442 -176 499 -227 q 385 23 385 -126 l 385 198 q 348 339 385 300 q 215 379 311 379 l 173 379 l 173 450 l 215 450 q 348 489 311 450 q 385 630 385 528 l 385 805 q 442 1005 385 955 q 668 1055 499 1055 l 710 1055 l 710 984 l 663 984 q 539 954 568 984 q 510 828 510 924 l 510 634 q 476 481 510 527 q 354 414 442 435 q 476 346 443 391 q 510 194 510 300 l 510 0 q 539 -126 510 -96 q 663 -156 568 -156 l 710 -156 "},"ك":{"x_min":68.125,"x_max":1177,"ha":1245,"o":"m 1134 5 q 978 -160 1082 -99 q 763 -234 890 -213 q 531 -251 666 -251 q 276 -184 393 -251 q 91 4 159 -117 q 68 104 68 49 q 85 195 68 150 q 131 275 102 241 q 241 359 175 329 q 382 388 308 388 q 503 367 444 388 q 515 369 511 369 q 565 352 532 369 q 614 335 599 335 q 639 343 627 335 q 662 367 651 350 q 761 388 704 388 q 844 377 802 388 q 918 348 885 367 q 928 319 928 334 q 913 289 928 302 q 877 277 897 277 q 863 279 870 277 q 769 309 822 309 q 659 275 711 309 q 651 262 651 272 q 652 250 652 254 q 650 243 652 247 q 753 215 666 223 q 839 159 839 208 q 838 144 839 151 q 835 129 837 137 q 790 56 808 79 q 719 7 759 18 q 655 0 690 0 q 517 32 579 0 q 435 131 447 68 q 452 146 451 145 q 481 156 466 156 q 503 152 491 156 q 564 93 523 116 q 650 70 605 70 q 694 77 674 70 q 730 99 713 84 q 744 122 732 108 q 751 135 751 129 q 750 144 751 138 q 737 152 745 152 q 722 148 732 152 q 707 144 712 144 q 636 163 658 154 q 572 207 596 179 q 563 234 567 213 q 535 268 555 265 q 474 281 515 272 q 363 295 407 295 q 271 280 309 295 q 196 219 226 261 q 175 174 182 198 q 169 129 169 150 q 221 2 169 64 q 342 -94 266 -50 q 477 -152 412 -134 q 612 -170 541 -170 q 760 -154 680 -170 q 899 -110 841 -138 q 1015 -27 967 -78 q 1063 57 1048 13 q 1078 153 1078 102 q 1036 340 1078 237 q 943 521 1005 418 q 846 680 894 600 q 846 684 846 682 q 846 687 846 686 q 866 716 846 704 q 898 735 895 731 q 907 736 901 736 q 958 677 941 736 q 983 630 968 641 q 1030 546 1004 592 q 1078 462 1071 474 q 1122 375 1103 416 q 1162 278 1147 332 q 1177 168 1177 223 q 1167 82 1177 122 q 1134 5 1157 42 "},"¼":{"x_min":100,"x_max":1303,"ha":1346,"o":"m 119 453 l 119 510 l 236 510 l 236 940 l 100 868 l 100 932 l 262 1019 l 332 1019 l 332 510 l 449 510 l 449 453 l 119 453 m 942 1031 l 1044 1031 l 404 -20 l 303 -20 l 942 1031 m 1095 207 l 1095 482 l 886 207 l 1095 207 m 1290 1 l 996 1 l 996 58 l 1095 58 l 1095 151 l 825 151 l 825 207 l 1096 567 l 1192 567 l 1192 207 l 1303 207 l 1303 151 l 1192 151 l 1192 58 l 1290 58 l 1290 1 "},"#":{"x_min":107,"x_max":1057,"ha":1164,"o":"m 706 611 l 515 611 l 458 385 l 651 385 l 706 611 m 610 997 l 541 715 l 732 715 l 802 997 l 919 997 l 848 715 l 1057 715 l 1057 611 l 821 611 l 766 385 l 979 385 l 979 281 l 740 281 l 670 0 l 554 0 l 625 281 l 433 281 l 362 0 l 247 0 l 316 281 l 107 281 l 107 385 l 343 385 l 398 611 l 184 611 l 184 715 l 425 715 l 495 997 l 610 997 "},"ﻑ":{"x_min":68.15625,"x_max":1135,"ha":1203,"o":"m 925 971 q 931 942 931 958 q 900 887 931 904 q 870 879 887 879 q 838 887 853 879 q 815 911 824 895 q 809 935 809 923 q 820 969 809 952 q 849 997 832 986 q 876 1004 862 1004 q 903 995 891 1004 q 925 971 916 987 m 1135 441 q 1102 261 1135 343 q 997 119 1067 173 q 895 61 953 85 q 716 5 885 57 q 613 -17 660 -9 q 520 -25 565 -25 q 453 -20 487 -25 q 380 -5 418 -15 q 207 70 277 23 q 83 197 134 118 q 68 287 68 244 q 159 465 68 390 q 359 566 231 525 q 435 573 410 571 q 495 575 460 575 q 587 567 545 575 q 666 539 629 559 q 670 516 670 529 q 666 494 670 506 q 659 471 662 483 q 643 466 651 467 q 627 465 636 465 q 565 475 615 465 q 524 481 540 481 q 464 486 496 486 q 310 455 385 486 q 186 368 235 424 q 170 288 170 326 q 177 243 170 263 q 199 203 183 222 q 350 113 260 141 q 530 89 427 89 q 647 95 588 89 q 772 115 705 102 q 877 155 842 138 q 927 189 912 172 q 861 325 886 245 q 836 479 836 404 q 838 521 836 500 q 875 663 838 599 q 979 736 916 736 q 1005 733 993 736 q 1033 722 1016 730 q 1111 592 1086 670 q 1135 441 1135 523 m 1027 523 q 1004 585 1016 558 q 970 636 991 611 q 939 571 951 602 q 924 501 924 531 q 923 487 924 493 q 923 476 923 480 q 943 366 923 422 q 992 264 958 321 q 1026 353 1014 308 q 1038 443 1038 398 q 1027 523 1038 487 "},"ـ":{"x_min":-0.671875,"x_max":541.21875,"ha":542,"o":"m 541 0 l 0 0 l 0 100 l 541 100 l 541 0 "},"Ê":{"x_min":77,"x_max":903,"ha":1014,"o":"m 77 0 l 77 72 l 206 72 l 206 940 l 77 940 l 77 1013 l 892 1013 l 892 788 l 809 788 l 809 930 l 344 930 l 344 590 l 675 590 l 675 717 l 758 717 l 758 380 l 675 380 l 675 507 l 344 507 l 344 83 l 820 83 l 820 225 l 903 225 l 903 0 l 77 0 m 447 1288 l 567 1288 l 724 1109 l 645 1109 l 507 1218 l 369 1109 l 291 1109 l 447 1288 "},"ﺽ":{"x_min":68,"x_max":1538,"ha":1606,"o":"m 721 707 q 728 677 728 694 q 697 622 728 640 q 666 615 684 615 q 635 623 649 615 q 612 646 621 631 q 604 677 604 661 q 636 732 604 713 q 665 739 649 739 q 697 730 682 739 q 721 707 713 721 m 1495 322 q 1444 244 1477 286 q 1359 161 1403 194 q 1122 38 1258 81 q 863 -3 993 -3 q 851 -64 855 -44 q 822 -118 845 -101 q 810 -120 818 -120 q 785 -115 797 -120 q 769 -99 773 -110 q 759 -65 762 -83 q 757 -26 757 -47 l 757 2 q 755 34 757 25 q 749 51 754 43 q 706 85 748 51 q 665 117 676 107 q 667 81 665 98 q 670 45 668 64 q 644 -59 657 -21 q 596 -160 624 -119 q 510 -237 561 -211 q 444 -263 481 -254 q 373 -272 407 -272 q 236 -240 298 -272 q 103 -79 145 -180 q 68 130 68 9 q 77 261 68 195 q 100 388 83 314 q 119 456 109 422 q 165 502 134 496 q 196 495 180 498 q 213 472 210 489 q 170 205 191 338 q 192 11 170 86 q 293 -144 221 -88 q 370 -157 329 -157 q 507 -113 449 -157 q 543 -26 532 -72 q 555 67 555 20 q 541 189 555 120 q 512 311 534 222 q 482 446 490 399 q 511 469 492 460 q 550 479 530 479 q 585 467 572 479 q 610 418 602 453 q 621 357 615 387 q 627 320 623 351 q 632 285 631 290 q 720 203 661 244 q 783 161 739 190 q 862 394 811 288 q 1000 601 920 517 q 1206 735 1091 696 q 1275 749 1237 749 q 1390 718 1329 749 q 1484 649 1441 692 q 1524 572 1511 615 q 1538 480 1538 529 q 1527 396 1538 437 q 1495 322 1516 355 m 1436 430 q 1436 470 1436 454 q 1438 500 1437 486 q 1431 560 1438 535 q 1404 601 1424 584 q 1351 634 1380 624 q 1292 645 1323 645 q 1152 599 1227 645 q 1034 501 1091 563 q 951 356 987 438 q 898 198 917 281 q 892 165 895 185 q 881 110 883 117 q 889 105 881 106 q 909 104 896 104 q 959 106 931 104 q 1010 110 988 108 q 1187 165 1105 128 q 1344 270 1284 209 q 1436 430 1414 340 "},")":{"x_min":98,"x_max":432,"ha":542,"o":"m 98 -217 l 98 -150 q 248 51 202 -78 q 294 418 294 182 q 248 786 294 655 q 98 988 202 916 l 98 1055 q 347 820 263 981 q 432 418 432 660 q 347 17 432 177 q 98 -217 263 -143 "},"Å":{"x_min":-8,"x_max":1017,"ha":1003,"o":"m 602 1102 q 571 1175 602 1145 q 498 1206 541 1206 q 425 1176 455 1206 q 396 1102 396 1146 q 425 1029 396 1059 q 498 1000 455 1000 q 571 1029 541 1000 q 602 1102 602 1059 m 278 367 l 648 367 l 463 848 l 278 367 m -8 0 l -8 72 l 80 72 l 412 938 q 338 1004 363 963 q 313 1102 313 1046 q 367 1234 313 1179 q 498 1289 421 1289 q 630 1234 575 1289 q 685 1102 685 1179 q 658 1005 685 1048 q 583 938 632 962 l 917 72 l 1017 72 l 1017 0 l 648 0 l 648 72 l 761 72 l 676 294 l 250 294 l 165 72 l 277 72 l 277 0 l -8 0 "},"¸":{"x_min":197,"x_max":478,"ha":695,"o":"m 392 0 q 456 -81 435 -43 q 478 -152 478 -119 q 435 -237 478 -207 q 316 -268 392 -268 q 258 -263 287 -268 q 197 -251 228 -259 l 197 -163 q 251 -180 224 -174 q 302 -186 278 -186 q 363 -168 341 -186 q 386 -119 386 -150 q 371 -70 386 -100 q 326 0 356 -40 l 392 0 "},"a":{"x_min":69,"x_max":788,"ha":828,"o":"m 552 226 l 552 378 l 391 378 q 253 338 298 378 q 208 215 208 298 q 254 96 208 140 q 378 53 300 53 q 504 100 456 53 q 552 226 552 148 m 677 449 l 677 72 l 788 72 l 788 0 l 552 0 l 552 78 q 456 3 510 27 q 329 -20 402 -20 q 139 43 209 -20 q 69 215 69 107 q 149 389 69 327 q 377 451 230 451 l 552 451 l 552 500 q 502 628 552 583 q 362 674 452 674 q 243 639 287 674 q 189 539 199 605 l 125 539 l 125 685 q 251 727 190 713 q 370 741 312 741 q 598 666 520 741 q 677 449 677 591 "},"=":{"x_min":147,"x_max":1016,"ha":1164,"o":"m 147 628 l 1016 628 l 1016 519 l 147 519 l 147 628 m 147 351 l 1016 351 l 1016 242 l 147 242 l 147 351 "},"ﻯ":{"x_min":67.828125,"x_max":1416.125,"ha":1484,"o":"m 1407 661 q 1416 605 1416 635 q 1370 465 1416 538 q 1270 346 1334 406 q 1240 323 1257 329 q 1203 317 1224 317 q 1162 322 1184 317 q 1152 350 1152 336 q 1195 407 1152 373 q 1250 465 1242 446 q 1282 519 1270 487 q 1294 582 1294 551 q 1291 610 1294 598 q 1247 614 1270 614 q 1000 533 1136 614 q 823 365 864 453 q 817 341 817 352 q 826 308 817 326 q 843 277 830 297 q 906 242 873 253 q 968 233 934 233 q 1053 241 987 233 q 1107 245 1087 245 q 1164 239 1138 245 q 1218 217 1190 233 q 1237 187 1231 202 q 1243 154 1243 172 q 1230 94 1243 128 q 1203 36 1226 84 q 1083 -82 1154 -33 q 937 -155 1025 -121 q 774 -210 892 -172 q 650 -236 717 -226 q 519 -247 583 -247 q 329 -222 414 -247 q 170 -138 234 -195 q 94 -39 121 -96 q 67 81 67 17 q 68 96 67 89 q 71 125 68 104 q 127 247 85 194 q 228 328 167 297 q 348 359 290 359 q 542 271 446 359 q 582 245 546 271 q 656 180 628 213 q 697 93 697 133 q 697 86 697 89 q 694 73 695 77 q 684 60 691 64 q 670 56 677 56 q 655 58 661 56 q 638 66 649 60 q 554 143 615 83 q 459 224 497 198 q 351 263 401 263 q 307 256 330 263 q 262 236 284 250 q 196 172 217 202 q 167 87 167 133 q 174 40 167 65 q 320 -107 221 -59 q 532 -151 408 -151 q 859 -81 691 -151 q 1114 81 1021 -15 q 1123 98 1119 91 q 1129 119 1129 110 q 1123 133 1129 127 q 1087 144 1104 141 q 1053 146 1070 146 q 1015 144 1038 146 q 950 138 965 138 q 930 138 941 138 q 910 141 920 139 q 779 193 832 155 q 710 309 710 241 q 775 468 710 389 q 923 594 828 533 q 1086 678 997 641 q 1178 709 1152 701 q 1276 725 1233 725 q 1350 710 1317 725 q 1407 661 1383 695 "},"٭":{"x_min":26.453125,"x_max":510.703125,"ha":553,"o":"m 510 435 l 362 326 l 418 151 l 268 258 l 118 151 l 174 326 l 26 435 l 210 435 l 268 612 l 326 435 l 510 435 "},"˚":{"x_min":161,"x_max":533,"ha":695,"o":"m 533 1033 q 479 901 533 955 q 347 847 425 847 q 214 901 268 847 q 161 1033 161 955 q 214 1165 161 1111 q 347 1219 268 1219 q 479 1165 425 1219 q 533 1033 533 1111 m 450 1033 q 420 1106 450 1076 q 347 1136 390 1136 q 273 1106 302 1136 q 244 1033 244 1076 q 273 959 244 989 q 347 930 302 930 q 420 959 390 930 q 450 1033 450 989 "},"ú":{"x_min":37,"x_max":843,"ha":895,"o":"m 491 721 l 725 721 l 725 72 l 843 72 l 843 0 l 600 0 l 600 127 q 510 17 565 55 q 383 -20 455 -20 q 206 48 263 -20 q 150 262 150 116 l 150 648 l 37 648 l 37 721 l 275 721 l 275 301 q 307 120 275 169 q 422 72 339 72 q 554 135 509 72 q 600 320 600 199 l 600 648 l 491 648 l 491 721 m 491 1111 l 626 1111 l 395 856 l 316 856 l 491 1111 "},"٧":{"x_min":47.46875,"x_max":587.34375,"ha":665,"o":"m 585 102 q 587 81 587 90 q 564 26 587 45 q 507 7 542 7 l 284 7 q 204 33 238 7 q 158 114 167 62 l 47 737 q 61 758 56 751 q 88 779 77 779 q 124 759 100 779 q 145 737 131 752 l 259 96 l 488 96 l 393 631 q 391 646 392 637 q 390 663 390 655 q 407 717 390 697 q 459 738 424 738 l 472 738 l 585 102 "},"¯":{"x_min":144,"x_max":550,"ha":695,"o":"m 144 1035 l 550 1035 l 550 935 l 144 935 l 144 1035 "},"Z":{"x_min":62,"x_max":910,"ha":965,"o":"m 62 0 l 62 48 l 692 930 l 169 930 l 169 779 l 86 779 l 86 1013 l 886 1013 l 886 964 l 255 83 l 827 83 l 827 225 l 910 225 l 910 0 l 62 0 "},"ﻪ":{"x_min":68.046875,"x_max":674.171875,"ha":674,"o":"m 674 0 q 507 92 583 0 q 418 318 431 185 q 331 239 377 262 q 230 218 289 218 q 158 224 201 218 q 91 267 114 229 q 68 363 68 305 q 80 456 68 406 q 116 555 93 507 q 215 697 157 645 q 350 756 278 756 q 416 747 387 756 q 466 720 445 739 q 540 553 540 650 q 537 524 540 540 q 532 494 535 509 q 527 383 527 433 q 558 189 527 259 q 674 99 594 111 l 674 0 m 394 651 q 342 668 368 668 q 271 635 307 668 q 211 556 239 606 q 173 473 188 513 q 155 389 155 425 q 172 333 155 355 q 227 303 189 310 q 247 301 237 301 q 329 341 290 301 q 391 423 346 358 q 426 492 413 456 q 440 560 440 529 q 429 612 440 590 q 394 651 418 634 "},"u":{"x_min":37,"x_max":843,"ha":895,"o":"m 491 721 l 725 721 l 725 72 l 843 72 l 843 0 l 600 0 l 600 127 q 510 17 565 55 q 383 -20 455 -20 q 206 48 263 -20 q 150 262 150 116 l 150 648 l 37 648 l 37 721 l 275 721 l 275 301 q 307 120 275 169 q 422 72 339 72 q 554 135 509 72 q 600 320 600 199 l 600 648 l 491 648 l 491 721 "},"k":{"x_min":40,"x_max":851.734375,"ha":842,"o":"m 398 0 l 47 0 l 47 72 l 160 72 l 160 983 l 40 983 l 40 1055 l 285 1055 l 285 368 l 589 648 l 485 648 l 485 721 l 811 721 l 811 648 l 688 648 l 473 450 l 747 72 l 851 72 l 851 0 l 496 0 l 496 72 l 599 72 l 383 368 l 285 276 l 285 72 l 398 72 l 398 0 "},"إ":{"x_min":67.828125,"x_max":424.5625,"ha":492,"o":"m 368 30 q 316 -11 352 -11 q 267 22 286 -11 q 208 289 239 123 q 158 580 183 434 q 103 854 128 751 q 147 884 116 884 q 176 872 162 884 q 196 837 189 860 q 252 556 226 717 q 295 301 289 333 q 368 30 324 157 m 420 -238 q 424 -250 424 -241 q 421 -271 424 -260 q 412 -287 417 -283 q 402 -300 406 -296 q 383 -314 394 -311 q 233 -351 305 -339 q 121 -359 174 -359 q 85 -359 95 -359 q 67 -357 72 -357 l 84 -329 q 92 -330 86 -330 q 149 -319 113 -330 q 202 -300 170 -313 q 147 -279 164 -291 q 114 -228 125 -264 q 113 -217 113 -225 q 127 -172 113 -194 q 162 -130 140 -149 q 209 -100 184 -111 q 259 -89 235 -89 q 324 -114 297 -89 q 357 -154 344 -133 q 369 -195 369 -175 q 354 -228 369 -216 q 325 -245 339 -240 q 297 -249 311 -249 q 242 -230 269 -249 q 221 -211 233 -224 q 231 -201 227 -204 q 243 -194 238 -194 q 250 -196 246 -194 q 268 -217 259 -211 q 285 -224 277 -224 q 304 -214 297 -224 q 308 -194 311 -204 q 291 -168 303 -176 q 262 -159 280 -159 q 254 -160 257 -160 q 217 -174 233 -163 q 200 -197 201 -186 q 198 -215 198 -207 q 210 -249 198 -236 q 255 -266 223 -261 q 284 -268 269 -268 q 311 -265 297 -268 q 342 -260 326 -262 q 383 -249 358 -257 q 420 -238 408 -241 "},"Ù":{"x_min":65,"x_max":1109,"ha":1171,"o":"m 195 940 l 65 940 l 65 1013 l 462 1013 l 462 940 l 332 940 l 332 416 q 395 145 332 222 q 614 69 458 69 q 833 145 770 69 q 897 416 897 222 l 897 940 l 767 940 l 767 1013 l 1109 1013 l 1109 940 l 980 940 l 980 402 q 891 75 980 171 q 589 -20 802 -20 q 285 76 376 -20 q 195 402 195 172 l 195 940 m 564 1288 l 689 1109 l 609 1109 l 432 1288 l 564 1288 "},"¢":{"x_min":104,"x_max":748,"ha":884,"o":"m 426 672 q 294 583 338 661 q 251 360 251 505 q 294 137 251 215 q 426 49 338 59 l 426 672 m 748 217 q 660 53 724 112 q 494 -18 596 -5 l 494 -201 l 426 -201 l 426 -18 q 190 96 276 -5 q 104 360 104 198 q 190 626 104 524 q 426 739 276 727 l 426 919 l 494 919 l 494 739 q 613 718 556 733 q 724 676 669 702 l 724 492 l 652 492 q 600 619 639 575 q 494 672 561 663 l 494 49 q 594 100 555 57 q 648 217 633 143 l 748 217 "},"Ş":{"x_min":117,"x_max":850,"ha":952,"o":"m 129 49 l 129 280 l 207 279 q 273 108 210 163 q 466 53 337 53 q 650 100 587 53 q 714 240 714 148 q 675 352 714 313 q 514 429 637 392 l 380 469 q 176 579 235 513 q 117 759 117 645 q 208 959 117 888 q 465 1031 300 1031 q 620 1015 535 1031 q 799 971 704 1000 l 799 755 l 722 755 q 650 910 710 862 q 467 958 590 958 q 304 914 360 958 q 249 787 249 870 q 291 673 249 714 q 469 591 333 631 l 594 554 q 791 448 732 512 q 850 276 850 384 q 755 54 850 129 q 474 -20 661 -20 q 305 -2 391 -20 q 129 49 218 14 m 521 0 q 585 -81 564 -43 q 607 -152 607 -119 q 564 -237 607 -207 q 445 -268 521 -268 q 387 -263 416 -268 q 326 -251 357 -259 l 326 -163 q 380 -180 353 -174 q 431 -186 407 -186 q 492 -168 470 -186 q 515 -119 515 -150 q 500 -70 515 -100 q 455 0 485 -40 l 521 0 "},"é":{"x_min":69,"x_max":753,"ha":822,"o":"m 753 348 l 215 348 l 215 342 q 270 121 215 196 q 432 47 325 47 q 567 90 514 47 q 641 218 619 133 l 741 218 q 630 39 711 99 q 419 -20 550 -20 q 165 84 261 -20 q 69 360 69 188 q 163 636 69 531 q 411 741 257 741 q 662 640 574 741 q 753 348 749 539 m 606 420 q 552 609 601 545 q 411 674 503 674 q 275 609 324 674 q 215 420 225 545 l 606 420 m 506 1111 l 641 1111 l 410 856 l 331 856 l 506 1111 "},"B":{"x_min":77,"x_max":936,"ha":1021,"o":"m 344 72 l 546 72 q 724 124 668 72 q 781 293 781 177 q 725 460 781 407 q 546 513 669 513 l 344 513 l 344 72 m 344 585 l 515 585 q 677 627 626 585 q 729 762 729 670 q 677 897 729 855 q 515 940 626 940 l 344 940 l 344 585 m 77 0 l 77 72 l 206 72 l 206 940 l 77 940 l 77 1013 l 576 1013 q 807 950 729 1013 q 885 762 885 887 q 831 618 885 672 q 673 553 777 565 q 869 470 802 536 q 936 293 936 404 q 841 71 936 142 q 544 0 746 0 l 77 0 "},"…":{"x_min":142,"x_max":1248,"ha":1389,"o":"m 1068 70 q 1094 134 1068 108 q 1158 161 1120 161 q 1221 134 1195 161 q 1248 70 1248 108 q 1221 6 1248 32 q 1158 -20 1195 -20 q 1093 6 1119 -20 q 1068 70 1068 32 m 605 70 q 631 134 605 108 q 695 161 657 161 q 758 134 732 161 q 785 70 785 108 q 758 6 785 32 q 695 -20 732 -20 q 630 6 656 -20 q 605 70 605 32 m 142 70 q 168 134 142 108 q 232 161 194 161 q 295 134 269 161 q 322 70 322 108 q 295 6 322 32 q 232 -20 269 -20 q 167 6 193 -20 q 142 70 142 32 "},"ﺓ":{"x_min":47,"x_max":517,"ha":562,"o":"m 412 871 q 419 842 419 858 q 387 787 419 804 q 357 779 374 779 q 325 787 340 779 q 302 811 311 795 q 296 835 296 823 q 307 869 296 852 q 336 897 319 886 q 363 903 349 903 q 390 895 378 903 q 412 871 403 887 m 256 871 q 262 842 262 858 q 231 787 262 804 q 201 779 218 779 q 170 787 184 779 q 147 811 155 795 q 141 835 141 823 q 152 869 141 852 q 180 897 163 886 q 207 903 193 903 q 234 895 222 903 q 256 871 247 887 m 370 442 q 318 459 344 459 q 247 426 283 459 q 187 347 215 397 q 153 266 166 309 q 140 188 140 224 q 154 126 140 151 q 203 94 169 102 q 214 92 207 92 q 226 91 221 91 q 306 132 268 91 q 367 215 320 147 q 402 283 389 247 q 416 352 416 320 q 405 403 416 381 q 370 442 394 425 m 140 15 q 70 74 93 33 q 47 169 47 114 q 58 255 47 210 q 92 347 70 299 q 191 489 133 436 q 326 547 255 547 q 392 539 363 547 q 442 511 421 531 q 497 435 478 477 q 517 346 517 393 q 509 286 517 316 q 408 105 482 191 q 213 0 316 0 q 140 15 178 0 "},"H":{"x_min":77,"x_max":1135,"ha":1211,"o":"m 77 0 l 77 72 l 206 72 l 206 940 l 77 940 l 77 1013 l 473 1013 l 473 940 l 344 940 l 344 590 l 868 590 l 868 940 l 739 940 l 739 1013 l 1135 1013 l 1135 940 l 1006 940 l 1006 72 l 1135 72 l 1135 0 l 739 0 l 739 72 l 868 72 l 868 507 l 344 507 l 344 72 l 473 72 l 473 0 l 77 0 "},"ذ":{"x_min":67.828125,"x_max":798,"ha":866,"o":"m 529 849 q 536 819 536 836 q 505 764 536 782 q 474 757 492 757 q 443 765 457 757 q 420 788 429 773 q 412 819 412 803 q 444 874 412 855 q 473 881 457 881 q 505 872 490 881 q 529 849 521 863 m 780 552 q 798 454 798 504 q 752 282 798 370 q 641 134 712 205 q 417 -23 532 26 q 162 -73 302 -73 q 67 -68 113 -73 q 315 18 228 -19 q 528 151 443 74 q 674 369 626 242 q 685 440 685 407 q 666 502 685 481 q 613 523 647 523 q 495 483 564 523 q 430 408 460 459 q 380 316 404 362 q 318 236 349 263 q 309 235 314 235 q 285 242 297 235 q 262 255 273 249 q 250 280 254 267 q 246 305 246 293 q 274 382 246 337 q 322 453 298 417 q 459 579 383 528 q 628 641 550 641 q 711 620 673 641 q 780 552 749 599 "},"î":{"x_min":8,"x_max":441,"ha":444,"o":"m 295 72 l 413 72 l 413 0 l 51 0 l 51 72 l 170 72 l 170 648 l 51 648 l 51 721 l 295 721 l 295 72 m 167 1111 l 281 1111 l 441 856 l 362 856 l 224 1032 l 86 856 l 8 856 l 167 1111 "},"ز":{"x_min":69.03125,"x_max":752.828125,"ha":821,"o":"m 602 490 q 609 460 609 477 q 577 405 609 423 q 547 398 564 398 q 516 406 530 398 q 493 429 501 414 q 484 460 484 444 q 517 515 484 496 q 545 522 530 522 q 578 513 562 522 q 602 490 594 504 m 746 118 q 674 106 710 118 q 596 59 631 90 q 545 -47 562 9 q 528 -138 532 -90 q 524 -245 524 -186 q 487 -342 524 -288 q 398 -442 456 -388 q 295 -528 351 -487 q 216 -569 264 -551 q 118 -606 168 -587 q 106 -608 113 -608 q 79 -600 91 -608 q 69 -583 67 -592 q 128 -531 73 -561 q 183 -500 183 -501 q 352 -378 287 -439 q 436 -243 430 -304 q 444 -120 440 -185 q 465 0 448 -55 q 539 141 489 73 q 588 181 556 163 q 668 203 627 203 q 731 190 699 203 q 747 170 742 181 q 752 148 752 159 q 750 131 752 139 q 746 118 748 123 "},"−":{"x_min":147,"x_max":1016,"ha":1164,"o":"m 147 490 l 1016 490 l 1016 380 l 147 380 l 147 490 "},"ﺗ":{"x_min":0,"x_max":337.75,"ha":406,"o":"m 301 792 q 308 762 308 779 q 277 707 308 725 q 246 700 264 700 q 215 708 229 700 q 192 731 201 716 q 184 762 184 746 q 217 817 184 798 q 245 824 229 824 q 278 815 262 824 q 301 792 293 806 m 148 792 q 155 762 155 779 q 124 707 155 725 q 93 700 111 700 q 62 708 76 700 q 39 731 48 716 q 31 762 31 746 q 63 817 31 798 q 92 824 76 824 q 124 815 109 824 q 148 792 140 806 m 326 148 q 219 48 315 101 q 40 -4 124 -4 q 0 0 18 -4 l 0 99 q 31 95 14 95 q 165 129 92 95 q 242 197 237 163 q 243 215 243 209 q 223 294 243 251 q 175 371 206 330 q 121 438 157 396 q 138 477 126 465 q 168 489 149 489 q 210 475 188 489 q 250 436 231 461 q 314 324 290 383 q 337 213 337 266 q 326 148 337 178 "},"≠":{"x_min":147,"x_max":1016,"ha":1164,"o":"m 147 628 l 670 628 l 843 844 l 928 775 l 810 628 l 1016 628 l 1016 519 l 717 519 l 585 351 l 1016 351 l 1016 242 l 491 242 l 316 26 l 231 95 l 349 242 l 147 242 l 147 351 l 443 351 l 576 519 l 147 519 l 147 628 "},"¥":{"x_min":-11,"x_max":888,"ha":884,"o":"m 244 0 l 244 72 l 374 72 l 374 321 l 99 321 l 99 392 l 374 392 l 374 436 l 318 532 l 99 532 l 99 603 l 278 603 l 83 940 l -11 940 l -11 1013 l 364 1013 l 364 940 l 245 940 l 478 530 l 708 940 l 594 940 l 594 1013 l 888 1013 l 888 940 l 791 940 l 598 603 l 783 603 l 783 532 l 558 532 l 510 449 l 510 392 l 783 392 l 783 321 l 510 321 l 510 72 l 639 72 l 639 0 l 244 0 "},"ﺆ":{"x_min":67.828125,"x_max":704.671875,"ha":705,"o":"m 439 857 q 443 845 443 854 q 440 823 443 835 q 431 808 436 812 q 421 795 425 799 q 402 781 413 784 q 252 745 324 756 q 140 736 193 736 q 113 737 124 736 q 86 739 103 738 l 103 766 q 111 765 105 765 q 168 776 132 765 q 221 795 189 782 q 166 816 183 803 q 133 866 144 831 q 132 877 132 870 q 146 923 132 900 q 181 965 159 946 q 228 995 203 984 q 278 1006 254 1006 q 343 981 316 1006 q 376 941 363 962 q 388 900 388 919 q 373 867 388 879 q 344 850 358 855 q 316 845 330 845 q 261 864 288 845 q 240 884 252 871 q 250 894 246 891 q 262 901 257 901 q 269 899 265 901 q 287 878 278 884 q 304 871 296 871 q 323 881 316 871 q 327 901 330 891 q 304 932 322 921 q 264 943 286 943 q 233 927 246 943 q 219 899 220 911 q 217 879 217 888 q 229 846 217 858 q 274 829 242 834 q 303 826 288 826 q 330 829 316 826 q 361 835 345 832 q 402 846 377 838 q 439 857 427 854 m 704 0 q 671 -1 678 0 q 648 -2 664 -2 q 572 -170 629 -79 q 443 -339 522 -249 q 278 -499 358 -435 q 103 -600 186 -572 q 94 -601 97 -601 q 76 -592 83 -601 q 69 -574 69 -584 q 67 -561 67 -566 q 78 -533 67 -548 q 97 -510 91 -518 q 187 -444 139 -482 q 296 -352 242 -401 q 402 -244 359 -294 q 495 -116 452 -188 q 558 6 533 -53 q 522 4 541 4 q 331 102 411 4 q 246 298 265 185 q 272 446 246 389 q 387 548 306 520 q 502 516 455 541 q 579 447 548 491 q 626 349 607 408 q 653 231 642 299 q 668 103 662 173 q 685 101 680 102 q 691 99 689 101 q 704 98 692 98 l 704 0 m 573 108 q 560 233 573 168 q 518 366 545 313 q 478 417 499 400 q 425 437 453 437 q 355 406 392 437 q 334 310 334 356 q 359 218 334 260 q 436 142 383 176 q 510 112 475 118 q 573 108 550 110 "},"U":{"x_min":65,"x_max":1109,"ha":1171,"o":"m 195 940 l 65 940 l 65 1013 l 462 1013 l 462 940 l 332 940 l 332 416 q 395 145 332 222 q 614 69 458 69 q 833 145 770 69 q 897 416 897 222 l 897 940 l 767 940 l 767 1013 l 1109 1013 l 1109 940 l 980 940 l 980 402 q 891 75 980 171 q 589 -20 802 -20 q 285 76 376 -20 q 195 402 195 172 l 195 940 "},"٠":{"x_min":81.390625,"x_max":300.453125,"ha":362,"o":"m 265 76 q 231 54 250 62 q 191 47 212 47 q 115 77 149 47 q 81 158 81 108 q 115 239 81 207 q 191 269 147 269 q 230 262 212 269 q 265 239 249 255 q 300 158 300 207 q 265 76 300 108 "},"Ñ":{"x_min":68,"x_max":1154,"ha":1215,"o":"m 68 0 l 68 72 l 204 72 l 204 940 l 68 940 l 68 1013 l 327 1013 l 935 213 l 935 940 l 799 940 l 799 1013 l 1154 1013 l 1154 940 l 1018 940 l 1018 -20 l 935 -20 l 287 833 l 287 72 l 423 72 l 423 0 l 68 0 m 599 1162 l 566 1181 q 538 1195 552 1190 q 513 1200 525 1200 q 469 1180 487 1200 q 449 1130 451 1161 l 384 1130 q 419 1238 385 1198 q 512 1279 454 1279 q 557 1272 536 1279 q 615 1245 578 1266 l 649 1227 q 679 1213 664 1218 q 706 1209 694 1209 q 750 1227 734 1209 q 766 1279 766 1246 l 832 1279 q 795 1168 830 1207 q 696 1130 760 1130 q 602 1160 651 1130 l 599 1162 "},"F":{"x_min":77,"x_max":906,"ha":964,"o":"m 77 0 l 77 72 l 206 72 l 206 940 l 77 940 l 77 1013 l 906 1013 l 906 788 l 823 788 l 823 930 l 344 930 l 344 590 l 690 590 l 690 717 l 773 717 l 773 380 l 690 380 l 690 507 l 344 507 l 344 72 l 506 72 l 506 0 l 77 0 "},"ﺢ":{"x_min":67.828125,"x_max":1064.8125,"ha":1065,"o":"m 1063 0 q 961 30 1011 0 q 878 100 918 56 q 822 177 851 132 q 639 76 725 130 q 459 -57 537 12 q 296 -230 372 -133 q 171 -420 224 -322 q 178 -466 171 -445 q 201 -501 185 -488 q 299 -519 244 -519 q 480 -481 381 -519 q 656 -390 567 -447 q 795 -285 736 -339 q 811 -281 804 -282 q 826 -280 819 -280 q 850 -286 841 -280 q 864 -304 860 -291 q 865 -312 865 -306 q 860 -334 865 -321 q 855 -346 859 -338 q 548 -547 716 -480 q 417 -589 483 -572 q 263 -612 329 -612 q 174 -599 213 -612 q 110 -557 135 -586 q 78 -513 88 -540 q 67 -455 67 -486 q 71 -415 67 -435 q 159 -258 108 -336 q 288 -89 221 -163 q 394 7 336 -37 q 524 94 453 52 q 439 90 481 90 q 323 97 377 90 q 232 113 268 104 q 115 177 162 126 q 69 289 69 229 q 79 341 69 317 q 110 386 89 365 q 353 516 216 473 q 648 559 490 559 q 793 556 748 559 q 940 528 880 549 q 1045 455 1013 503 q 1064 408 1064 434 q 1014 313 1064 366 q 911 230 975 273 q 980 138 943 172 q 1063 98 1022 98 l 1063 0 m 940 407 q 806 460 903 449 q 652 469 729 464 q 474 448 534 458 q 309 401 376 431 q 185 305 230 365 q 179 282 179 293 q 216 223 179 254 q 282 179 235 207 q 307 170 293 173 q 333 167 321 167 q 432 203 368 167 q 531 240 495 240 q 542 240 537 240 q 558 237 547 240 q 572 224 569 232 q 576 202 576 215 q 575 188 576 195 q 574 173 575 180 q 576 161 574 167 q 715 226 602 176 q 863 302 815 269 q 940 407 934 352 "},"،":{"x_min":107.15625,"x_max":290.28125,"ha":386,"o":"m 290 -2 q 269 -51 290 -31 q 219 -72 248 -72 q 139 -25 170 -72 q 107 90 107 20 q 137 214 107 157 q 225 316 166 271 l 241 293 q 172 201 191 240 q 152 115 152 162 q 153 97 152 103 q 159 75 153 91 q 170 53 164 59 l 192 63 q 221 69 206 69 q 270 48 250 69 q 290 -2 290 26 "},"ﻌ":{"x_min":0,"x_max":680.25,"ha":680,"o":"m 680 -1 q 526 22 601 -1 q 376 119 421 53 q 222 37 341 80 q 33 -6 103 -6 q 0 0 12 -6 l 0 98 q 199 127 126 98 q 308 190 214 133 q 244 243 279 220 q 179 282 217 262 q 156 286 168 286 q 120 276 141 286 q 62 253 74 253 q 47 255 54 253 q 33 263 41 257 q 25 290 25 273 q 33 315 25 305 q 91 363 54 343 q 213 413 104 370 q 364 447 302 436 q 519 461 447 461 q 598 457 558 461 q 635 444 617 457 q 659 413 653 431 q 663 385 663 401 q 657 345 663 364 q 640 308 651 326 q 553 233 595 262 q 449 172 512 203 q 541 116 486 134 q 680 98 597 98 l 680 -1 m 552 392 q 544 392 548 392 q 539 392 540 392 q 517 390 528 392 q 498 385 507 387 q 382 364 419 373 q 270 328 326 350 q 314 297 282 324 q 381 236 357 260 q 448 267 413 249 q 533 322 501 296 q 550 346 544 333 q 556 372 556 360 q 552 392 556 383 "},"*":{"x_min":22,"x_max":673,"ha":695,"o":"m 673 839 l 407 715 l 673 590 l 621 510 l 385 657 l 393 399 l 301 399 l 310 657 l 73 510 l 22 590 l 287 714 l 22 839 l 73 920 l 310 772 l 301 1031 l 393 1031 l 385 772 l 621 920 l 673 839 "},"†":{"x_min":39,"x_max":656,"ha":695,"o":"m 286 1013 l 409 1013 l 385 713 l 656 732 l 656 619 l 385 639 l 409 -134 l 286 -134 l 310 639 l 39 619 l 39 732 l 310 713 l 286 1013 "},"ﻤ":{"x_min":0,"x_max":876.265625,"ha":876,"o":"m 876 0 q 766 34 815 0 q 672 162 706 77 q 612 58 651 103 q 507 4 563 4 q 495 5 499 4 q 419 76 447 0 q 397 214 397 137 q 401 260 397 244 q 311 163 372 219 q 165 53 239 95 q 0 0 73 0 l 0 98 q 180 167 82 98 q 347 318 252 217 q 488 468 417 392 q 585 547 550 529 q 657 565 621 565 q 696 560 677 565 q 723 487 715 524 q 731 408 731 451 q 726 335 731 376 q 723 292 723 314 q 773 145 723 200 q 876 97 817 97 l 876 0 m 637 298 q 651 358 651 356 q 653 394 653 375 q 650 432 653 413 q 637 472 646 451 q 547 393 585 435 q 495 318 514 356 q 476 221 476 280 q 488 139 476 177 q 522 88 500 101 q 594 180 559 113 q 637 298 623 238 "},"∕":{"x_min":-254,"x_max":487,"ha":232,"o":"m 385 1031 l 487 1031 l -152 -20 l -254 -20 l 385 1031 "},"°":{"x_min":132,"x_max":562,"ha":695,"o":"m 347 937 q 260 901 295 937 q 225 813 225 865 q 259 727 225 762 q 347 693 294 693 q 433 727 398 693 q 469 813 469 762 q 433 900 469 864 q 347 937 397 937 m 347 1031 q 430 1014 390 1031 q 499 966 470 997 q 546 897 530 935 q 562 813 562 858 q 499 662 562 724 q 345 600 436 600 q 193 661 254 600 q 132 813 132 722 q 194 967 132 904 q 347 1031 256 1031 "},"ﺤ":{"x_min":0,"x_max":1035.640625,"ha":1034,"o":"m 1034 0 q 931 30 982 0 q 849 100 889 56 q 793 177 822 132 q 531 75 682 118 q 257 18 398 37 q 0 0 115 0 l 0 98 q 51 97 29 98 q 94 96 73 96 q 145 98 128 96 q 198 108 163 100 q 84 172 128 120 q 40 285 40 223 q 49 339 40 315 q 81 386 59 364 q 324 516 187 473 q 619 559 461 559 q 764 556 719 559 q 910 528 851 549 q 1016 455 984 503 q 1035 408 1035 434 q 985 313 1035 366 q 882 230 946 273 q 950 138 914 172 q 1034 98 993 98 l 1034 0 m 902 406 q 733 462 859 453 q 623 469 678 465 q 445 447 505 457 q 280 400 347 430 q 155 304 201 365 q 149 282 149 293 q 187 222 149 253 q 252 178 206 206 q 278 170 264 173 q 303 166 292 166 q 402 203 339 166 q 502 239 465 239 q 513 239 508 239 q 529 236 518 239 q 543 223 539 232 q 547 202 547 215 q 546 187 547 194 q 545 173 545 179 q 547 160 545 166 q 683 225 571 175 q 827 301 781 269 q 902 406 895 350 "},"å":{"x_min":69,"x_max":788,"ha":828,"o":"m 552 226 l 552 378 l 391 378 q 253 338 298 378 q 208 215 208 298 q 254 96 208 140 q 378 53 300 53 q 504 100 456 53 q 552 226 552 148 m 677 449 l 677 72 l 788 72 l 788 0 l 552 0 l 552 78 q 456 3 510 27 q 329 -20 402 -20 q 139 43 209 -20 q 69 215 69 107 q 149 389 69 327 q 377 451 230 451 l 552 451 l 552 500 q 502 628 552 583 q 362 674 452 674 q 243 639 287 674 q 189 539 199 605 l 125 539 l 125 685 q 251 727 190 713 q 370 741 312 741 q 598 666 520 741 q 677 449 677 591 m 572 1033 q 518 901 572 955 q 386 847 464 847 q 253 901 307 847 q 200 1033 200 955 q 253 1165 200 1111 q 386 1219 307 1219 q 518 1165 464 1219 q 572 1033 572 1111 m 489 1033 q 459 1106 489 1076 q 386 1136 429 1136 q 312 1106 341 1136 q 283 1033 283 1076 q 312 959 283 989 q 386 930 341 930 q 459 959 429 930 q 489 1033 489 989 "},"ﺂ":{"x_min":67.828125,"x_max":497.140625,"ha":497,"o":"m 468 1135 l 434 1039 q 399 1038 413 1039 q 265 978 316 1028 q 220 949 244 958 q 170 940 196 940 q 98 956 136 940 q 67 972 86 961 l 95 1052 q 126 1044 114 1047 q 192 1035 165 1035 q 227 1039 212 1035 q 252 1052 242 1043 q 366 1122 302 1100 q 451 1136 408 1136 q 461 1136 457 1136 q 468 1135 465 1136 m 497 0 q 379 48 440 0 q 294 148 322 93 q 189 381 230 242 q 134 629 160 477 q 91 849 104 800 q 111 882 96 870 q 143 894 126 894 q 171 883 159 894 q 187 848 183 871 q 216 679 202 763 q 251 497 233 574 q 299 330 273 400 q 380 173 333 234 q 497 99 437 99 l 497 0 "},"0":{"x_min":92,"x_max":792,"ha":884,"o":"m 442 47 q 597 161 545 47 q 649 505 649 275 q 597 849 649 735 q 442 964 545 964 q 286 849 338 964 q 235 505 235 735 q 286 161 235 275 q 442 47 338 47 m 442 -20 q 184 118 277 -20 q 92 505 92 256 q 184 892 92 754 q 442 1031 277 1031 q 699 892 607 1031 q 792 505 792 754 q 699 118 792 256 q 442 -20 607 -20 "},"ﺩ":{"x_min":67.59375,"x_max":772,"ha":840,"o":"m 754 552 q 772 454 772 504 q 726 283 772 370 q 615 135 686 205 q 403 -19 507 27 q 167 -66 300 -66 q 67 -61 123 -66 q 308 23 222 -14 q 509 153 431 78 q 648 369 600 240 q 659 440 659 407 q 640 502 659 481 q 587 523 621 523 q 469 483 538 523 q 403 408 434 459 q 354 316 378 362 q 292 236 323 263 q 283 235 288 235 q 259 242 271 235 q 236 255 247 249 q 224 280 228 267 q 220 305 220 293 q 248 382 220 337 q 296 453 272 417 q 433 579 357 528 q 602 641 524 641 q 685 620 647 641 q 754 552 723 599 "},"”":{"x_min":99,"x_max":599,"ha":710,"o":"m 99 724 q 175 825 151 766 q 199 971 199 883 l 199 1013 l 331 1013 q 287 813 330 895 q 151 670 244 731 l 99 724 m 369 724 q 443 824 420 766 q 467 970 467 882 l 467 1013 l 599 1013 q 555 813 598 894 q 421 670 513 731 l 369 724 "},"ﻛ":{"x_min":0,"x_max":996.3125,"ha":1064,"o":"m 990 373 q 996 340 996 356 q 965 256 996 301 q 908 189 947 229 q 765 95 859 136 q 562 33 679 58 q 359 2 468 13 q 158 -9 250 -9 q 0 0 73 -9 l 0 100 q 187 87 77 87 q 362 95 273 87 q 535 122 452 103 q 729 184 641 144 q 868 275 817 225 q 888 306 882 295 q 895 332 893 317 q 842 347 874 342 q 774 352 811 352 q 633 341 719 352 q 460 320 547 331 q 317 310 374 310 q 254 313 283 310 q 203 325 225 316 q 93 383 128 353 q 59 449 59 414 q 71 494 59 471 q 108 542 84 517 q 325 656 165 601 q 617 757 471 706 q 868 922 785 827 q 897 950 886 941 q 951 979 931 979 q 969 969 963 979 q 976 942 976 960 q 973 915 976 930 q 969 902 972 910 q 685 696 897 789 q 334 568 661 686 q 162 460 162 506 q 183 420 162 441 q 233 398 199 405 q 314 391 267 391 q 474 402 377 391 q 673 426 572 414 q 832 439 774 439 q 940 425 904 439 q 990 373 984 409 "},"ﺛ":{"x_min":0,"x_max":337.75,"ha":406,"o":"m 238 897 q 244 867 244 884 q 213 812 244 830 q 183 805 200 805 q 151 813 166 805 q 129 836 137 821 q 120 867 120 851 q 153 922 120 903 q 181 928 166 928 q 214 919 198 928 q 238 897 229 911 m 315 772 q 322 742 322 758 q 290 687 322 705 q 260 680 278 680 q 229 688 243 680 q 206 711 215 696 q 198 742 198 726 q 230 796 198 778 q 259 803 243 803 q 291 795 276 803 q 315 772 307 786 m 162 772 q 168 742 168 758 q 137 687 168 705 q 107 680 124 680 q 75 688 90 680 q 53 711 61 696 q 44 742 44 726 q 77 796 44 778 q 105 803 90 803 q 138 795 122 803 q 162 772 153 786 m 326 148 q 219 48 315 101 q 40 -4 124 -4 q 0 0 18 -4 l 0 99 q 31 95 14 95 q 165 129 92 95 q 242 197 237 163 q 243 215 243 209 q 223 294 243 251 q 175 371 206 330 q 121 438 157 396 q 138 477 126 465 q 168 489 149 489 q 210 475 188 489 q 250 436 231 461 q 314 324 290 383 q 337 212 337 266 q 326 148 337 178 "},"ö":{"x_min":69,"x_max":766,"ha":836,"o":"m 417 47 q 568 126 517 47 q 620 360 620 205 q 568 594 620 515 q 417 674 517 674 q 266 594 317 674 q 215 360 215 515 q 266 126 215 205 q 417 47 317 47 m 417 -20 q 164 84 260 -20 q 69 360 69 188 q 164 637 69 533 q 417 741 259 741 q 670 637 575 741 q 766 360 766 533 q 670 84 766 188 q 417 -20 575 -20 m 285 1064 q 341 1040 318 1064 q 365 984 365 1017 q 342 927 365 949 q 285 905 320 905 q 229 927 251 905 q 207 984 207 949 q 230 1040 207 1017 q 285 1064 253 1064 m 550 1064 q 605 1040 582 1064 q 629 984 629 1017 q 606 927 629 949 q 550 905 584 905 q 493 927 515 905 q 471 984 471 949 q 494 1040 471 1017 q 550 1064 517 1064 "},"ﺏ":{"x_min":67.828125,"x_max":1311,"ha":1379,"o":"m 1308 233 q 1311 203 1311 217 q 1286 115 1311 162 q 1130 -24 1252 47 q 935 -114 1032 -82 q 680 -171 843 -142 q 430 -201 518 -201 q 288 -176 364 -201 q 144 -101 200 -148 q 67 27 76 -45 q 187 226 67 147 q 446 322 283 290 q 697 347 572 347 q 719 304 719 323 q 704 276 719 289 q 668 254 692 266 q 514 249 575 254 q 358 219 424 240 q 217 145 278 193 q 181 98 193 114 q 157 47 160 69 q 200 -9 164 19 q 265 -51 226 -30 q 366 -77 311 -69 q 483 -86 421 -86 q 786 -45 622 -86 q 1050 42 925 -12 q 1155 104 1123 80 q 1224 201 1224 154 q 1216 231 1224 217 q 1176 272 1196 251 q 1150 328 1150 302 q 1154 347 1150 336 q 1205 373 1180 373 q 1222 369 1214 373 q 1239 361 1231 366 q 1284 308 1266 342 q 1308 233 1303 275 m 767 -346 q 774 -376 774 -359 q 743 -431 774 -413 q 712 -439 730 -439 q 681 -430 695 -439 q 658 -407 667 -422 q 650 -376 650 -392 q 682 -321 650 -340 q 711 -315 695 -315 q 744 -323 728 -315 q 767 -346 759 -331 "},"Õ":{"x_min":78,"x_max":1061,"ha":1139,"o":"m 569 53 q 820 167 735 53 q 905 505 905 281 q 820 843 905 729 q 569 958 735 958 q 317 843 402 958 q 233 505 233 729 q 317 167 233 281 q 569 53 402 53 m 569 -20 q 380 13 466 -20 q 227 113 293 47 q 114 286 151 189 q 78 505 78 382 q 114 724 78 627 q 227 897 151 821 q 379 997 294 963 q 569 1031 465 1031 q 925 886 789 1031 q 1061 505 1061 741 q 1023 286 1061 383 q 910 113 986 188 q 758 13 844 47 q 569 -20 673 -20 m 560 1162 l 527 1181 q 499 1195 513 1190 q 474 1200 486 1200 q 430 1180 448 1200 q 410 1130 412 1161 l 345 1130 q 380 1238 346 1198 q 473 1279 415 1279 q 518 1272 497 1279 q 576 1245 539 1266 l 610 1227 q 640 1213 625 1218 q 667 1209 655 1209 q 711 1227 695 1209 q 727 1279 727 1246 l 793 1279 q 756 1168 791 1207 q 657 1130 721 1130 q 563 1160 612 1130 l 560 1162 "},"ć":{"x_min":69,"x_max":714,"ha":778,"o":"m 714 216 q 612 40 687 100 q 417 -20 536 -20 q 164 84 260 -20 q 69 360 69 188 q 164 637 69 533 q 417 741 260 741 q 553 725 485 741 q 690 677 621 709 l 690 493 l 617 493 q 555 630 602 587 q 418 674 507 674 q 266 595 317 674 q 215 360 215 517 q 266 125 215 204 q 419 47 317 47 q 548 89 500 47 q 614 216 596 131 l 714 216 m 506 1111 l 641 1111 l 410 856 l 331 856 l 506 1111 "},"þ":{"x_min":40,"x_max":819,"ha":889,"o":"m 285 396 l 285 324 q 334 126 285 194 q 479 58 384 58 q 623 134 574 58 q 673 360 673 211 q 623 586 673 510 q 479 663 574 663 q 334 594 384 663 q 285 396 285 525 m 160 983 l 40 983 l 40 1055 l 285 1055 l 285 608 q 378 708 321 676 q 518 741 434 741 q 734 635 650 741 q 819 360 819 530 q 734 85 819 191 q 518 -20 650 -20 q 378 12 434 -20 q 285 112 321 44 l 285 -216 l 403 -216 l 403 -289 l 40 -289 l 40 -216 l 160 -216 l 160 983 "},"]":{"x_min":107.15625,"x_max":423,"ha":542,"o":"m 423 1055 l 423 -183 l 107 -183 l 107 -111 l 293 -111 l 293 983 l 107 983 l 107 1055 l 423 1055 "},"ﻄ":{"x_min":0,"x_max":930.515625,"ha":931,"o":"m 930 0 q 795 30 852 0 q 703 126 739 61 q 557 48 640 75 q 397 16 489 25 q 229 9 326 9 q 204 -82 225 0 q 183 -155 196 -118 q 152 -128 175 -159 q 135 -100 141 -112 q 127 -74 130 -87 q 124 -52 124 -61 q 126 -31 124 -43 q 130 8 130 -4 q 86 -1 111 2 q 36 -5 60 -5 q 0 0 14 -5 l 0 99 q 29 88 11 92 q 65 84 47 84 q 145 101 114 84 q 166 246 160 203 q 197 380 183 345 q 137 612 168 484 q 85 838 118 692 q 30 1073 52 984 q 44 1106 34 1095 q 68 1117 54 1117 q 101 1100 85 1117 q 124 1058 118 1084 q 183 832 153 955 q 273 476 259 528 q 401 631 331 569 q 573 733 479 701 q 609 745 590 741 q 646 749 628 749 q 754 721 698 749 q 844 657 804 697 q 888 574 873 621 q 902 474 902 527 q 892 392 902 432 q 863 321 882 352 q 818 250 845 289 q 768 185 788 206 q 841 113 793 136 q 930 94 881 94 l 930 0 m 801 429 q 803 465 801 440 q 804 504 804 491 q 798 556 804 536 q 773 597 791 581 q 720 631 749 620 q 660 641 691 641 q 519 596 594 641 q 401 499 455 558 q 311 386 356 442 q 343 299 330 337 q 360 218 360 244 q 348 196 360 196 q 316 215 337 196 q 257 278 294 234 q 246 211 249 246 q 244 133 244 177 l 244 113 q 315 118 264 113 q 376 122 366 122 q 554 174 474 140 q 710 272 649 214 q 801 429 780 340 "},"8":{"x_min":93,"x_max":790,"ha":884,"o":"m 647 276 q 593 444 647 384 q 441 505 539 505 q 289 444 343 505 q 236 276 236 384 q 289 107 236 167 q 441 47 343 47 q 593 107 539 47 q 647 276 647 167 m 619 768 q 572 912 619 860 q 441 964 525 964 q 311 912 358 964 q 264 768 264 860 q 311 623 264 675 q 441 572 358 572 q 572 623 525 572 q 619 768 619 675 m 545 538 q 725 453 661 523 q 790 276 790 384 q 699 56 790 133 q 441 -20 609 -20 q 183 56 274 -20 q 93 276 93 133 q 157 453 93 384 q 337 538 221 523 q 180 616 235 557 q 126 768 126 675 q 210 960 126 890 q 441 1031 294 1031 q 672 960 588 1031 q 757 768 757 890 q 702 616 757 675 q 545 538 647 557 "},"ﻱ":{"x_min":67.828125,"x_max":1416.125,"ha":1484,"o":"m 1407 661 q 1416 605 1416 635 q 1370 465 1416 538 q 1270 346 1334 406 q 1240 323 1257 329 q 1203 317 1224 317 q 1162 322 1184 317 q 1152 350 1152 336 q 1195 407 1152 373 q 1250 465 1242 446 q 1282 519 1270 487 q 1294 582 1294 551 q 1291 610 1294 598 q 1247 614 1270 614 q 1000 533 1136 614 q 823 365 864 453 q 817 341 817 352 q 826 308 817 326 q 843 277 830 297 q 906 242 873 253 q 968 233 934 233 q 1053 241 987 233 q 1107 245 1087 245 q 1164 239 1138 245 q 1218 217 1190 233 q 1237 187 1231 202 q 1243 154 1243 172 q 1230 94 1243 128 q 1203 36 1226 84 q 1083 -82 1154 -33 q 937 -155 1025 -121 q 774 -210 892 -172 q 650 -236 717 -226 q 519 -247 583 -247 q 329 -222 414 -247 q 170 -138 234 -195 q 94 -39 121 -96 q 67 81 67 17 q 68 96 67 89 q 71 125 68 104 q 127 247 85 194 q 228 328 167 297 q 348 359 290 359 q 542 271 446 359 q 582 245 546 271 q 656 180 628 213 q 697 93 697 133 q 697 86 697 89 q 694 73 695 77 q 684 60 691 64 q 670 56 677 56 q 655 58 661 56 q 638 66 649 60 q 554 143 615 83 q 459 224 497 198 q 351 263 401 263 q 307 256 330 263 q 262 236 284 250 q 196 172 217 202 q 167 87 167 133 q 174 40 167 65 q 320 -107 221 -59 q 532 -151 408 -151 q 859 -81 691 -151 q 1114 81 1021 -15 q 1123 98 1119 91 q 1129 119 1129 110 q 1123 133 1129 127 q 1087 144 1104 141 q 1053 146 1070 146 q 1015 144 1038 146 q 950 138 965 138 q 930 138 941 138 q 910 141 920 139 q 779 193 832 155 q 710 309 710 241 q 775 468 710 389 q 923 594 828 533 q 1086 678 997 641 q 1178 709 1152 701 q 1276 725 1233 725 q 1350 710 1317 725 q 1407 661 1383 695 m 845 -405 q 852 -435 852 -418 q 821 -490 852 -472 q 790 -497 808 -497 q 759 -489 773 -497 q 736 -465 745 -481 q 730 -441 730 -454 q 741 -407 730 -424 q 770 -380 752 -390 q 796 -373 783 -373 q 824 -381 811 -373 q 845 -405 836 -389 m 689 -405 q 696 -435 696 -418 q 665 -490 696 -472 q 634 -497 652 -497 q 603 -489 617 -497 q 580 -465 589 -481 q 574 -441 574 -454 q 585 -407 574 -424 q 614 -380 596 -390 q 640 -373 627 -373 q 668 -381 655 -373 q 689 -405 680 -389 "},"ﺅ":{"x_min":67.828125,"x_max":663.984375,"ha":732,"o":"m 439 857 q 443 845 443 854 q 440 823 443 835 q 431 808 436 812 q 421 795 425 799 q 402 781 413 784 q 252 745 324 756 q 140 736 193 736 q 113 737 124 736 q 86 739 103 738 l 103 766 q 111 765 105 765 q 168 776 132 765 q 221 795 189 782 q 166 816 183 803 q 133 866 144 831 q 132 877 132 870 q 146 923 132 900 q 181 965 159 946 q 228 995 203 984 q 278 1006 254 1006 q 343 981 316 1006 q 376 941 363 962 q 388 900 388 919 q 373 867 388 879 q 344 850 358 855 q 316 845 330 845 q 261 864 288 845 q 240 884 252 871 q 250 894 246 891 q 262 901 257 901 q 269 899 265 901 q 287 878 278 884 q 304 871 296 871 q 323 881 316 871 q 327 901 330 891 q 304 932 322 921 q 264 943 286 943 q 233 927 246 943 q 219 899 220 911 q 217 879 217 888 q 229 846 217 858 q 274 829 242 834 q 303 826 288 826 q 330 829 316 826 q 361 835 345 832 q 402 846 377 838 q 439 857 427 854 m 648 -2 q 601 -131 632 -71 q 531 -236 575 -181 q 443 -339 511 -261 q 278 -499 358 -435 q 103 -600 186 -572 q 94 -601 97 -601 q 76 -592 83 -601 q 69 -574 69 -584 q 67 -561 67 -566 q 78 -533 67 -548 q 97 -510 91 -518 q 187 -444 139 -482 q 296 -352 242 -401 q 402 -244 359 -294 q 495 -116 452 -188 q 558 6 533 -53 q 522 4 541 4 q 331 102 411 4 q 246 298 265 185 q 272 446 246 389 q 387 548 306 520 q 502 516 455 541 q 579 447 548 491 q 640 312 617 394 q 663 139 663 229 q 648 -2 663 65 m 573 108 q 560 233 573 168 q 518 366 545 313 q 478 417 499 400 q 425 437 453 437 q 355 406 392 437 q 334 310 334 356 q 359 218 334 260 q 436 142 383 176 q 510 112 475 118 q 573 108 550 110 "},"ﻸ":{"x_min":67.609375,"x_max":748.578125,"ha":748,"o":"m 509 942 q 513 930 513 939 q 510 908 513 920 q 501 893 506 897 q 491 880 495 884 q 472 866 482 869 q 322 830 394 841 q 210 821 263 821 q 183 822 193 821 q 156 824 173 823 l 172 851 q 181 850 175 850 q 238 861 202 850 q 291 880 259 867 q 236 901 252 888 q 203 951 214 916 q 202 962 202 955 q 216 1008 202 985 q 251 1050 229 1031 q 298 1080 273 1069 q 348 1091 324 1091 q 413 1066 386 1091 q 445 1026 433 1047 q 458 985 458 1004 q 443 952 458 964 q 414 935 427 940 q 385 930 400 930 q 331 949 358 930 q 309 969 322 956 q 320 979 316 976 q 332 986 326 986 q 339 984 335 986 q 357 963 347 969 q 374 956 366 956 q 393 966 385 956 q 397 986 400 976 q 380 1012 392 1004 q 351 1021 368 1021 q 343 1020 345 1020 q 306 1005 322 1017 q 288 983 290 994 q 287 964 287 973 q 299 931 287 943 q 343 914 311 919 q 373 911 358 911 q 400 914 385 911 q 431 920 415 917 q 472 931 447 923 q 509 942 497 939 m 748 0 q 686 13 717 0 q 624 53 655 28 l 620 35 q 595 -26 614 6 q 556 -78 579 -52 q 574 -137 567 -105 q 581 -202 581 -169 q 575 -256 581 -231 q 556 -301 569 -281 q 474 -349 524 -334 q 377 -362 433 -362 q 312 -358 347 -362 q 229 -336 256 -344 q 161 -289 180 -320 q 159 -279 159 -283 q 172 -258 159 -267 q 195 -245 178 -253 q 204 -245 200 -245 q 214 -245 209 -245 q 346 -195 283 -245 q 440 -84 394 -156 q 385 23 418 -38 q 327 132 356 77 q 271 243 294 195 q 190 413 221 343 q 119 588 146 512 q 67 772 86 681 q 92 791 71 787 q 125 799 122 797 q 159 761 152 799 q 168 728 163 736 q 270 481 212 612 q 383 243 318 372 q 505 7 439 131 q 532 100 524 51 q 541 198 541 150 q 528 337 541 261 q 503 475 526 352 q 482 614 486 565 q 475 653 477 635 q 473 692 473 672 q 488 710 473 703 q 524 717 504 717 q 540 715 532 717 l 558 687 q 586 544 571 616 q 611 407 605 445 q 630 264 622 338 q 631 230 630 246 q 636 172 636 176 q 689 117 661 137 q 748 98 716 98 l 748 0 m 499 -248 l 499 -239 q 499 -215 499 -227 q 491 -180 497 -194 q 465 -200 479 -190 q 419 -233 442 -216 q 358 -280 388 -256 q 434 -273 400 -280 q 499 -248 469 -266 "},"ﺶ":{"x_min":68,"x_max":1318.5625,"ha":1318,"o":"m 850 876 q 857 846 857 863 q 826 791 857 809 q 795 784 813 784 q 764 792 778 784 q 741 815 750 800 q 733 846 733 830 q 765 901 733 882 q 794 908 778 908 q 826 899 811 908 q 850 876 842 890 m 927 752 q 934 722 934 738 q 903 667 934 685 q 872 659 890 659 q 841 668 855 659 q 818 691 827 676 q 810 722 810 706 q 843 776 810 758 q 871 783 855 783 q 904 774 888 783 q 927 752 919 766 m 774 752 q 781 722 781 738 q 750 667 781 685 q 719 659 737 659 q 688 668 702 659 q 665 691 674 676 q 657 722 657 706 q 689 776 657 758 q 718 783 702 783 q 750 774 735 783 q 774 752 766 766 m 1318 0 q 1201 47 1261 0 q 1124 134 1153 86 q 1086 42 1109 73 q 1003 0 1055 0 q 917 30 946 0 q 867 76 881 71 q 826 20 843 37 q 784 0 805 0 q 769 0 779 0 q 724 7 743 0 q 679 44 699 18 q 651 -61 664 -22 q 603 -161 632 -119 q 516 -239 567 -211 q 452 -264 486 -256 q 379 -273 417 -273 q 306 -264 342 -273 q 238 -241 270 -256 q 104 -81 146 -182 q 68 128 68 7 q 76 254 68 188 q 100 386 85 320 q 120 455 110 420 q 166 500 136 494 q 198 494 182 497 q 217 470 213 488 q 189 339 214 449 q 171 203 171 259 q 194 9 171 86 q 299 -144 225 -89 q 379 -159 337 -159 q 513 -115 457 -159 q 550 -28 538 -74 q 561 66 561 17 q 548 188 561 120 q 519 313 540 227 q 490 443 497 399 q 520 467 500 459 q 554 480 552 479 q 598 421 588 463 q 621 355 611 367 q 664 199 651 231 q 760 93 702 102 q 788 140 780 111 q 797 207 797 168 q 786 319 797 249 q 778 373 778 369 q 769 407 778 382 q 761 445 761 433 q 767 467 761 458 q 787 480 773 475 q 824 489 801 489 q 845 487 835 489 q 863 480 856 485 q 901 343 882 437 q 934 210 920 248 q 1007 93 959 137 q 1032 141 1024 116 q 1039 195 1039 165 q 1025 284 1039 235 q 998 383 1012 334 q 984 466 984 433 q 1036 487 1005 487 q 1052 485 1046 487 q 1070 480 1058 484 q 1105 396 1090 439 q 1127 306 1119 353 q 1203 161 1163 211 q 1318 93 1256 93 l 1318 0 "},"R":{"x_min":77,"x_max":1079.40625,"ha":1046,"o":"m 666 503 q 747 459 713 490 q 808 372 781 428 l 955 72 l 1079 72 l 1079 0 l 840 0 l 682 322 q 599 443 637 416 q 495 471 561 471 l 344 471 l 344 72 l 487 72 l 487 0 l 77 0 l 77 72 l 206 72 l 206 940 l 77 940 l 77 1013 l 590 1013 q 818 942 738 1013 q 899 742 899 871 q 840 577 899 638 q 666 503 781 517 m 344 544 l 543 544 q 695 592 646 544 q 744 742 744 640 q 695 891 744 843 q 543 940 646 940 l 344 940 l 344 544 "},"o":{"x_min":69,"x_max":766,"ha":836,"o":"m 417 47 q 568 126 517 47 q 620 360 620 205 q 568 594 620 515 q 417 674 517 674 q 266 594 317 674 q 215 360 215 515 q 266 126 215 205 q 417 47 317 47 m 417 -20 q 164 84 260 -20 q 69 360 69 188 q 164 637 69 533 q 417 741 259 741 q 670 637 575 741 q 766 360 766 533 q 670 84 766 188 q 417 -20 575 -20 "},"5":{"x_min":118,"x_max":777,"ha":884,"o":"m 699 1013 l 699 902 l 235 902 l 235 611 q 317 647 270 635 q 422 660 364 660 q 682 569 587 660 q 777 320 777 478 q 680 69 777 159 q 411 -20 584 -20 q 267 -2 341 -20 q 118 49 194 14 l 118 246 l 195 246 q 256 98 201 149 q 411 47 311 47 q 576 117 518 47 q 634 320 634 188 q 576 522 634 452 q 411 593 519 593 q 303 571 350 593 q 221 504 257 549 l 163 504 l 163 1013 l 699 1013 "},"õ":{"x_min":69,"x_max":766,"ha":836,"o":"m 417 47 q 568 126 517 47 q 620 360 620 205 q 568 594 620 515 q 417 674 517 674 q 266 594 317 674 q 215 360 215 515 q 266 126 215 205 q 417 47 317 47 m 417 -20 q 164 84 260 -20 q 69 360 69 188 q 164 637 69 533 q 417 741 259 741 q 670 637 575 741 q 766 360 766 533 q 670 84 766 188 q 417 -20 575 -20 m 415 929 l 376 966 q 347 987 358 982 q 323 993 336 993 q 278 966 295 993 q 259 888 262 939 l 194 888 q 229 1029 195 979 q 326 1079 264 1079 q 373 1069 352 1079 q 420 1037 395 1060 l 459 1000 q 486 979 475 984 q 512 974 498 974 q 557 1001 541 974 q 577 1079 574 1028 l 642 1079 q 606 937 640 987 q 509 888 571 888 q 462 897 483 888 q 415 929 440 906 "},"ﻝ":{"x_min":67.828125,"x_max":798.953125,"ha":867,"o":"m 798 -81 q 718 -245 784 -171 q 561 -341 652 -318 q 481 -365 524 -357 q 392 -374 437 -374 q 253 -353 318 -374 q 147 -293 189 -333 q 100 -241 123 -267 q 67 -175 73 -207 q 102 -27 67 -94 q 202 89 137 40 q 280 121 221 102 q 392 142 347 142 q 432 134 417 142 q 446 108 446 126 q 413 63 446 74 q 348 45 381 54 q 231 -9 290 39 q 167 -120 167 -64 q 190 -180 167 -152 q 303 -252 232 -227 q 443 -275 368 -275 q 475 -268 452 -270 q 511 -259 499 -267 q 638 -191 571 -259 q 715 -64 699 -128 q 694 115 715 23 q 642 283 676 193 q 573 444 623 330 q 538 546 560 489 q 497 646 529 568 q 458 747 470 714 q 472 773 460 763 q 518 792 476 776 q 573 748 564 792 q 593 673 586 682 q 679 425 617 589 q 761 182 737 272 q 798 -81 798 42 "},",":{"x_min":51,"x_max":308,"ha":442,"o":"m 51 -134 q 144 -24 114 -88 q 174 128 174 38 l 174 154 l 308 154 q 253 -44 302 38 q 105 -189 204 -127 l 51 -134 "},"d":{"x_min":69,"x_max":848,"ha":889,"o":"m 729 72 l 848 72 l 848 0 l 604 0 l 604 112 q 510 12 567 44 q 370 -20 454 -20 q 153 85 237 -20 q 69 360 69 191 q 153 635 69 530 q 370 741 237 741 q 510 708 454 741 q 604 608 567 676 l 604 983 l 486 983 l 486 1055 l 729 1055 l 729 72 m 604 325 l 604 396 q 554 594 604 525 q 409 663 504 663 q 264 586 313 663 q 215 360 215 510 q 264 134 215 211 q 409 58 313 58 q 554 126 504 58 q 604 325 604 194 "},"ى":{"x_min":67.828125,"x_max":1416.125,"ha":1484,"o":"m 1407 661 q 1416 605 1416 635 q 1370 465 1416 538 q 1270 346 1334 406 q 1240 323 1257 329 q 1203 317 1224 317 q 1162 322 1184 317 q 1152 350 1152 336 q 1195 407 1152 373 q 1250 465 1242 446 q 1282 519 1270 487 q 1294 582 1294 551 q 1291 610 1294 598 q 1247 614 1270 614 q 1000 533 1136 614 q 823 365 864 453 q 817 341 817 352 q 826 308 817 326 q 843 277 830 297 q 906 242 873 253 q 968 233 934 233 q 1053 241 987 233 q 1107 245 1087 245 q 1164 239 1138 245 q 1218 217 1190 233 q 1237 187 1231 202 q 1243 154 1243 172 q 1230 94 1243 128 q 1203 36 1226 84 q 1083 -82 1154 -33 q 937 -155 1025 -121 q 774 -210 892 -172 q 650 -236 717 -226 q 519 -247 583 -247 q 329 -222 414 -247 q 170 -138 234 -195 q 94 -39 121 -96 q 67 81 67 17 q 68 96 67 89 q 71 125 68 104 q 127 247 85 194 q 228 328 167 297 q 348 359 290 359 q 542 271 446 359 q 582 245 546 271 q 656 180 628 213 q 697 93 697 133 q 697 86 697 89 q 694 73 695 77 q 684 60 691 64 q 670 56 677 56 q 655 58 661 56 q 638 66 649 60 q 554 143 615 83 q 459 224 497 198 q 351 263 401 263 q 307 256 330 263 q 262 236 284 250 q 196 172 217 202 q 167 87 167 133 q 174 40 167 65 q 320 -107 221 -59 q 532 -151 408 -151 q 859 -81 691 -151 q 1114 81 1021 -15 q 1123 98 1119 91 q 1129 119 1129 110 q 1123 133 1129 127 q 1087 144 1104 141 q 1053 146 1070 146 q 1015 144 1038 146 q 950 138 965 138 q 930 138 941 138 q 910 141 920 139 q 779 193 832 155 q 710 309 710 241 q 775 468 710 389 q 923 594 828 533 q 1086 678 997 641 q 1178 709 1152 701 q 1276 725 1233 725 q 1350 710 1317 725 q 1407 661 1383 695 "},"ﻍ":{"x_min":67.828125,"x_max":1003.765625,"ha":1072,"o":"m 417 978 q 423 949 423 965 q 392 894 423 911 q 362 886 379 886 q 330 894 345 886 q 307 918 316 902 q 301 942 301 930 q 313 976 301 959 q 341 1004 324 993 q 368 1011 354 1011 q 395 1002 383 1011 q 417 978 408 994 m 999 -191 q 1003 -204 1003 -199 q 992 -227 1003 -214 q 974 -247 983 -237 q 760 -369 875 -320 q 518 -438 644 -418 q 371 -464 444 -464 q 212 -419 276 -464 q 124 -270 141 -368 q 168 -126 124 -195 q 270 -12 202 -71 q 391 83 276 -7 q 259 128 318 101 q 143 204 188 160 q 69 322 89 255 q 67 336 67 329 q 67 348 67 344 q 108 464 67 410 q 207 550 143 511 q 333 602 265 583 q 468 622 401 622 q 537 616 503 622 q 602 599 571 610 q 673 550 651 567 q 727 490 712 522 q 747 452 740 472 q 753 409 753 432 q 748 367 753 389 q 734 322 743 346 q 653 251 706 276 q 555 229 606 229 q 541 229 548 229 q 533 230 535 230 q 487 238 505 230 q 451 264 469 245 q 411 300 425 286 q 363 372 370 344 q 392 400 368 375 q 424 417 410 417 q 446 411 435 417 q 498 339 475 361 q 560 312 526 312 q 627 331 590 312 q 654 373 647 347 q 659 422 659 391 l 659 439 q 593 508 639 481 q 499 539 552 532 q 311 504 392 539 q 181 386 218 464 q 180 374 180 380 q 179 365 179 367 q 197 299 179 330 q 277 219 218 263 q 362 182 311 196 q 460 162 394 173 q 527 157 495 157 q 609 165 562 157 q 701 179 675 177 q 921 238 811 209 q 942 220 934 232 q 950 194 950 208 q 938 167 950 178 q 887 141 919 146 q 826 132 855 136 q 648 80 776 114 q 475 23 533 50 q 320 -84 385 -16 q 272 -140 289 -117 q 230 -241 230 -194 q 248 -307 230 -272 q 322 -350 281 -336 q 410 -364 364 -364 q 564 -339 471 -364 q 656 -315 610 -327 q 760 -275 718 -292 q 862 -227 817 -251 q 954 -166 914 -198 q 980 -173 967 -170 q 999 -191 995 -178 "},"أ":{"x_min":67.828125,"x_max":424.5625,"ha":492,"o":"m 420 988 q 424 976 424 985 q 421 954 424 966 q 412 939 417 943 q 402 926 406 930 q 383 912 394 915 q 233 876 305 887 q 121 867 174 867 q 94 868 105 867 q 67 870 84 869 l 84 897 q 92 896 86 896 q 149 907 113 896 q 202 926 170 913 q 147 947 164 934 q 114 997 125 962 q 113 1008 113 1001 q 127 1054 113 1031 q 162 1096 140 1077 q 209 1126 184 1115 q 259 1137 235 1137 q 324 1112 297 1137 q 357 1072 344 1093 q 369 1031 369 1050 q 354 998 369 1010 q 325 981 339 986 q 297 976 311 976 q 242 995 269 976 q 221 1015 233 1002 q 231 1025 227 1022 q 243 1032 238 1032 q 250 1030 246 1032 q 268 1009 259 1015 q 285 1002 277 1002 q 304 1012 297 1002 q 308 1032 311 1022 q 291 1058 303 1050 q 262 1067 280 1067 q 254 1066 257 1066 q 217 1051 233 1063 q 200 1029 201 1040 q 198 1010 198 1019 q 210 977 198 989 q 255 960 223 965 q 284 957 269 957 q 311 960 297 957 q 342 966 326 963 q 383 977 358 969 q 420 988 408 985 m 389 30 q 338 -12 374 -12 q 289 21 308 -12 q 229 270 260 124 q 179 529 227 281 q 124 786 147 686 q 168 815 139 815 q 197 803 184 815 q 217 769 210 792 q 275 499 245 657 q 317 283 304 341 q 389 30 345 156 "},"\"":{"x_min":136,"x_max":503,"ha":639,"o":"m 244 1013 l 244 637 l 136 637 l 136 1013 l 244 1013 m 503 1013 l 503 637 l 395 637 l 395 1013 l 503 1013 "},"˙":{"x_min":268,"x_max":427,"ha":695,"o":"m 347 1064 q 403 1040 380 1064 q 427 984 427 1017 q 404 927 427 949 q 347 905 382 905 q 290 927 312 905 q 268 984 268 949 q 291 1040 268 1017 q 347 1064 314 1064 "},"ê":{"x_min":69,"x_max":753,"ha":822,"o":"m 753 348 l 215 348 l 215 342 q 270 121 215 196 q 432 47 325 47 q 567 90 514 47 q 641 218 619 133 l 741 218 q 630 39 711 99 q 419 -20 550 -20 q 165 84 261 -20 q 69 360 69 188 q 163 636 69 531 q 411 741 257 741 q 662 640 574 741 q 753 348 749 539 m 606 420 q 552 609 601 545 q 411 674 503 674 q 275 609 324 674 q 215 420 225 545 l 606 420 m 354 1111 l 468 1111 l 628 856 l 549 856 l 411 1032 l 273 856 l 195 856 l 354 1111 "},"„":{"x_min":61,"x_max":586,"ha":720,"o":"m 61 -134 q 154 -24 125 -88 q 184 128 184 38 l 184 154 l 318 154 q 263 -44 312 38 q 115 -189 214 -127 l 61 -134 m 329 -134 q 423 -24 393 -88 q 453 128 453 38 l 453 154 l 586 154 q 532 -44 581 38 q 383 -189 482 -127 l 329 -134 "},"Â":{"x_min":-8,"x_max":1017,"ha":1003,"o":"m 278 367 l 649 367 l 464 848 l 278 367 m -8 0 l -8 72 l 80 72 l 441 1013 l 555 1013 l 917 72 l 1017 72 l 1017 0 l 648 0 l 648 72 l 761 72 l 676 294 l 250 294 l 165 72 l 276 72 l 276 0 l -8 0 m 441 1288 l 561 1288 l 718 1109 l 639 1109 l 501 1218 l 363 1109 l 285 1109 l 441 1288 "},"٢":{"x_min":55.609375,"x_max":476.109375,"ha":536,"o":"m 472 542 q 476 512 476 523 q 419 463 476 463 l 201 463 l 283 1 q 271 -20 276 -13 q 244 -41 256 -41 q 207 -20 231 -41 q 185 1 199 -13 l 55 732 q 68 749 63 743 q 94 766 83 766 q 131 749 107 766 q 153 732 139 743 l 177 595 q 189 571 179 582 q 210 562 200 560 l 337 562 q 358 570 350 562 q 365 590 365 578 q 364 598 365 593 l 341 732 q 352 753 347 746 q 378 773 366 773 q 416 753 391 773 q 439 732 424 746 l 472 542 "},"ﻊ":{"x_min":67.828125,"x_max":800.984375,"ha":801,"o":"m 800 0 q 705 5 746 0 q 590 38 638 15 q 491 123 529 68 q 398 65 439 93 q 310 -1 347 30 q 220 -97 258 -45 q 160 -215 176 -156 q 180 -286 160 -251 q 231 -339 200 -320 q 320 -378 270 -365 q 425 -391 370 -391 q 533 -380 479 -391 q 639 -350 587 -369 q 652 -361 648 -353 q 656 -378 656 -368 q 655 -388 656 -383 q 651 -404 655 -393 q 507 -460 592 -443 q 347 -475 439 -475 q 189 -435 260 -475 q 74 -318 114 -394 q 67 -257 67 -288 q 105 -118 67 -188 q 195 2 136 -59 q 306 105 238 47 l 434 191 q 371 249 406 226 q 306 284 356 259 q 284 289 296 289 q 220 265 270 289 q 182 254 197 254 q 152 264 166 254 q 143 290 143 275 q 152 316 143 306 q 259 386 183 356 q 334 414 297 400 q 484 448 420 437 q 638 463 567 463 q 717 458 677 463 q 755 443 737 455 q 778 415 773 431 q 783 384 783 400 q 777 346 783 363 q 760 308 772 329 q 667 230 716 264 q 564 173 629 205 q 687 112 599 131 q 800 99 744 99 l 800 0 m 682 366 q 654 382 668 377 q 625 387 640 387 q 617 387 620 387 q 502 364 537 372 q 389 328 442 349 q 448 296 414 320 q 507 237 492 266 q 571 269 539 251 q 653 323 619 295 q 676 342 665 333 q 685 358 685 350 q 682 366 685 361 "},"Í":{"x_min":77,"x_max":473,"ha":549,"o":"m 344 72 l 473 72 l 473 0 l 77 0 l 77 72 l 206 72 l 206 940 l 77 940 l 77 1013 l 473 1013 l 473 940 l 344 940 l 344 72 m 319 1288 l 453 1288 l 275 1109 l 196 1109 l 319 1288 "},"´":{"x_min":267,"x_max":577,"ha":695,"o":"m 442 1111 l 577 1111 l 346 856 l 267 856 l 442 1111 "},"ْ":{"x_min":42.046875,"x_max":174.296875,"ha":192,"o":"m 174 1203 q 154 1157 174 1176 q 107 1138 134 1138 q 61 1157 80 1138 q 42 1203 42 1177 q 60 1251 42 1232 q 107 1271 78 1271 q 154 1250 134 1271 q 174 1203 174 1230 m 128 1203 q 107 1224 128 1224 q 87 1203 87 1224 q 107 1182 87 1182 q 122 1187 117 1182 q 128 1203 127 1193 "},"Ú":{"x_min":65,"x_max":1109,"ha":1171,"o":"m 195 940 l 65 940 l 65 1013 l 462 1013 l 462 940 l 332 940 l 332 416 q 395 145 332 222 q 614 69 458 69 q 833 145 770 69 q 897 416 897 222 l 897 940 l 767 940 l 767 1013 l 1109 1013 l 1109 940 l 980 940 l 980 402 q 891 75 980 171 q 589 -20 802 -20 q 285 76 376 -20 q 195 402 195 172 l 195 940 m 655 1288 l 789 1288 l 611 1109 l 532 1109 l 655 1288 "},"ﺝ":{"x_min":67.828125,"x_max":1064.8125,"ha":1133,"o":"m 1045 455 q 1064 408 1064 434 q 1013 311 1064 365 q 912 230 972 268 q 746 134 852 193 q 599 48 646 77 q 459 -57 520 -2 q 296 -230 372 -133 q 171 -420 224 -322 q 178 -466 171 -445 q 201 -501 185 -488 q 299 -519 244 -519 q 480 -481 381 -519 q 656 -390 567 -447 q 795 -285 736 -339 q 811 -281 804 -282 q 826 -280 819 -280 q 850 -286 841 -280 q 864 -304 860 -291 q 865 -312 865 -306 q 860 -334 865 -321 q 855 -346 859 -338 q 548 -547 716 -480 q 417 -589 483 -572 q 263 -612 329 -612 q 174 -599 213 -612 q 110 -557 135 -586 q 78 -513 88 -540 q 67 -455 67 -486 q 71 -415 67 -435 q 159 -258 108 -336 q 288 -89 221 -163 q 394 7 336 -37 q 524 94 453 52 q 439 90 481 90 q 323 97 377 90 q 232 113 268 104 q 115 177 162 126 q 69 289 69 229 q 79 341 69 317 q 110 386 89 365 q 353 516 216 473 q 648 559 490 559 q 793 556 748 559 q 940 528 880 549 q 1045 455 1013 503 m 606 -187 q 613 -217 613 -201 q 581 -272 613 -255 q 551 -280 569 -280 q 520 -271 534 -280 q 497 -248 505 -263 q 489 -217 489 -233 q 521 -163 489 -181 q 550 -156 534 -156 q 582 -165 567 -156 q 606 -187 598 -173 m 940 407 q 806 460 903 449 q 652 469 729 464 q 474 448 534 458 q 309 401 376 431 q 185 305 230 365 q 179 282 179 293 q 216 223 179 254 q 282 179 235 207 q 307 170 293 173 q 333 167 321 167 q 432 203 368 167 q 531 240 495 240 q 542 240 537 240 q 558 237 547 240 q 572 223 568 233 q 575 197 575 213 q 575 177 575 187 q 573 158 574 167 q 575 146 573 150 q 714 215 594 158 q 863 299 815 263 q 940 407 934 352 "},"Ý":{"x_min":-16,"x_max":929,"ha":917,"o":"m 262 0 l 262 72 l 392 72 l 392 436 l 79 940 l -16 940 l -16 1013 l 360 1013 l 360 940 l 242 940 l 495 530 l 749 940 l 635 940 l 635 1013 l 929 1013 l 929 940 l 833 940 l 529 449 l 529 72 l 659 72 l 659 0 l 262 0 m 501 1288 l 635 1288 l 457 1109 l 378 1109 l 501 1288 "},"ة":{"x_min":68,"x_max":538,"ha":606,"o":"m 433 869 q 440 840 440 856 q 408 785 440 802 q 378 777 395 777 q 346 785 361 777 q 323 809 332 793 q 317 833 317 821 q 328 867 317 850 q 357 895 340 884 q 384 902 370 902 q 411 893 399 902 q 433 869 424 885 m 277 869 q 283 840 283 856 q 252 785 283 802 q 222 777 239 777 q 191 785 205 777 q 168 809 176 793 q 162 833 162 821 q 173 867 162 850 q 201 895 184 884 q 228 902 214 902 q 255 893 243 902 q 277 869 268 885 m 391 440 q 339 458 365 458 q 268 425 304 458 q 208 345 236 396 q 174 265 187 307 q 161 187 161 223 q 175 125 161 149 q 224 92 190 101 q 235 90 228 91 q 247 90 242 90 q 327 130 289 90 q 388 213 341 146 q 423 282 410 246 q 437 350 437 318 q 426 402 437 379 q 391 440 415 424 m 161 14 q 91 73 114 33 q 68 168 68 113 q 79 254 68 209 q 113 346 91 298 q 212 488 154 435 q 347 546 276 546 q 413 538 384 546 q 463 510 442 530 q 518 434 499 476 q 538 345 538 392 q 530 285 538 315 q 429 104 503 190 q 234 -1 337 -1 q 161 14 199 -1 "},"Ω":{"x_min":85,"x_max":1068,"ha":1152,"o":"m 759 111 l 988 111 l 988 204 l 1067 204 l 1067 0 l 665 0 l 665 123 q 850 276 787 170 q 913 538 913 381 q 820 843 913 728 q 576 958 727 958 q 332 843 425 958 q 240 538 240 728 q 302 275 240 380 q 486 123 364 170 l 486 0 l 86 0 l 86 204 l 165 204 l 165 111 l 391 111 q 167 289 250 170 q 85 554 85 408 q 123 745 85 656 q 237 904 162 834 q 391 998 304 965 q 576 1031 478 1031 q 760 998 674 1031 q 914 904 847 966 q 1028 745 989 834 q 1068 554 1068 655 q 984 289 1068 409 q 759 111 901 170 "},"Ö":{"x_min":78,"x_max":1061,"ha":1139,"o":"m 569 53 q 820 167 735 53 q 905 505 905 281 q 820 843 905 729 q 569 958 735 958 q 317 843 402 958 q 233 505 233 729 q 317 167 233 281 q 569 53 402 53 m 569 -20 q 380 13 466 -20 q 227 113 293 47 q 114 286 151 189 q 78 505 78 382 q 114 724 78 627 q 227 897 151 821 q 379 997 294 963 q 569 1031 465 1031 q 925 886 789 1031 q 1061 505 1061 741 q 1023 286 1061 383 q 910 113 986 188 q 758 13 844 47 q 569 -20 673 -20 m 436 1278 q 492 1254 469 1278 q 516 1199 516 1230 q 493 1142 516 1165 q 436 1120 470 1120 q 380 1142 403 1120 q 358 1199 358 1165 q 381 1254 358 1230 q 436 1278 404 1278 m 701 1278 q 756 1254 733 1278 q 780 1199 780 1230 q 757 1142 780 1165 q 701 1120 734 1120 q 644 1142 667 1120 q 622 1199 622 1165 q 645 1254 622 1230 q 701 1278 668 1278 "},"z":{"x_min":56,"x_max":681,"ha":732,"o":"m 56 0 l 56 58 l 507 648 l 150 648 l 150 523 l 78 523 l 78 721 l 668 721 l 668 662 l 216 72 l 608 72 l 608 203 l 681 203 l 681 0 l 56 0 "},"ﺈ":{"x_min":67.828125,"x_max":473.40625,"ha":473,"o":"m 473 0 q 355 49 417 0 q 270 148 298 93 q 165 378 206 242 q 110 620 137 472 q 67 837 80 790 q 85 875 71 862 q 115 888 98 888 q 145 874 132 888 q 164 832 159 861 q 189 672 170 803 q 219 503 206 562 q 267 351 240 413 q 327 229 304 270 q 394 136 362 166 q 473 99 432 99 l 473 0 m 427 -238 q 431 -250 431 -241 q 427 -271 431 -260 q 419 -287 424 -283 q 409 -300 413 -296 q 389 -314 400 -311 q 240 -351 312 -339 q 128 -359 181 -359 q 92 -359 102 -359 q 74 -357 79 -357 l 90 -329 q 99 -330 93 -330 q 156 -319 120 -330 q 209 -300 177 -313 q 153 -279 170 -291 q 121 -228 132 -264 q 120 -217 120 -225 q 133 -172 120 -194 q 169 -130 147 -149 q 216 -100 191 -111 q 266 -89 242 -89 q 331 -114 304 -89 q 363 -154 351 -133 q 376 -195 376 -175 q 361 -228 376 -216 q 331 -245 345 -240 q 303 -249 318 -249 q 249 -230 276 -249 q 227 -211 240 -224 q 238 -201 234 -204 q 250 -194 244 -194 q 257 -196 252 -194 q 275 -217 265 -211 q 292 -224 284 -224 q 310 -214 303 -224 q 315 -194 318 -204 q 298 -168 310 -176 q 269 -159 286 -159 q 261 -160 263 -160 q 224 -174 240 -163 q 206 -197 208 -186 q 205 -215 205 -207 q 217 -249 205 -236 q 261 -266 229 -261 q 290 -268 276 -268 q 318 -265 303 -268 q 349 -260 333 -262 q 390 -249 365 -257 q 427 -238 415 -241 "},"™":{"x_min":164,"x_max":1148,"ha":1389,"o":"m 758 1013 l 876 829 l 999 1013 l 1148 1013 l 1148 968 l 1090 968 l 1090 666 l 1148 666 l 1148 621 l 954 621 l 954 666 l 1012 666 l 1012 954 l 870 743 l 841 743 l 707 954 l 707 666 l 764 666 l 764 621 l 601 621 l 601 666 l 659 666 l 659 968 l 601 968 l 601 1013 l 758 1013 m 164 1013 l 542 1013 l 542 897 l 496 897 l 496 968 l 392 968 l 392 666 l 450 666 l 450 621 l 256 621 l 256 666 l 314 666 l 314 968 l 208 968 l 208 897 l 164 897 l 164 1013 "},"ٌ":{"x_min":28.484375,"x_max":290.953125,"ha":322,"o":"m 290 1243 q 257 1174 290 1212 l 289 1150 l 254 1130 l 228 1148 q 185 1113 202 1123 q 166 1104 173 1106 q 150 1102 159 1102 q 105 1126 128 1102 q 75 1150 84 1149 q 53 1134 65 1150 q 38 1119 44 1119 q 28 1129 28 1119 q 32 1151 28 1142 q 45 1174 35 1161 q 82 1195 61 1195 q 124 1163 94 1195 q 148 1147 137 1147 q 166 1152 158 1147 q 191 1175 175 1158 q 176 1187 182 1182 q 162 1204 170 1193 q 153 1243 153 1220 q 172 1294 153 1275 q 222 1314 190 1314 q 270 1293 250 1314 q 290 1243 290 1273 m 245 1245 q 238 1262 245 1256 q 222 1270 233 1270 q 207 1264 212 1270 q 201 1245 202 1258 q 206 1227 201 1235 q 223 1209 210 1220 q 245 1245 243 1228 "},"ﻒ":{"x_min":67.828125,"x_max":1230.96875,"ha":1231,"o":"m 904 971 q 910 942 910 958 q 879 887 910 904 q 849 879 866 879 q 817 887 832 879 q 794 911 803 895 q 788 935 788 923 q 799 969 788 952 q 828 997 811 986 q 855 1004 841 1004 q 882 995 870 1004 q 904 971 895 987 m 1230 0 q 1105 40 1167 8 q 996 113 1051 67 q 889 59 948 84 q 716 0 829 33 q 610 -23 655 -15 q 517 -31 565 -31 q 449 -26 484 -31 q 377 -10 415 -21 q 205 64 274 17 q 83 192 132 114 q 67 283 67 239 q 158 460 67 385 q 358 560 231 519 q 435 567 411 565 q 492 569 459 569 q 584 560 542 569 q 665 532 626 552 q 669 510 669 519 q 665 488 669 500 q 658 466 661 477 q 615 458 642 458 q 562 463 598 458 q 514 468 526 468 q 503 468 506 468 q 438 473 468 473 q 298 445 364 473 q 183 362 232 418 q 170 316 175 340 q 166 271 166 292 q 171 227 166 246 q 191 189 177 208 q 337 103 250 130 q 513 80 414 80 q 637 88 573 80 q 769 109 701 96 q 851 138 811 121 q 926 181 906 161 q 859 319 885 238 q 834 475 834 401 q 836 513 834 495 q 874 664 836 595 q 981 742 917 742 q 1032 730 1006 742 q 1110 594 1084 680 q 1133 434 1133 521 q 1108 298 1133 365 q 1062 174 1063 176 q 1141 123 1100 142 q 1230 98 1182 104 l 1230 0 m 1025 518 q 969 630 1007 581 q 940 568 951 599 q 924 512 926 531 q 922 487 923 493 q 922 477 922 481 q 946 358 922 419 q 1005 250 967 303 q 1040 408 1040 322 q 1037 462 1040 436 q 1025 518 1033 489 "},"ﺯ":{"x_min":69.03125,"x_max":752.828125,"ha":821,"o":"m 602 490 q 609 460 609 477 q 577 405 609 423 q 547 398 564 398 q 516 406 530 398 q 493 429 501 414 q 484 460 484 444 q 517 515 484 496 q 545 522 530 522 q 578 513 562 522 q 602 490 594 504 m 746 118 q 674 106 710 118 q 596 59 631 90 q 545 -47 562 9 q 528 -138 532 -90 q 524 -245 524 -186 q 487 -342 524 -288 q 398 -442 456 -388 q 295 -528 351 -487 q 216 -569 264 -551 q 118 -606 168 -587 q 106 -608 113 -608 q 79 -600 91 -608 q 69 -583 67 -592 q 128 -531 73 -561 q 183 -500 183 -501 q 352 -378 287 -439 q 436 -243 430 -304 q 444 -120 440 -185 q 465 0 448 -55 q 539 141 489 73 q 588 181 556 163 q 668 203 627 203 q 731 190 699 203 q 747 170 742 181 q 752 148 752 159 q 750 131 752 139 q 746 118 748 123 "},"ã":{"x_min":69,"x_max":788,"ha":828,"o":"m 552 226 l 552 378 l 391 378 q 253 338 298 378 q 208 215 208 298 q 254 96 208 140 q 378 53 300 53 q 504 100 456 53 q 552 226 552 148 m 677 449 l 677 72 l 788 72 l 788 0 l 552 0 l 552 78 q 456 3 510 27 q 329 -20 402 -20 q 139 43 209 -20 q 69 215 69 107 q 149 389 69 327 q 377 451 230 451 l 552 451 l 552 500 q 502 628 552 583 q 362 674 452 674 q 243 639 287 674 q 189 539 199 605 l 125 539 l 125 685 q 251 727 190 713 q 370 741 312 741 q 598 666 520 741 q 677 449 677 591 m 383 929 l 344 966 q 315 987 326 982 q 291 993 304 993 q 246 966 263 993 q 227 888 230 939 l 162 888 q 197 1029 163 979 q 294 1079 232 1079 q 341 1069 320 1079 q 388 1037 363 1060 l 427 1000 q 454 979 443 984 q 480 974 466 974 q 525 1001 509 974 q 545 1079 542 1028 l 610 1079 q 574 937 608 987 q 477 888 539 888 q 430 897 451 888 q 383 929 408 906 "},"æ":{"x_min":69,"x_max":1236,"ha":1306,"o":"m 553 226 l 553 378 l 392 378 q 253 338 299 378 q 208 215 208 298 q 254 96 208 140 q 379 53 300 53 q 505 101 457 53 q 553 226 553 149 m 627 101 q 502 9 570 39 q 348 -20 433 -20 q 141 41 214 -20 q 69 215 69 103 q 150 389 69 327 q 377 451 231 451 l 553 451 l 553 500 q 504 628 553 582 q 368 674 455 674 q 244 640 289 674 q 189 539 199 606 l 125 539 l 125 685 q 251 727 190 713 q 371 741 312 741 q 532 711 466 741 q 635 620 597 681 q 750 710 685 680 q 894 741 815 741 q 1145 640 1058 741 q 1236 348 1233 539 l 699 348 l 699 342 q 753 121 699 196 q 915 47 808 47 q 1050 90 997 47 q 1124 218 1102 133 l 1224 218 q 1114 39 1194 99 q 903 -20 1033 -20 q 750 10 820 -20 q 627 101 679 41 m 1089 420 q 1035 609 1084 545 q 894 674 986 674 q 758 609 808 674 q 699 420 709 545 l 1089 420 "},"É":{"x_min":77,"x_max":903,"ha":1014,"o":"m 77 0 l 77 72 l 206 72 l 206 940 l 77 940 l 77 1013 l 892 1013 l 892 788 l 809 788 l 809 930 l 344 930 l 344 590 l 675 590 l 675 717 l 758 717 l 758 380 l 675 380 l 675 507 l 344 507 l 344 83 l 820 83 l 820 225 l 903 225 l 903 0 l 77 0 m 550 1288 l 684 1288 l 506 1109 l 427 1109 l 550 1288 "},"ﺒ":{"x_min":0,"x_max":476.796875,"ha":477,"o":"m 476 0 q 357 48 419 0 q 274 148 301 92 q 223 89 229 95 q 143 28 185 49 q 26 -1 88 -1 q 10 -1 18 -1 q 0 0 2 0 l 0 100 q 21 98 10 98 q 127 130 71 98 q 187 197 183 162 q 189 216 189 205 q 190 238 190 228 q 183 319 190 271 q 168 459 168 429 q 184 486 171 476 q 213 497 198 497 q 237 487 227 497 q 246 457 246 477 q 296 308 278 354 q 370 164 333 213 q 476 100 420 100 l 476 0 m 213 -177 q 220 -207 220 -190 q 189 -262 220 -244 q 158 -269 176 -269 q 127 -261 141 -269 q 104 -238 113 -253 q 96 -207 96 -223 q 128 -152 96 -171 q 157 -146 141 -146 q 189 -154 174 -146 q 213 -177 205 -162 "},"~":{"x_min":147,"x_max":1016,"ha":1164,"o":"m 1016 547 l 1016 447 q 887 359 948 387 q 763 331 826 331 q 580 375 698 331 l 573 378 q 550 387 565 381 q 386 426 451 426 q 265 401 324 426 q 147 324 207 376 l 147 427 q 275 513 214 486 q 399 541 336 541 q 582 496 464 541 l 589 493 q 610 485 597 490 q 774 446 708 446 q 896 471 837 446 q 1016 547 956 496 "},"ض":{"x_min":68,"x_max":1538,"ha":1606,"o":"m 721 707 q 728 677 728 694 q 697 622 728 640 q 666 615 684 615 q 635 623 649 615 q 612 646 621 631 q 604 677 604 661 q 636 732 604 713 q 665 739 649 739 q 697 730 682 739 q 721 707 713 721 m 1495 322 q 1444 244 1477 286 q 1359 161 1403 194 q 1122 38 1258 81 q 863 -3 993 -3 q 851 -64 855 -44 q 822 -118 845 -101 q 810 -120 818 -120 q 785 -115 797 -120 q 769 -99 773 -110 q 759 -65 762 -83 q 757 -26 757 -47 l 757 2 q 755 34 757 25 q 749 51 754 43 q 706 85 748 51 q 665 117 676 107 q 667 81 665 98 q 670 45 668 64 q 644 -59 657 -21 q 596 -160 624 -119 q 510 -237 561 -211 q 444 -263 481 -254 q 373 -272 407 -272 q 236 -240 298 -272 q 103 -79 145 -180 q 68 130 68 9 q 77 261 68 195 q 100 388 83 314 q 119 456 109 422 q 165 502 134 496 q 196 495 180 498 q 213 472 210 489 q 170 205 191 338 q 192 11 170 86 q 293 -144 221 -88 q 370 -157 329 -157 q 507 -113 449 -157 q 543 -26 532 -72 q 555 67 555 20 q 541 189 555 120 q 512 311 534 222 q 482 446 490 399 q 511 469 492 460 q 550 479 530 479 q 585 467 572 479 q 610 418 602 453 q 621 357 615 387 q 627 320 623 351 q 632 285 631 290 q 720 203 661 244 q 783 161 739 190 q 862 394 811 288 q 1000 601 920 517 q 1206 735 1091 696 q 1275 749 1237 749 q 1390 718 1329 749 q 1484 649 1441 692 q 1524 572 1511 615 q 1538 480 1538 529 q 1527 396 1538 437 q 1495 322 1516 355 m 1436 430 q 1436 470 1436 454 q 1438 500 1437 486 q 1431 560 1438 535 q 1404 601 1424 584 q 1351 634 1380 624 q 1292 645 1323 645 q 1152 599 1227 645 q 1034 501 1091 563 q 951 356 987 438 q 898 198 917 281 q 892 165 895 185 q 881 110 883 117 q 889 105 881 106 q 909 104 896 104 q 959 106 931 104 q 1010 110 988 108 q 1187 165 1105 128 q 1344 270 1284 209 q 1436 430 1414 340 "},"³":{"x_min":68,"x_max":486,"ha":557,"o":"m 85 995 q 179 1022 134 1013 q 265 1031 225 1031 q 409 994 358 1031 q 460 890 460 957 q 423 807 460 841 q 323 762 387 773 q 445 711 404 751 q 486 603 486 670 q 426 484 486 525 q 257 443 367 443 q 161 452 208 443 q 68 480 114 461 l 68 596 l 115 595 q 151 519 118 545 q 247 493 184 493 q 345 522 310 493 q 380 608 380 552 q 345 703 380 671 q 242 736 310 736 l 206 736 l 206 786 l 224 786 q 324 811 290 786 q 358 886 358 836 q 330 956 358 932 q 251 981 303 981 q 166 959 195 981 q 132 894 136 937 l 85 894 l 85 995 "},"ﺌ":{"x_min":-4.0625,"x_max":476.796875,"ha":477,"o":"m 348 735 q 352 723 352 732 q 349 702 352 713 q 340 686 345 690 q 330 673 334 677 q 311 659 322 662 q 161 623 233 634 q 49 614 103 614 q 23 615 33 614 q -4 617 12 616 l 12 644 q 21 644 14 644 q 78 654 41 644 q 130 673 99 660 q 75 694 92 681 q 42 745 53 709 q 42 755 42 748 q 55 801 42 778 q 90 843 68 824 q 138 873 112 862 q 187 884 163 884 q 252 859 225 884 q 285 819 272 840 q 297 778 297 797 q 282 745 297 757 q 253 728 267 733 q 225 724 239 724 q 170 743 198 724 q 149 762 162 749 q 159 772 155 769 q 171 779 166 779 q 178 777 174 779 q 196 756 187 762 q 213 749 205 749 q 232 759 225 749 q 236 779 239 769 q 220 805 231 797 q 190 814 208 814 q 182 813 185 813 q 145 798 161 810 q 128 776 129 787 q 126 757 126 766 q 139 724 126 736 q 183 707 151 712 q 212 705 197 705 q 240 707 225 705 q 270 713 255 710 q 311 724 286 716 q 348 735 337 732 m 476 0 q 357 48 419 0 q 274 148 301 92 q 223 89 229 95 q 143 27 185 49 q 26 -1 88 -1 q 10 -1 18 -1 q 0 0 2 0 l 0 100 q 21 98 10 98 q 127 130 71 98 q 187 197 183 162 q 189 216 189 205 q 190 239 190 228 q 183 319 190 271 q 168 460 168 430 q 184 486 171 476 q 213 497 198 497 q 237 487 227 497 q 246 457 246 477 q 296 308 278 354 q 370 164 333 213 q 476 100 420 100 l 476 0 "},"ﻣ":{"x_min":0,"x_max":731.796875,"ha":800,"o":"m 726 335 q 637 104 705 204 q 503 4 569 4 q 495 5 498 5 q 419 76 447 0 q 397 214 397 137 q 401 260 397 244 q 311 162 372 219 q 165 52 239 95 q 0 0 73 0 l 0 97 q 179 168 83 97 q 343 323 248 219 q 481 475 412 399 q 560 539 525 518 q 653 565 605 565 q 674 564 666 565 q 696 560 681 563 q 723 487 715 524 q 731 408 731 451 q 726 335 731 376 m 637 298 q 651 358 651 356 q 653 394 653 375 q 650 432 653 413 q 637 472 646 451 q 547 393 585 435 q 495 318 514 356 q 476 221 476 280 q 488 139 476 177 q 522 88 500 101 q 594 180 559 113 q 637 298 623 238 "},"¡":{"x_min":189,"x_max":369,"ha":558,"o":"m 189 941 q 214 1005 189 979 q 279 1032 240 1032 q 342 1005 316 1032 q 369 941 369 979 q 342 877 369 903 q 279 851 316 851 q 214 877 240 851 q 189 941 189 903 m 192 0 l 237 557 l 237 728 l 320 728 l 320 557 l 366 0 l 192 0 "},"ن":{"x_min":68,"x_max":1159.703125,"ha":1227,"o":"m 596 632 q 602 603 602 619 q 571 548 602 565 q 541 540 558 540 q 510 548 524 540 q 486 572 495 556 q 480 596 480 584 q 492 630 480 613 q 520 658 503 647 q 547 665 533 665 q 574 656 562 665 q 596 632 587 648 m 1157 230 q 1159 193 1159 210 q 1158 161 1159 178 q 1152 121 1156 144 q 1047 -85 1132 3 q 855 -213 974 -160 q 633 -281 759 -255 q 506 -293 569 -293 q 331 -268 416 -293 q 136 -158 200 -228 q 68 37 68 -82 q 72 99 68 66 q 223 277 117 217 q 448 332 319 332 q 595 313 522 332 q 733 262 669 295 q 710 221 728 233 q 663 208 692 208 q 592 220 634 208 q 511 243 549 232 q 442 251 482 251 q 253 196 335 251 q 160 32 160 134 q 163 -8 160 9 q 174 -50 166 -25 q 334 -165 235 -126 q 539 -203 428 -203 q 874 -110 723 -203 q 1076 145 1036 -12 q 1082 189 1082 167 q 1053 288 1082 237 q 985 373 1030 330 q 904 440 950 406 q 918 466 904 455 q 958 488 938 477 q 1093 391 1039 459 q 1157 230 1146 323 "},"ﺳ":{"x_min":0,"x_max":1040.390625,"ha":1108,"o":"m 1027 292 q 1035 241 1031 267 q 1040 194 1040 214 q 1025 122 1040 158 q 980 37 999 59 q 896 0 948 0 q 805 20 832 0 q 763 67 779 49 q 715 13 739 30 q 665 -3 691 -3 q 623 5 645 -3 q 575 30 602 13 q 513 92 542 52 q 467 178 483 133 q 302 50 419 96 q 0 0 178 0 l 0 94 q 307 157 187 94 q 425 286 410 211 q 427 302 427 292 q 411 365 427 324 q 386 436 390 420 q 406 455 394 448 q 447 472 427 463 q 503 431 491 472 q 522 345 512 388 q 562 194 550 225 q 660 94 599 102 q 710 143 694 113 q 727 224 727 173 q 705 366 727 281 q 691 405 705 376 q 677 447 677 434 q 681 464 677 457 q 698 475 686 470 q 725 484 710 484 q 741 480 733 484 q 758 472 750 477 q 799 326 777 427 q 834 185 820 224 q 900 94 859 114 q 952 142 937 102 q 963 216 963 171 q 932 342 963 259 q 902 461 902 426 q 935 480 920 480 q 946 478 942 480 q 965 472 951 477 q 1001 390 992 412 q 1027 292 1020 340 "},"[":{"x_min":119,"x_max":434.828125,"ha":542,"o":"m 119 1055 l 434 1055 l 434 983 l 249 983 l 249 -111 l 434 -111 l 434 -183 l 119 -183 l 119 1055 "},"ﻭ":{"x_min":67.828125,"x_max":663.984375,"ha":732,"o":"m 648 -2 q 601 -131 632 -71 q 531 -236 575 -181 q 443 -339 511 -262 q 278 -499 358 -435 q 103 -600 186 -572 q 94 -601 97 -601 q 76 -592 83 -601 q 69 -574 69 -584 q 67 -561 67 -566 q 78 -533 67 -548 q 97 -510 91 -518 q 187 -444 139 -482 q 296 -352 242 -401 q 402 -244 359 -294 q 495 -116 452 -188 q 558 6 533 -53 q 522 4 541 4 q 331 102 411 4 q 246 298 265 185 q 272 446 246 389 q 387 549 306 521 q 502 517 455 542 q 579 447 548 491 q 640 312 617 394 q 663 139 663 230 q 648 -2 663 65 m 573 108 q 560 233 573 168 q 518 366 545 313 q 478 417 499 400 q 425 437 453 437 q 355 406 392 437 q 334 310 334 356 q 359 218 334 260 q 436 142 383 176 q 510 112 475 118 q 573 108 550 110 "},"ﺔ":{"x_min":101.046875,"x_max":707.171875,"ha":702,"o":"m 421 971 q 428 942 428 958 q 396 887 428 904 q 366 879 383 879 q 335 887 349 879 q 312 911 320 895 q 305 935 305 923 q 317 969 305 952 q 345 997 328 986 q 372 1004 358 1004 q 399 995 387 1004 q 421 971 412 987 m 265 971 q 271 942 271 958 q 240 887 271 904 q 210 879 227 879 q 179 887 193 879 q 155 911 164 895 q 149 935 149 923 q 161 969 149 952 q 189 997 172 986 q 216 1004 202 1004 q 243 995 231 1004 q 265 971 256 987 m 707 0 q 540 92 616 0 q 451 318 464 185 q 364 239 410 262 q 263 218 322 218 q 191 224 234 218 q 124 267 147 229 q 101 363 101 305 q 113 457 101 407 q 149 556 126 507 q 248 697 190 645 q 383 756 311 756 q 449 748 420 756 q 499 720 478 740 q 573 553 573 650 q 570 525 573 540 q 565 495 568 509 q 560 383 560 433 q 591 189 560 259 q 707 99 627 111 l 707 0 m 427 651 q 375 668 401 668 q 304 635 340 668 q 244 556 272 606 q 206 473 221 513 q 188 389 188 425 q 205 333 188 355 q 260 303 222 310 q 280 301 270 301 q 362 341 323 301 q 424 423 379 358 q 459 492 446 456 q 473 560 473 529 q 462 612 473 590 q 427 651 451 634 "},"ﻕ":{"x_min":68,"x_max":860.21875,"ha":928,"o":"m 636 788 q 642 759 642 775 q 611 704 642 721 q 581 696 598 696 q 550 704 564 696 q 527 728 535 712 q 521 752 521 740 q 532 786 521 769 q 560 814 543 803 q 587 821 573 821 q 614 812 602 821 q 636 788 627 804 m 474 788 q 481 759 481 775 q 450 704 481 721 q 419 696 436 696 q 388 704 402 696 q 365 728 373 712 q 359 752 359 740 q 370 786 359 769 q 399 814 381 803 q 425 821 411 821 q 452 812 440 821 q 474 788 465 804 m 852 -166 q 776 -331 834 -261 q 628 -429 718 -402 q 515 -454 578 -454 q 431 -442 470 -454 q 361 -404 392 -430 q 133 -151 208 -316 q 68 182 68 -6 q 79 335 68 254 q 100 380 84 362 q 140 415 100 381 q 163 420 149 420 q 182 416 174 420 q 192 404 190 413 q 169 281 177 343 q 162 160 162 220 q 168 67 162 111 q 220 -111 181 -35 q 364 -292 266 -203 q 445 -335 403 -320 q 527 -350 487 -350 q 668 -302 604 -350 q 764 -177 733 -255 q 768 -139 766 -158 q 770 -101 770 -120 q 769 -63 770 -76 q 764 -34 765 -44 q 702 -72 733 -53 q 628 -96 660 -96 q 519 -22 569 -87 q 446 121 474 34 q 424 266 424 190 q 456 427 424 356 q 549 521 488 497 q 562 522 555 522 q 573 522 569 522 q 681 480 633 522 q 757 381 720 447 q 814 269 763 371 q 827 213 815 269 q 848 94 839 157 q 860 -61 860 6 q 852 -166 860 -117 m 696 161 q 656 224 694 177 q 638 260 638 246 q 644 276 638 268 q 662 292 650 284 q 676 305 669 297 q 690 318 684 313 q 646 386 686 349 q 570 425 605 425 q 542 416 555 425 q 525 384 530 406 q 510 318 516 352 q 505 255 505 284 q 509 199 505 223 q 526 144 513 174 q 572 64 542 103 q 637 0 603 25 q 658 -4 648 -4 q 695 29 682 -4 q 706 100 706 59 q 696 161 706 143 "},"؛":{"x_min":107.15625,"x_max":290.28125,"ha":386,"o":"m 290 192 q 269 143 290 163 q 219 123 248 123 q 139 169 170 123 q 107 285 107 215 q 137 409 107 352 q 225 511 166 466 l 241 488 q 172 396 191 435 q 152 310 152 357 q 153 292 152 298 q 159 270 153 286 q 170 248 164 254 l 192 258 q 221 264 206 264 q 270 243 250 264 q 290 192 290 221 m 269 -13 q 252 -55 269 -37 q 210 -73 236 -73 q 168 -56 185 -73 q 151 -13 151 -37 q 167 29 151 11 q 206 47 183 47 q 251 30 233 47 q 269 -13 269 12 "},"%":{"x_min":77,"x_max":1244,"ha":1320,"o":"m 311 968 q 218 911 251 968 q 185 754 185 855 q 219 597 185 654 q 311 541 253 541 q 402 597 369 541 q 436 754 436 654 q 402 911 436 854 q 311 968 369 968 m 1010 470 q 918 413 951 470 q 885 254 885 356 q 918 98 885 155 q 1010 42 952 42 q 1101 98 1068 42 q 1135 254 1135 155 q 1101 412 1135 355 q 1010 470 1068 470 m 1010 531 q 1180 456 1117 531 q 1244 255 1244 381 q 1180 54 1244 128 q 1010 -20 1117 -20 q 839 54 902 -20 q 776 255 776 128 q 839 456 776 382 q 1010 531 902 531 m 925 1031 l 1028 1031 l 395 -20 l 291 -20 l 925 1031 m 310 1031 q 481 956 417 1031 q 545 755 545 882 q 481 553 545 627 q 310 480 418 480 q 139 554 202 480 q 77 755 77 628 q 140 956 77 881 q 310 1031 203 1031 "},"P":{"x_min":77,"x_max":886,"ha":935,"o":"m 344 516 l 523 516 q 677 570 624 516 q 730 728 730 625 q 677 885 730 831 q 523 940 624 940 l 344 940 l 344 516 m 77 0 l 77 72 l 206 72 l 206 940 l 77 940 l 77 1013 l 556 1013 q 797 935 708 1013 q 886 728 886 858 q 797 520 886 597 q 556 443 708 443 l 344 443 l 344 72 l 501 72 l 501 0 l 77 0 "},"∏":{"x_min":35,"x_max":1068,"ha":1106,"o":"m 35 999 l 1068 999 l 1068 949 l 938 949 l 938 -217 l 1068 -217 l 1068 -267 l 664 -267 l 664 -217 l 794 -217 l 794 949 l 309 949 l 309 -217 l 439 -217 l 439 -267 l 35 -267 l 35 -217 l 165 -217 l 165 949 l 35 949 l 35 999 "},"_":{"x_min":0,"x_max":695,"ha":695,"o":"m 695 -274 l 695 -328 l 0 -328 l 0 -274 l 695 -274 "},"ع":{"x_min":67.828125,"x_max":1003.765625,"ha":1072,"o":"m 999 -191 q 1003 -204 1003 -199 q 992 -227 1003 -214 q 974 -247 983 -237 q 760 -369 875 -320 q 518 -438 644 -418 q 371 -464 444 -464 q 212 -419 276 -464 q 124 -270 141 -369 q 168 -126 124 -195 q 270 -12 202 -71 q 391 83 276 -7 q 259 128 318 101 q 143 204 188 160 q 69 322 89 255 q 67 336 67 328 q 67 347 67 343 q 108 464 67 410 q 207 550 143 511 q 333 602 265 583 q 468 622 401 622 q 537 616 503 622 q 602 599 571 610 q 673 550 651 567 q 727 490 712 522 q 747 452 740 472 q 753 409 753 432 q 748 367 753 389 q 734 322 743 346 q 653 251 706 276 q 555 229 606 229 q 541 229 548 229 q 533 230 535 230 q 487 238 505 230 q 451 263 469 245 q 411 300 425 286 q 363 372 370 344 q 392 400 368 375 q 424 417 410 417 q 446 411 435 417 q 498 339 475 361 q 560 312 526 312 q 627 331 590 312 q 654 373 647 347 q 659 422 659 391 l 659 438 q 593 508 639 481 q 499 539 552 532 q 311 504 392 539 q 181 386 218 464 q 180 374 180 380 q 179 365 179 367 q 197 299 179 330 q 277 219 218 263 q 362 182 311 196 q 460 162 394 173 q 527 157 495 157 q 609 165 562 157 q 701 179 675 177 q 921 238 811 209 q 942 220 934 232 q 950 194 950 208 q 938 167 950 178 q 887 141 919 146 q 826 132 855 136 q 648 80 776 114 q 475 23 533 50 q 320 -84 385 -16 q 272 -140 289 -117 q 230 -241 230 -194 q 248 -307 230 -272 q 322 -350 281 -336 q 410 -364 364 -364 q 564 -339 471 -364 q 656 -315 610 -327 q 760 -275 718 -292 q 862 -227 817 -251 q 954 -166 914 -198 q 980 -173 967 -170 q 999 -191 995 -178 "},"ج":{"x_min":67.828125,"x_max":1064.8125,"ha":1133,"o":"m 1045 455 q 1064 408 1064 434 q 1013 311 1064 365 q 912 230 972 268 q 746 134 852 193 q 599 48 646 77 q 459 -57 520 -2 q 296 -230 372 -133 q 171 -420 224 -322 q 178 -466 171 -445 q 201 -501 185 -488 q 299 -519 244 -519 q 480 -481 381 -519 q 656 -390 567 -447 q 795 -285 736 -339 q 811 -281 804 -282 q 826 -280 819 -280 q 850 -286 841 -280 q 864 -304 860 -291 q 865 -312 865 -306 q 860 -334 865 -321 q 855 -346 859 -338 q 548 -547 716 -480 q 417 -589 483 -572 q 263 -612 329 -612 q 174 -599 213 -612 q 110 -557 135 -586 q 78 -513 88 -540 q 67 -455 67 -486 q 71 -415 67 -435 q 159 -258 108 -336 q 288 -89 221 -163 q 394 7 336 -37 q 524 94 453 52 q 439 90 481 90 q 323 97 377 90 q 232 113 268 104 q 115 177 162 126 q 69 289 69 229 q 79 341 69 317 q 110 386 89 365 q 353 516 216 473 q 648 559 490 559 q 793 556 748 559 q 940 528 880 549 q 1045 455 1013 503 m 606 -187 q 613 -217 613 -201 q 581 -272 613 -255 q 551 -280 569 -280 q 520 -271 534 -280 q 497 -248 505 -263 q 489 -217 489 -233 q 521 -163 489 -181 q 550 -156 534 -156 q 582 -165 567 -156 q 606 -187 598 -173 m 940 407 q 806 460 903 449 q 652 469 729 464 q 474 448 534 458 q 309 401 376 431 q 185 305 230 365 q 179 282 179 293 q 216 223 179 254 q 282 179 235 207 q 307 170 293 173 q 333 167 321 167 q 432 203 368 167 q 531 240 495 240 q 542 240 537 240 q 558 237 547 240 q 572 223 568 233 q 575 197 575 213 q 575 177 575 187 q 573 158 574 167 q 575 146 573 150 q 714 215 594 158 q 863 299 815 263 q 940 407 934 352 "},"ñ":{"x_min":51,"x_max":856,"ha":895,"o":"m 57 0 l 57 72 l 170 72 l 170 648 l 51 648 l 51 721 l 295 721 l 295 592 q 384 703 329 666 q 513 741 440 741 q 688 672 632 741 q 745 458 745 603 l 745 72 l 856 72 l 856 0 l 512 0 l 512 72 l 620 72 l 620 418 q 587 600 620 551 q 472 650 554 650 q 340 586 385 650 q 295 401 295 522 l 295 72 l 404 72 l 404 0 l 57 0 m 444 929 l 405 966 q 376 987 387 982 q 352 993 365 993 q 307 966 324 993 q 288 888 291 939 l 223 888 q 258 1029 224 979 q 355 1079 293 1079 q 402 1069 381 1079 q 449 1037 424 1060 l 488 1000 q 515 979 504 984 q 541 974 527 974 q 586 1001 570 974 q 606 1079 603 1028 l 671 1079 q 635 937 669 987 q 538 888 600 888 q 491 897 512 888 q 444 929 469 906 "},"ﺟ":{"x_min":0,"x_max":1035.640625,"ha":1103,"o":"m 1016 455 q 1035 407 1035 434 q 992 321 1035 368 q 900 242 959 284 q 814 189 861 215 q 548 80 701 126 q 265 20 413 40 q 0 0 118 0 l 0 98 q 51 97 29 98 q 94 96 73 96 q 145 98 128 96 q 198 108 163 100 q 84 172 128 120 q 40 285 40 223 q 49 339 40 315 q 81 386 59 364 q 324 516 187 473 q 619 559 461 559 q 764 556 719 559 q 910 528 851 549 q 1016 455 984 503 m 502 -99 q 509 -129 509 -112 q 478 -184 509 -166 q 447 -192 465 -192 q 416 -183 430 -192 q 393 -160 402 -175 q 385 -129 385 -145 q 417 -74 385 -93 q 446 -68 430 -68 q 478 -76 463 -68 q 502 -99 494 -84 m 902 406 q 733 462 859 453 q 623 469 678 465 q 445 447 505 457 q 280 400 347 430 q 155 304 201 365 q 149 282 149 293 q 187 222 149 253 q 252 178 206 206 q 280 169 267 171 q 307 166 293 166 q 404 198 341 166 q 504 231 467 231 q 532 228 519 231 q 544 219 539 225 q 549 201 549 213 q 547 182 549 194 q 545 169 545 171 q 547 160 545 166 q 683 225 571 175 q 827 301 781 269 q 902 406 895 350 "},"‚":{"x_min":61,"x_max":318,"ha":442,"o":"m 61 -134 q 154 -24 125 -88 q 184 128 184 38 l 184 154 l 318 154 q 263 -44 312 38 q 115 -189 214 -127 l 61 -134 "},"ق":{"x_min":68,"x_max":860.21875,"ha":928,"o":"m 636 788 q 642 759 642 775 q 611 704 642 721 q 581 696 598 696 q 550 704 564 696 q 527 728 535 712 q 521 752 521 740 q 532 786 521 769 q 560 814 543 803 q 587 821 573 821 q 614 812 602 821 q 636 788 627 804 m 474 788 q 481 759 481 775 q 450 704 481 721 q 419 696 436 696 q 388 704 402 696 q 365 728 373 712 q 359 752 359 740 q 370 786 359 769 q 399 814 381 803 q 425 821 411 821 q 452 812 440 821 q 474 788 465 804 m 852 -166 q 776 -331 834 -261 q 628 -429 718 -402 q 515 -454 578 -454 q 431 -442 470 -454 q 361 -404 392 -430 q 133 -151 208 -316 q 68 182 68 -6 q 79 335 68 254 q 100 380 84 362 q 140 415 100 381 q 163 420 149 420 q 182 416 174 420 q 192 404 190 413 q 169 281 177 343 q 162 160 162 220 q 168 67 162 111 q 220 -111 181 -35 q 364 -292 266 -203 q 445 -335 403 -320 q 527 -350 487 -350 q 668 -302 604 -350 q 764 -177 733 -255 q 768 -139 766 -158 q 770 -101 770 -120 q 769 -63 770 -76 q 764 -34 765 -44 q 702 -72 733 -53 q 628 -96 660 -96 q 519 -22 569 -87 q 446 121 474 34 q 424 266 424 190 q 456 427 424 356 q 549 521 488 497 q 562 522 555 522 q 573 522 569 522 q 681 480 633 522 q 757 381 720 447 q 814 269 763 371 q 827 213 815 269 q 848 94 839 157 q 860 -61 860 6 q 852 -166 860 -117 m 696 161 q 656 224 694 177 q 638 260 638 246 q 644 276 638 268 q 662 292 650 284 q 676 305 669 297 q 690 318 684 313 q 646 386 686 349 q 570 425 605 425 q 542 416 555 425 q 525 384 530 406 q 510 318 516 352 q 505 255 505 284 q 509 199 505 223 q 526 144 513 174 q 572 64 542 103 q 637 0 603 25 q 658 -4 648 -4 q 695 29 682 -4 q 706 100 706 59 q 696 161 706 143 "},"Æ":{"x_min":-23,"x_max":1319,"ha":1390,"o":"m 289 367 l 621 367 l 621 940 l 553 940 l 289 367 m 492 0 l 492 72 l 621 72 l 621 294 l 255 294 l 152 72 l 263 72 l 263 0 l -23 0 l -23 72 l 65 72 l 465 940 l 319 940 l 319 1013 l 1307 1013 l 1307 788 l 1224 788 l 1224 930 l 757 930 l 757 590 l 1091 590 l 1091 717 l 1174 717 l 1174 380 l 1091 380 l 1091 507 l 757 507 l 757 83 l 1236 83 l 1236 225 l 1319 225 l 1319 0 l 492 0 "},"ğ":{"x_min":69,"x_max":848,"ha":889,"o":"m 729 648 l 729 15 q 643 -224 729 -140 q 400 -309 558 -309 q 263 -296 328 -309 q 139 -257 198 -283 l 139 -106 l 204 -106 q 261 -209 216 -176 q 391 -242 307 -242 q 552 -179 501 -242 q 604 15 604 -117 l 604 112 q 510 12 567 44 q 370 -20 454 -20 q 153 85 237 -20 q 69 360 69 191 q 153 635 69 530 q 370 741 237 741 q 510 708 454 741 q 604 607 567 676 l 604 721 l 848 721 l 848 648 l 729 648 m 604 395 q 554 594 604 525 q 409 663 504 663 q 264 586 313 663 q 215 360 215 510 q 264 134 215 211 q 409 58 313 58 q 554 126 504 58 q 604 324 604 194 l 604 395 m 232 1091 l 297 1091 q 341 1013 305 1037 q 444 989 376 989 q 547 1013 512 989 q 592 1091 583 1037 l 657 1091 q 596 944 650 993 q 444 896 542 896 q 292 944 346 896 q 232 1091 238 993 "},"ح":{"x_min":67.828125,"x_max":1064.8125,"ha":1133,"o":"m 1045 455 q 1064 408 1064 434 q 1013 311 1064 365 q 912 230 972 268 q 746 134 852 193 q 599 48 646 77 q 459 -57 520 -2 q 296 -230 372 -133 q 171 -420 224 -322 q 178 -466 171 -445 q 201 -501 185 -488 q 299 -519 244 -519 q 480 -481 381 -519 q 656 -390 567 -447 q 795 -285 736 -339 q 811 -281 804 -282 q 826 -280 819 -280 q 850 -286 841 -280 q 864 -304 860 -291 q 865 -312 865 -306 q 860 -334 865 -321 q 855 -346 859 -338 q 548 -547 716 -480 q 417 -589 483 -572 q 263 -612 329 -612 q 174 -599 213 -612 q 110 -557 135 -586 q 78 -513 88 -540 q 67 -455 67 -486 q 71 -415 67 -435 q 159 -258 108 -336 q 288 -89 221 -163 q 394 7 336 -37 q 524 94 453 52 q 439 90 481 90 q 323 97 377 90 q 232 113 268 104 q 115 177 162 126 q 69 289 69 229 q 79 341 69 317 q 110 386 89 365 q 353 516 216 473 q 648 559 490 559 q 793 556 748 559 q 940 528 880 549 q 1045 455 1013 503 m 940 407 q 806 460 903 449 q 652 469 729 464 q 474 448 534 458 q 309 401 376 431 q 185 305 230 365 q 179 282 179 293 q 216 223 179 254 q 282 179 235 207 q 307 170 293 173 q 333 167 321 167 q 432 203 368 167 q 531 240 495 240 q 542 240 537 240 q 558 237 547 240 q 572 224 569 232 q 576 202 576 215 q 575 188 576 195 q 574 173 575 180 q 576 161 574 167 q 715 226 602 176 q 863 302 815 269 q 940 407 934 352 "},"ª":{"x_min":85,"x_max":623,"ha":660,"o":"m 569 826 l 569 570 l 623 570 l 623 513 l 469 513 l 469 567 q 393 516 436 532 q 292 500 351 500 q 140 544 196 500 q 85 664 85 588 q 149 784 85 741 q 329 828 214 828 l 469 828 l 469 859 q 429 947 469 915 q 318 979 390 979 q 225 955 259 979 q 181 886 190 932 l 129 886 l 129 992 q 230 1021 181 1011 q 323 1031 279 1031 q 506 978 444 1031 q 569 826 569 926 m 469 676 l 469 776 l 341 776 q 232 748 269 776 q 196 669 196 721 q 230 585 196 614 q 330 557 264 557 q 431 589 393 557 q 469 676 469 622 m 112 434 l 586 434 l 586 363 l 112 363 l 112 434 "},"Œ":{"x_min":81,"x_max":1469,"ha":1580,"o":"m 772 72 l 772 940 l 644 940 q 341 828 446 940 q 236 508 236 717 q 341 184 236 297 q 644 72 447 72 l 772 72 m 1469 0 l 635 0 q 227 134 374 0 q 81 508 81 268 q 227 880 81 747 q 635 1013 373 1013 l 1457 1013 l 1457 788 l 1374 788 l 1374 930 l 909 930 l 909 590 l 1242 590 l 1242 717 l 1324 717 l 1324 380 l 1242 380 l 1242 507 l 909 507 l 909 83 l 1386 83 l 1386 225 l 1469 225 l 1469 0 "},"ﻅ":{"x_min":67.828125,"x_max":1112.28125,"ha":1180,"o":"m 593 978 q 600 948 600 965 q 569 893 600 911 q 538 886 556 886 q 507 894 521 886 q 484 918 493 902 q 478 942 478 929 q 489 976 478 959 q 518 1003 500 993 q 544 1010 531 1010 q 572 1002 559 1010 q 593 978 584 994 m 1072 320 q 990 215 1049 278 q 934 160 970 194 q 698 37 834 80 q 438 -4 569 -4 q 415 -87 438 -5 q 392 -155 406 -118 q 370 -137 387 -158 q 347 -101 353 -116 q 333 -50 333 -69 q 335 -29 333 -45 q 338 0 338 -14 q 279 27 307 4 q 229 75 272 32 q 138 208 179 126 q 86 339 106 271 q 67 413 71 385 q 88 455 80 442 q 122 480 102 480 q 156 467 138 480 q 185 388 164 444 q 216 305 200 347 q 273 199 249 235 q 359 112 316 133 q 370 199 366 176 q 387 306 379 260 q 406 380 396 352 q 347 612 380 474 q 297 836 333 672 q 241 1073 266 972 q 255 1106 245 1095 q 278 1117 265 1117 q 311 1101 295 1117 q 334 1058 326 1085 q 388 854 362 956 q 432 678 396 826 q 484 476 461 561 q 611 631 541 569 q 784 733 689 701 q 819 745 800 741 q 857 749 838 749 q 965 721 908 749 q 1055 657 1015 697 q 1097 574 1083 621 q 1112 475 1112 526 q 1072 320 1112 386 m 1012 429 q 1013 465 1012 440 q 1015 504 1015 491 q 1009 556 1015 536 q 984 597 1002 581 q 931 631 959 620 q 870 641 902 641 q 729 596 805 641 q 611 499 667 559 q 568 444 589 472 q 531 386 543 412 q 568 292 550 347 q 587 210 587 238 q 575 189 587 189 q 543 207 564 189 q 484 271 518 228 q 471 210 477 246 q 453 108 453 109 q 459 104 453 105 q 478 103 466 103 q 535 106 496 103 q 579 109 574 109 q 587 108 585 108 q 848 210 738 137 q 1012 429 981 298 "},"T":{"x_min":14,"x_max":913,"ha":926,"o":"m 265 0 l 265 72 l 395 72 l 395 932 l 97 932 l 97 774 l 14 774 l 14 1013 l 913 1013 l 913 774 l 830 774 l 830 932 l 532 932 l 532 72 l 662 72 l 662 0 l 265 0 "},"š":{"x_min":78,"x_max":642,"ha":713,"o":"m 78 40 l 78 208 l 150 208 q 200 87 152 127 q 341 47 248 47 q 469 78 425 47 q 514 170 514 110 q 481 247 514 218 q 345 310 449 276 l 255 340 q 120 415 162 370 q 79 529 79 460 q 151 684 79 628 q 352 741 224 741 q 472 726 409 741 q 603 683 535 711 l 603 526 l 531 526 q 482 634 528 595 q 356 674 435 674 q 237 646 277 674 q 197 562 197 618 q 227 489 197 517 q 349 434 258 462 l 448 403 q 596 323 551 371 q 642 200 642 275 q 563 38 642 97 q 347 -20 485 -20 q 211 -5 277 -20 q 78 40 144 10 m 300 856 l 141 1111 l 219 1111 l 357 934 l 495 1111 l 574 1111 l 414 856 l 300 856 "},"Þ":{"x_min":77,"x_max":886,"ha":939,"o":"m 344 294 l 523 294 q 677 348 624 294 q 730 506 730 403 q 677 664 730 609 q 523 719 624 719 l 344 719 l 344 294 m 77 0 l 77 72 l 206 72 l 206 940 l 77 940 l 77 1013 l 501 1013 l 501 940 l 344 940 l 344 791 l 556 791 q 797 714 708 791 q 886 507 886 637 q 796 298 886 375 q 556 221 707 221 l 344 221 l 344 72 l 501 72 l 501 0 l 77 0 "},"j":{"x_min":-133,"x_max":295,"ha":431,"o":"m 140 944 q 162 998 140 975 q 217 1022 185 1022 q 271 998 248 1022 q 294 944 294 975 q 271 890 294 912 q 217 868 249 868 q 162 890 185 868 q 140 944 140 912 m 170 648 l 52 648 l 52 721 l 295 721 l 295 -70 q 228 -245 295 -181 q 46 -309 162 -309 q -46 -297 -2 -309 q -133 -264 -90 -286 l -133 -115 l -69 -115 q -35 -211 -64 -180 q 49 -242 -6 -242 q 140 -200 110 -242 q 170 -70 170 -158 l 170 648 "},"1":{"x_min":170,"x_max":686,"ha":884,"o":"m 198 0 l 198 72 l 374 72 l 374 914 l 170 782 l 170 871 l 416 1031 l 510 1031 l 510 72 l 686 72 l 686 0 l 198 0 "},"›":{"x_min":131,"x_max":449,"ha":555,"o":"m 131 718 l 449 435 l 449 379 l 131 96 l 131 174 l 332 407 l 131 640 l 131 718 "},"ﻶ":{"x_min":67.828125,"x_max":774.59375,"ha":774,"o":"m 468 1135 l 434 1039 q 399 1038 413 1039 q 265 978 316 1028 q 220 949 244 958 q 170 940 196 940 q 98 956 136 940 q 67 972 86 961 l 95 1052 q 126 1044 114 1047 q 192 1035 165 1035 q 227 1039 212 1035 q 252 1052 242 1043 q 366 1122 302 1100 q 451 1136 408 1136 q 461 1136 457 1136 q 468 1135 465 1136 m 774 0 q 712 13 743 0 q 650 53 681 28 l 646 35 q 621 -26 640 6 q 582 -78 605 -52 q 600 -137 593 -105 q 607 -202 607 -169 q 601 -256 607 -231 q 582 -301 595 -281 q 500 -349 550 -334 q 403 -362 459 -362 q 338 -358 373 -362 q 255 -336 282 -344 q 187 -289 206 -320 q 185 -279 185 -283 q 198 -258 185 -267 q 221 -245 204 -253 q 230 -245 226 -245 q 240 -245 235 -245 q 372 -194 309 -245 q 466 -84 420 -156 q 411 23 444 -38 q 353 132 382 77 q 297 243 320 195 q 216 413 247 343 q 145 588 172 512 q 93 772 112 681 q 118 791 97 787 q 151 799 148 797 q 185 761 178 799 q 194 728 189 736 q 296 481 238 612 q 409 243 344 372 q 531 7 465 131 q 558 100 550 51 q 567 198 567 150 q 554 337 567 261 q 529 475 552 352 q 507 614 512 565 q 501 653 503 635 q 499 692 499 672 q 514 710 499 703 q 550 717 530 717 q 566 715 558 717 l 584 688 q 612 544 597 616 q 637 407 631 445 q 656 264 648 338 q 657 230 656 246 q 662 172 662 176 q 715 117 687 137 q 774 98 742 98 l 774 0 m 524 -248 l 524 -239 q 524 -215 524 -226 q 516 -180 523 -194 q 491 -200 505 -190 q 444 -233 467 -216 q 383 -280 414 -256 q 460 -273 425 -280 q 524 -248 495 -266 "},"ﻁ":{"x_min":67.828125,"x_max":1112.28125,"ha":1180,"o":"m 1072 320 q 990 215 1049 278 q 934 160 970 194 q 698 37 834 80 q 438 -4 569 -4 q 415 -87 438 -5 q 392 -155 406 -118 q 370 -137 387 -158 q 347 -101 353 -116 q 333 -50 333 -69 q 335 -29 333 -45 q 338 0 338 -14 q 279 27 307 4 q 229 75 272 32 q 138 208 179 126 q 86 339 106 271 q 67 413 71 385 q 88 455 80 442 q 122 480 102 480 q 156 467 138 480 q 185 388 164 444 q 216 305 200 347 q 273 199 249 235 q 359 112 316 133 q 370 199 366 176 q 387 306 379 260 q 406 380 396 352 q 347 612 380 474 q 297 836 333 672 q 241 1073 266 972 q 255 1106 245 1095 q 278 1117 265 1117 q 311 1101 295 1117 q 334 1058 326 1085 q 388 854 362 956 q 432 678 396 826 q 484 476 461 561 q 611 631 541 569 q 784 733 689 701 q 819 745 800 741 q 857 749 838 749 q 965 721 908 749 q 1055 657 1015 697 q 1097 574 1083 621 q 1112 475 1112 526 q 1072 320 1112 386 m 1012 429 q 1013 465 1012 440 q 1015 504 1015 491 q 1009 556 1015 536 q 984 597 1002 581 q 931 631 959 620 q 870 641 902 641 q 729 596 805 641 q 611 499 667 559 q 573 438 592 474 q 541 373 561 416 q 572 297 559 335 q 584 236 584 258 q 570 212 584 212 q 538 227 558 212 q 486 278 518 243 q 467 193 476 246 q 453 108 457 126 q 459 104 453 105 q 478 103 466 103 q 535 106 496 103 q 579 109 574 109 q 587 108 585 108 q 848 210 738 137 q 1012 429 981 298 "},"<":{"x_min":147,"x_max":1016,"ha":1164,"o":"m 1016 691 l 312 434 l 1016 179 l 1016 64 l 147 379 l 147 491 l 1016 807 l 1016 691 "},"ﺁ":{"x_min":67.828125,"x_max":468.65625,"ha":536,"o":"m 468 1135 l 434 1039 q 399 1038 413 1039 q 265 978 316 1028 q 220 949 244 958 q 170 940 196 940 q 98 956 136 940 q 67 972 86 961 l 95 1052 q 126 1044 114 1047 q 192 1035 165 1035 q 227 1039 212 1035 q 252 1052 242 1043 q 366 1122 302 1100 q 451 1136 408 1136 q 461 1136 457 1136 q 468 1135 465 1136 m 440 30 q 389 -12 425 -12 q 340 21 359 -12 q 280 288 311 123 q 229 579 255 433 q 174 854 199 752 q 188 884 178 874 q 210 895 198 895 q 244 879 227 895 q 267 837 261 863 q 326 576 297 730 q 376 311 351 443 q 440 30 407 150 "},"t":{"x_min":40,"x_max":547,"ha":558,"o":"m 150 648 l 40 648 l 40 721 l 150 721 l 150 945 l 275 945 l 275 721 l 509 721 l 509 648 l 275 648 l 275 190 q 292 72 275 98 q 357 47 310 47 q 429 75 406 47 q 453 169 451 104 l 547 169 q 493 25 541 70 q 347 -20 445 -20 q 194 27 239 -20 q 150 190 150 75 l 150 648 "},"¬":{"x_min":147,"x_max":1016,"ha":1164,"o":"m 147 585 l 1016 585 l 1016 195 l 907 195 l 907 475 l 147 475 l 147 585 "},"ﻮ":{"x_min":67.828125,"x_max":704.671875,"ha":705,"o":"m 704 0 q 671 -1 678 0 q 648 -2 664 -2 q 572 -170 629 -79 q 443 -339 522 -249 q 278 -499 358 -435 q 103 -600 186 -572 q 94 -601 97 -601 q 76 -592 83 -601 q 69 -574 69 -584 q 67 -561 67 -566 q 78 -533 67 -548 q 97 -510 91 -518 q 187 -444 139 -482 q 296 -352 242 -401 q 402 -244 359 -294 q 495 -116 452 -188 q 558 6 533 -53 q 522 4 541 4 q 331 102 411 4 q 246 298 265 185 q 272 446 246 389 q 387 549 306 521 q 502 517 455 542 q 579 447 548 491 q 626 349 607 408 q 653 231 642 299 q 668 103 662 173 q 685 101 680 102 q 691 99 689 101 q 704 98 692 98 l 704 0 m 573 108 q 560 233 573 168 q 518 366 545 313 q 478 417 499 400 q 425 437 453 437 q 355 406 392 437 q 334 310 334 356 q 359 218 334 260 q 436 142 383 176 q 510 112 475 118 q 573 108 550 110 "},"ù":{"x_min":37,"x_max":843,"ha":895,"o":"m 491 721 l 725 721 l 725 72 l 843 72 l 843 0 l 600 0 l 600 127 q 510 17 565 55 q 383 -20 455 -20 q 206 48 263 -20 q 150 262 150 116 l 150 648 l 37 648 l 37 721 l 275 721 l 275 301 q 307 120 275 169 q 422 72 339 72 q 554 135 509 72 q 600 320 600 199 l 600 648 l 491 648 l 491 721 m 297 1110 l 474 855 l 394 855 l 164 1110 l 297 1110 "},"ﺣ":{"x_min":0,"x_max":1035.640625,"ha":1103,"o":"m 1016 455 q 1035 407 1035 434 q 992 321 1035 368 q 900 242 959 284 q 814 189 861 215 q 548 80 701 126 q 265 20 413 40 q 0 0 118 0 l 0 98 q 51 97 29 98 q 94 96 73 96 q 145 98 128 96 q 198 108 163 100 q 84 172 128 120 q 40 285 40 223 q 49 339 40 315 q 81 386 59 364 q 324 516 187 473 q 619 559 461 559 q 764 556 719 559 q 910 528 851 549 q 1016 455 984 503 m 902 406 q 733 462 859 453 q 623 469 678 465 q 445 447 505 457 q 280 400 347 430 q 155 304 201 365 q 149 282 149 293 q 187 222 149 253 q 252 178 206 206 q 280 169 267 171 q 307 166 293 166 q 404 198 341 166 q 504 231 467 231 q 532 228 519 231 q 544 219 539 225 q 549 201 549 213 q 547 182 549 194 q 545 169 545 171 q 547 160 545 166 q 683 225 571 175 q 827 301 781 269 q 902 406 895 350 "},"ï":{"x_min":13,"x_max":435,"ha":444,"o":"m 295 72 l 413 72 l 413 0 l 51 0 l 51 72 l 170 72 l 170 648 l 51 648 l 51 721 l 295 721 l 295 72 m 91 1064 q 147 1040 124 1064 q 171 984 171 1017 q 148 927 171 949 q 91 905 126 905 q 35 927 57 905 q 13 984 13 949 q 36 1040 13 1017 q 91 1064 59 1064 m 356 1064 q 411 1040 388 1064 q 435 984 435 1017 q 412 927 435 949 q 356 905 390 905 q 299 927 321 905 q 277 984 277 949 q 300 1040 277 1017 q 356 1064 323 1064 "},"غ":{"x_min":67.828125,"x_max":1003.765625,"ha":1072,"o":"m 417 978 q 423 949 423 965 q 392 894 423 911 q 362 886 379 886 q 330 894 345 886 q 307 918 316 902 q 301 942 301 930 q 313 976 301 959 q 341 1004 324 993 q 368 1011 354 1011 q 395 1002 383 1011 q 417 978 408 994 m 999 -191 q 1003 -204 1003 -199 q 992 -227 1003 -214 q 974 -247 983 -237 q 760 -369 875 -320 q 518 -438 644 -418 q 371 -464 444 -464 q 212 -419 276 -464 q 124 -270 141 -368 q 168 -126 124 -195 q 270 -12 202 -71 q 391 83 276 -7 q 259 128 318 101 q 143 204 188 160 q 69 322 89 255 q 67 336 67 329 q 67 348 67 344 q 108 464 67 410 q 207 550 143 511 q 333 602 265 583 q 468 622 401 622 q 537 616 503 622 q 602 599 571 610 q 673 550 651 567 q 727 490 712 522 q 747 452 740 472 q 753 409 753 432 q 748 367 753 389 q 734 322 743 346 q 653 251 706 276 q 555 229 606 229 q 541 229 548 229 q 533 230 535 230 q 487 238 505 230 q 451 264 469 245 q 411 300 425 286 q 363 372 370 344 q 392 400 368 375 q 424 417 410 417 q 446 411 435 417 q 498 339 475 361 q 560 312 526 312 q 627 331 590 312 q 654 373 647 347 q 659 422 659 391 l 659 439 q 593 508 639 481 q 499 539 552 532 q 311 504 392 539 q 181 386 218 464 q 180 374 180 380 q 179 365 179 367 q 197 299 179 330 q 277 219 218 263 q 362 182 311 196 q 460 162 394 173 q 527 157 495 157 q 609 165 562 157 q 701 179 675 177 q 921 238 811 209 q 942 220 934 232 q 950 194 950 208 q 938 167 950 178 q 887 141 919 146 q 826 132 855 136 q 648 80 776 114 q 475 23 533 50 q 320 -84 385 -16 q 272 -140 289 -117 q 230 -241 230 -194 q 248 -307 230 -272 q 322 -350 281 -336 q 410 -364 364 -364 q 564 -339 471 -364 q 656 -315 610 -327 q 760 -275 718 -292 q 862 -227 817 -251 q 954 -166 914 -198 q 980 -173 967 -170 q 999 -191 995 -178 "},"Ò":{"x_min":78,"x_max":1061,"ha":1139,"o":"m 569 53 q 820 167 735 53 q 905 505 905 281 q 820 843 905 729 q 569 958 735 958 q 317 843 402 958 q 233 505 233 729 q 317 167 233 281 q 569 53 402 53 m 569 -20 q 380 13 466 -20 q 227 113 293 47 q 114 286 151 189 q 78 505 78 382 q 114 724 78 627 q 227 897 151 821 q 379 997 294 963 q 569 1031 465 1031 q 925 886 789 1031 q 1061 505 1061 741 q 1023 286 1061 383 q 910 113 986 188 q 758 13 844 47 q 569 -20 673 -20 m 521 1288 l 646 1109 l 566 1109 l 389 1288 l 521 1288 "},"﴾":{"x_min":68.765625,"x_max":619.21875,"ha":687,"o":"m 619 127 q 592 87 619 108 q 548 64 574 72 l 548 -1 q 545 -14 548 -10 q 536 -17 542 -17 l 526 -14 q 514 -7 520 -12 l 424 59 l 416 63 l 409 66 q 397 53 397 63 l 397 49 l 402 41 l 478 -44 l 483 -50 l 489 -56 q 494 -68 494 -64 q 478 -77 494 -77 l 475 -77 l 419 -73 l 418 -82 q 444 -167 418 -111 q 499 -265 463 -211 l 526 -306 q 538 -322 532 -315 q 549 -336 544 -330 l 580 -370 q 608 -406 607 -398 q 605 -415 608 -412 q 596 -419 602 -418 l 592 -417 l 588 -416 q 499 -344 540 -382 q 423 -266 457 -307 q 310 -73 346 -176 l 231 -84 l 220 -85 q 207 -74 206 -85 q 215 -54 207 -66 l 283 43 q 289 58 287 50 q 277 69 289 69 q 256 59 270 69 l 171 -17 q 149 -25 157 -25 q 140 -20 144 -25 q 138 -4 138 -16 l 138 64 l 95 88 q 68 126 68 105 q 95 163 68 142 q 138 185 121 181 l 138 248 q 151 276 138 276 l 161 273 l 173 265 l 252 195 q 277 181 266 181 q 289 195 289 181 q 280 215 289 207 l 211 310 q 203 327 204 318 q 223 337 203 337 l 306 323 q 351 423 325 377 q 418 516 380 472 q 583 668 485 599 l 586 669 l 591 669 q 602 658 602 669 q 585 632 602 654 l 544 585 q 533 572 538 578 q 522 556 528 567 l 495 516 q 464 464 478 488 q 440 417 451 440 q 413 331 413 362 l 415 323 l 468 331 q 484 329 478 331 q 491 320 491 327 q 490 316 491 318 q 487 306 490 314 l 409 221 q 399 196 397 204 q 412 186 399 186 q 429 194 420 186 l 521 266 l 529 269 l 536 270 q 548 252 546 270 l 548 186 q 591 163 570 177 q 619 127 619 144 m 447 299 l 446 302 l 371 289 q 394 367 384 342 l 404 391 l 417 413 l 417 473 q 377 420 401 460 q 339 348 358 389 l 326 314 q 320 291 321 301 l 246 308 l 303 225 l 306 225 l 306 261 l 329 261 l 354 299 l 354 261 l 380 261 l 380 229 l 447 299 m 591 127 q 561 151 591 134 q 520 166 536 162 l 520 229 l 431 164 l 484 162 l 484 139 q 503 134 493 139 l 520 126 l 512 120 q 503 115 510 118 q 484 112 495 112 l 484 88 l 434 88 l 434 84 l 520 21 l 520 87 q 537 89 528 87 q 563 101 546 92 q 591 127 591 114 m 401 126 q 384 166 401 149 q 343 183 367 183 q 303 166 320 183 q 286 126 286 149 q 303 85 286 102 q 343 68 320 68 q 384 85 368 68 q 401 126 401 101 m 252 85 l 252 88 l 199 88 l 199 110 q 183 113 193 110 q 164 123 172 116 q 180 133 170 129 q 199 137 189 137 l 199 162 l 249 162 l 164 228 l 164 164 q 120 149 149 164 q 91 123 91 135 q 122 99 91 115 q 164 85 149 87 l 164 21 l 252 85 m 449 -50 l 381 21 l 381 -11 l 355 -11 l 355 -47 l 331 -11 l 306 -11 l 306 24 l 246 -57 l 322 -41 q 341 -96 322 -54 q 379 -169 357 -135 q 418 -221 402 -209 l 418 -163 q 408 -143 412 -152 q 398 -123 404 -135 l 384 -81 l 371 -37 l 447 -50 l 449 -50 "},"&":{"x_min":100,"x_max":1171.078125,"ha":1236,"o":"m 750 156 l 356 572 q 267 457 297 519 q 238 327 238 396 q 316 138 238 214 q 510 62 394 62 q 641 86 579 62 q 750 156 702 110 m 1171 0 l 899 0 l 806 98 q 654 9 735 38 q 480 -20 573 -20 q 202 69 304 -20 q 100 312 100 159 q 152 481 100 402 q 309 627 204 559 q 258 710 274 669 q 242 796 242 751 q 319 967 242 904 q 531 1031 397 1031 q 637 1019 576 1031 q 776 985 697 1008 l 776 810 l 699 810 q 646 920 689 882 q 528 958 602 958 q 415 919 458 958 q 372 820 372 881 q 395 738 372 779 q 491 620 418 697 l 841 251 q 914 368 887 305 q 948 502 941 430 l 826 502 l 826 575 l 1146 575 l 1146 502 l 1030 502 q 984 337 1018 413 q 895 195 951 260 l 1011 72 l 1171 72 l 1171 0 "},"ﻩ":{"x_min":68,"x_max":538,"ha":606,"o":"m 391 440 q 339 458 365 458 q 268 425 304 458 q 208 345 236 396 q 174 265 187 307 q 161 187 161 223 q 175 125 161 149 q 224 92 190 101 q 235 90 228 91 q 247 90 242 90 q 327 130 289 90 q 388 213 341 146 q 423 282 410 246 q 437 350 437 318 q 426 402 437 379 q 391 440 415 424 m 161 14 q 91 73 114 32 q 68 168 68 113 q 79 253 68 209 q 113 346 91 298 q 212 487 154 435 q 347 546 276 546 q 413 537 384 546 q 463 510 442 529 q 518 434 499 476 q 538 345 538 392 q 530 285 538 315 q 429 104 503 190 q 234 -1 337 -1 q 161 14 199 -1 "},"˝":{"x_min":165,"x_max":637,"ha":695,"o":"m 292 1111 l 408 1111 l 242 856 l 165 856 l 292 1111 m 516 1111 l 637 1111 l 442 856 l 364 856 l 516 1111 "},"I":{"x_min":77,"x_max":473,"ha":549,"o":"m 344 72 l 473 72 l 473 0 l 77 0 l 77 72 l 206 72 l 206 940 l 77 940 l 77 1013 l 473 1013 l 473 940 l 344 940 l 344 72 "},"G":{"x_min":78,"x_max":1000,"ha":1110,"o":"m 889 710 q 789 897 865 836 q 580 958 714 958 q 319 845 405 958 q 233 505 233 732 q 321 167 233 282 q 582 53 410 53 q 729 71 659 53 q 862 128 798 90 l 862 389 l 671 389 l 671 462 l 1000 462 l 1000 84 q 805 6 909 32 q 583 -20 701 -20 q 215 123 353 -20 q 78 505 78 267 q 216 888 78 745 q 588 1031 354 1031 q 768 1010 675 1031 q 965 950 860 990 l 965 710 l 889 710 "},"`":{"x_min":115,"x_max":425,"ha":695,"o":"m 248 1110 l 425 855 l 345 855 l 115 1110 l 248 1110 "},"ﺉ":{"x_min":67.828125,"x_max":1416.125,"ha":1484,"o":"m 434 735 q 438 723 438 732 q 434 701 438 713 q 425 686 431 690 q 416 673 419 677 q 396 659 407 662 q 246 624 319 634 q 134 615 188 615 q 108 615 118 615 q 81 617 98 616 l 97 644 q 106 643 100 643 q 163 654 126 643 q 216 673 184 660 q 160 694 177 682 q 128 745 139 709 q 127 755 127 748 q 140 801 127 778 q 176 843 153 824 q 223 873 198 862 q 273 884 248 884 q 338 859 311 884 q 370 819 358 840 q 383 778 383 797 q 367 745 383 757 q 338 728 352 733 q 310 724 324 724 q 256 743 283 724 q 234 762 247 749 q 244 773 241 769 q 257 779 251 779 q 263 777 259 779 q 281 756 272 762 q 299 750 290 750 q 317 759 310 750 q 322 779 324 769 q 305 805 317 797 q 276 814 293 814 q 267 813 270 813 q 230 799 246 811 q 213 776 215 787 q 212 758 212 766 q 224 724 212 737 q 268 707 236 712 q 297 705 282 705 q 325 707 310 705 q 356 713 340 710 q 397 724 372 716 q 434 735 422 732 m 1407 661 q 1416 605 1416 635 q 1370 465 1416 538 q 1270 346 1334 406 q 1240 323 1257 329 q 1203 317 1224 317 q 1162 322 1184 317 q 1152 350 1152 336 q 1195 407 1152 373 q 1250 465 1242 446 q 1282 519 1270 487 q 1294 582 1294 551 q 1291 610 1294 598 q 1247 614 1270 614 q 1000 533 1136 614 q 823 365 864 453 q 817 341 817 352 q 826 308 817 326 q 843 277 830 297 q 906 242 873 253 q 968 233 934 233 q 1053 241 987 233 q 1107 245 1087 245 q 1164 239 1138 245 q 1218 217 1190 233 q 1237 187 1231 202 q 1243 154 1243 172 q 1230 94 1243 128 q 1203 36 1226 84 q 1083 -82 1154 -33 q 937 -155 1025 -121 q 774 -210 892 -172 q 650 -236 717 -226 q 519 -247 583 -247 q 329 -222 414 -247 q 170 -138 234 -195 q 94 -39 121 -96 q 67 81 67 17 q 68 96 67 89 q 71 125 68 104 q 127 247 85 194 q 228 328 167 297 q 348 359 290 359 q 542 271 446 359 q 582 245 546 271 q 656 180 628 213 q 697 93 697 133 q 697 86 697 89 q 694 73 695 77 q 684 60 691 64 q 670 56 677 56 q 655 58 661 56 q 638 66 649 60 q 554 143 615 83 q 459 224 497 198 q 351 263 401 263 q 307 256 330 263 q 262 236 284 250 q 196 172 217 202 q 167 87 167 133 q 174 40 167 65 q 320 -107 221 -59 q 532 -151 408 -151 q 859 -81 691 -151 q 1114 81 1021 -15 q 1123 98 1119 91 q 1129 119 1129 110 q 1123 133 1129 127 q 1087 144 1104 141 q 1053 146 1070 146 q 1015 144 1038 146 q 950 138 965 138 q 930 138 941 138 q 910 141 920 139 q 779 193 832 155 q 710 309 710 241 q 775 468 710 389 q 923 594 828 533 q 1086 678 997 641 q 1178 709 1152 701 q 1276 725 1233 725 q 1350 710 1317 725 q 1407 661 1383 695 "},"·":{"x_min":129,"x_max":310,"ha":442,"o":"m 129 482 q 155 545 129 519 q 219 572 181 572 q 283 545 257 572 q 310 482 310 519 q 283 418 310 444 q 219 392 257 392 q 155 417 181 392 q 129 482 129 443 "},"ﺎ":{"x_min":67.828125,"x_max":473.40625,"ha":473,"o":"m 473 0 q 354 48 416 0 q 269 148 299 92 q 164 382 204 244 q 109 629 137 474 q 67 850 80 803 q 87 882 72 870 q 119 895 101 895 q 147 883 134 895 q 162 848 159 871 q 191 679 177 764 q 226 497 208 574 q 274 330 248 400 q 356 173 309 234 q 473 99 413 99 l 473 0 "},"ّ":{"x_min":33.4375,"x_max":418.46875,"ha":445,"o":"m 418 1239 q 414 1232 416 1234 q 411 1221 411 1231 l 411 1174 q 383 1092 411 1117 q 294 1068 356 1068 l 286 1068 q 247 1072 261 1068 q 233 1077 238 1075 q 223 1086 229 1080 q 194 1073 211 1078 q 147 1068 176 1068 q 59 1093 85 1068 q 33 1191 33 1118 l 33 1292 q 41 1310 33 1309 q 47 1306 46 1307 l 55 1297 l 78 1273 l 106 1252 q 118 1239 116 1244 l 114 1233 q 110 1221 112 1231 l 110 1191 q 116 1152 110 1162 q 147 1144 125 1144 q 184 1187 184 1144 l 184 1292 q 192 1310 184 1309 q 198 1306 196 1307 l 206 1297 l 236 1269 l 259 1250 q 268 1239 267 1245 q 265 1233 266 1234 q 261 1221 262 1231 l 261 1173 q 269 1149 261 1155 q 298 1144 276 1144 q 326 1153 319 1144 q 334 1191 334 1161 l 334 1292 q 342 1310 334 1309 q 346 1307 344 1309 q 350 1304 348 1306 l 356 1297 l 380 1273 l 407 1252 q 418 1239 417 1246 "},"¿":{"x_min":94,"x_max":677,"ha":745,"o":"m 527 941 q 500 877 527 903 q 437 851 474 851 q 373 877 399 851 q 347 941 347 903 q 373 1005 347 979 q 437 1032 399 1032 q 501 1005 475 1032 q 527 941 527 979 m 677 45 q 540 -2 605 13 q 418 -18 476 -18 q 181 54 268 -18 q 94 250 94 127 q 169 456 94 376 q 396 571 244 536 l 396 743 l 479 743 l 479 521 q 298 423 359 491 q 237 249 237 354 q 286 102 237 156 q 422 49 336 49 q 548 93 498 49 q 612 221 597 137 l 677 221 l 677 45 "},"ý":{"x_min":-4,"x_max":781,"ha":785,"o":"m 300 -132 l 347 -12 l 78 648 l -4 648 l -4 721 l 328 721 l 328 648 l 212 648 l 415 152 l 618 648 l 510 648 l 510 721 l 781 721 l 781 648 l 700 648 l 370 -162 q 294 -278 336 -247 q 178 -309 253 -309 q 112 -303 146 -309 q 45 -288 78 -298 l 45 -150 l 109 -150 q 132 -216 113 -196 q 192 -236 151 -236 q 252 -215 229 -236 q 300 -132 275 -194 m 488 1111 l 623 1111 l 392 856 l 313 856 l 488 1111 "},"º":{"x_min":64,"x_max":589,"ha":653,"o":"m 326 552 q 434 605 398 552 q 471 765 471 659 q 434 924 471 870 q 326 979 397 979 q 218 924 255 979 q 182 765 182 869 q 218 606 182 660 q 326 552 255 552 m 326 500 q 135 572 207 500 q 64 765 64 645 q 135 958 64 885 q 326 1031 207 1031 q 517 958 445 1031 q 589 765 589 885 q 517 572 589 645 q 326 500 445 500 m 93 434 l 559 434 l 559 363 l 93 363 l 93 434 "},"∞":{"x_min":150,"x_max":1009,"ha":1157,"o":"m 620 379 q 699 289 654 319 q 801 259 744 259 q 913 304 870 259 q 957 421 957 350 q 917 535 957 489 q 816 580 877 580 q 717 535 761 580 q 620 379 673 490 m 538 451 q 459 541 504 511 q 357 571 414 571 q 245 525 288 571 q 202 409 202 480 q 241 296 202 341 q 342 250 281 250 q 441 295 397 250 q 538 451 485 340 m 586 328 q 485 192 538 235 q 368 150 432 150 q 213 225 276 150 q 150 413 150 301 q 206 605 150 532 q 354 679 263 679 q 469 637 418 679 q 571 499 520 595 q 671 637 617 593 q 790 682 724 682 q 944 605 880 682 q 1009 416 1009 529 q 952 225 1009 298 q 804 152 895 152 q 690 192 740 152 q 586 328 640 232 "},"ﺘ":{"x_min":0,"x_max":476.796875,"ha":477,"o":"m 301 792 q 308 762 308 779 q 277 707 308 725 q 246 700 264 700 q 215 708 229 700 q 192 731 201 716 q 184 762 184 746 q 217 817 184 798 q 245 824 229 824 q 278 815 262 824 q 301 792 293 806 m 148 792 q 155 762 155 779 q 124 707 155 725 q 93 700 111 700 q 62 708 76 700 q 39 731 48 716 q 31 762 31 746 q 63 817 31 798 q 92 824 76 824 q 124 815 109 824 q 148 792 140 806 m 476 0 q 357 48 419 0 q 274 148 301 92 q 223 89 229 95 q 143 27 185 49 q 26 -1 88 -1 q 10 -1 18 -1 q 0 0 2 0 l 0 100 q 21 98 10 98 q 127 130 71 98 q 187 197 183 162 q 189 216 189 205 q 190 239 190 228 q 183 319 190 271 q 168 460 168 430 q 184 486 171 476 q 213 497 198 497 q 237 487 227 497 q 246 457 246 477 q 296 308 278 354 q 370 164 333 213 q 476 100 420 100 l 476 0 "},"٪":{"x_min":79.359375,"x_max":565.640625,"ha":642,"o":"m 198 585 q 181 542 198 560 q 140 524 163 524 q 96 541 115 524 q 79 585 79 560 q 97 627 79 609 q 140 644 115 644 q 181 627 164 644 q 198 585 198 611 m 515 699 l 169 -199 l 123 -199 l 466 699 l 515 699 m 565 -77 q 549 -118 565 -101 q 507 -134 533 -134 q 463 -117 482 -134 q 445 -77 445 -101 q 464 -35 445 -53 q 508 -17 482 -17 q 549 -34 533 -17 q 565 -77 565 -50 "},"١":{"x_min":79.359375,"x_max":307.234375,"ha":408,"o":"m 307 0 q 293 -20 298 -13 q 263 -41 276 -41 q 229 -20 252 -41 q 208 0 222 -13 l 79 732 q 94 753 89 746 q 126 773 113 773 q 158 753 136 773 q 177 732 164 746 l 307 0 "},";":{"x_min":50.5625,"x_max":328,"ha":468,"o":"m 50 -134 q 144 -24 114 -88 q 174 128 174 38 l 174 154 l 308 154 q 253 -44 302 38 q 104 -189 203 -127 l 50 -134 m 148 513 q 174 576 148 550 q 238 603 200 603 q 301 576 275 603 q 328 513 328 550 q 301 449 328 475 q 238 423 275 423 q 174 449 200 423 q 148 513 148 475 "},"ﻧ":{"x_min":0,"x_max":337.75,"ha":406,"o":"m 183 944 q 190 915 190 931 q 159 860 190 877 q 128 852 146 852 q 97 860 111 852 q 74 884 83 868 q 68 908 68 896 q 79 942 68 925 q 108 970 90 959 q 134 977 121 977 q 162 968 149 977 q 183 944 174 960 m 326 148 q 219 48 315 101 q 40 -4 124 -4 q 0 0 18 -4 l 0 99 q 31 95 14 95 q 165 129 92 95 q 242 197 237 163 q 243 215 243 209 q 223 294 243 251 q 175 371 206 330 q 121 438 157 396 q 138 477 126 466 q 168 489 149 489 q 210 475 188 489 q 250 436 231 461 q 314 324 290 383 q 337 213 337 266 q 326 148 337 178 "},"6":{"x_min":93,"x_max":796,"ha":884,"o":"m 454 47 q 601 117 550 47 q 653 319 653 187 q 601 520 653 450 q 454 591 550 591 q 306 523 357 591 q 256 327 256 455 q 307 119 256 192 q 454 47 358 47 m 233 557 q 337 632 279 607 q 469 658 395 658 q 708 567 620 658 q 796 319 796 476 q 701 72 796 165 q 448 -20 606 -20 q 185 107 277 -20 q 93 473 93 235 q 202 885 93 739 q 509 1031 311 1031 q 622 1020 563 1031 q 743 990 681 1010 l 743 823 l 666 823 q 613 927 657 891 q 495 964 569 964 q 299 864 363 964 q 233 557 235 764 "},"ﺻ":{"x_min":0,"x_max":1281.84375,"ha":1350,"o":"m 1241 320 q 1185 237 1217 274 q 1104 160 1154 200 q 861 30 994 70 q 608 -3 748 -3 q 599 -49 603 -16 q 567 -119 592 -100 q 557 -121 565 -121 q 533 -116 545 -121 q 516 -102 520 -111 q 506 -65 508 -85 q 503 -20 503 -45 l 503 0 q 503 21 503 10 q 495 49 502 39 l 411 116 q 354 171 377 142 q 270 58 345 117 q 79 -11 182 -11 q 39 -8 56 -11 q 0 0 21 -6 l 0 93 q 39 87 17 89 q 75 85 60 85 q 211 121 154 85 q 266 190 261 153 q 267 203 267 197 q 267 219 267 209 q 261 289 267 250 q 245 362 259 299 q 238 402 243 375 q 230 443 232 430 q 257 469 239 459 q 296 478 276 478 q 331 465 317 478 q 358 399 346 452 q 377 317 372 330 q 438 229 398 272 q 529 159 481 182 q 609 393 558 286 q 747 600 668 517 q 954 733 838 694 q 989 745 970 741 q 1026 749 1008 749 q 1134 721 1078 749 q 1224 656 1184 696 q 1267 573 1252 621 q 1281 475 1281 526 q 1241 320 1281 386 m 1182 429 q 1183 465 1182 440 q 1184 504 1184 491 q 1179 556 1184 536 q 1154 597 1171 581 q 1100 631 1129 620 q 1040 641 1072 641 q 899 596 974 641 q 780 499 836 559 q 697 356 733 438 q 645 198 663 280 q 636 151 640 180 q 628 108 632 122 q 634 104 628 105 q 651 103 640 103 q 706 106 669 103 q 748 109 744 109 q 756 108 754 108 q 1018 210 908 137 q 1182 429 1150 298 "},"n":{"x_min":51,"x_max":856,"ha":895,"o":"m 57 0 l 57 72 l 170 72 l 170 648 l 51 648 l 51 721 l 295 721 l 295 592 q 384 703 329 666 q 513 741 440 741 q 688 672 632 741 q 745 458 745 603 l 745 72 l 856 72 l 856 0 l 512 0 l 512 72 l 620 72 l 620 418 q 587 600 620 551 q 472 650 554 650 q 340 586 385 650 q 295 401 295 522 l 295 72 l 404 72 l 404 0 l 57 0 "},"¤":{"x_min":70.5625,"x_max":816.78125,"ha":884,"o":"m 611 668 l 753 808 l 816 745 l 675 603 q 718 521 704 562 q 732 435 732 479 q 718 348 732 388 q 673 269 704 308 l 814 129 l 748 65 l 609 204 q 530 160 570 174 q 443 146 490 146 q 357 159 399 146 q 273 201 314 173 l 135 62 l 70 126 l 209 266 q 167 350 181 308 q 154 435 154 391 q 168 522 154 482 q 212 602 182 563 l 71 742 l 136 806 l 276 665 q 355 709 314 695 q 443 724 396 724 q 529 710 488 724 q 611 668 570 696 m 626 436 q 573 564 626 512 q 443 617 520 617 q 314 564 367 617 q 261 436 261 512 q 313 305 261 358 q 443 253 366 253 q 572 306 519 253 q 626 436 626 359 "},"ﻞ":{"x_min":67.828125,"x_max":899.328125,"ha":899,"o":"m 899 0 q 798 35 851 0 q 801 -16 801 12 q 801 -50 801 -33 q 798 -72 799 -65 q 718 -235 784 -162 q 562 -332 652 -308 q 393 -365 487 -365 q 255 -344 319 -365 q 148 -285 191 -324 q 101 -232 124 -258 q 69 -167 74 -199 q 68 -153 68 -159 q 67 -142 67 -147 q 105 -7 67 -71 q 202 97 139 51 q 281 129 223 111 q 392 150 349 150 q 432 142 417 150 q 447 117 447 135 q 414 72 447 83 q 348 54 381 63 q 231 -1 290 48 q 168 -111 168 -54 q 173 -142 168 -128 q 190 -170 178 -156 q 304 -243 232 -218 q 444 -265 367 -265 q 476 -259 453 -260 q 511 -251 499 -257 q 638 -183 571 -251 q 716 -56 699 -120 q 694 124 716 31 q 639 291 678 191 q 575 453 607 372 q 534 568 560 504 q 459 756 465 739 q 490 792 461 781 q 519 802 510 799 q 573 758 564 802 q 591 683 585 692 q 649 519 611 614 q 714 360 681 439 q 769 200 750 267 q 827 127 798 152 q 899 99 861 99 l 899 0 "},"∂":{"x_min":71,"x_max":652,"ha":718,"o":"m 513 421 q 528 535 523 480 q 533 641 533 591 q 508 773 533 729 q 435 818 484 818 q 349 778 397 818 q 275 739 300 739 q 235 754 251 739 q 219 790 219 769 q 267 865 219 832 q 385 899 316 899 q 579 793 507 899 q 652 510 652 688 q 554 132 652 282 q 311 -17 456 -17 q 139 56 208 -17 q 71 240 71 129 q 145 461 71 374 q 330 549 220 549 q 443 518 399 549 q 513 421 487 487 m 480 335 q 450 456 480 414 q 367 499 421 499 q 245 411 293 499 q 198 183 198 323 q 227 62 198 104 q 310 21 256 21 q 432 109 384 21 q 480 335 480 197 "},"p":{"x_min":40,"x_max":819,"ha":889,"o":"m 285 395 l 285 324 q 334 126 285 194 q 479 58 384 58 q 623 134 574 58 q 673 360 673 211 q 623 586 673 510 q 479 663 574 663 q 334 594 384 663 q 285 395 285 525 m 160 648 l 40 648 l 40 721 l 285 721 l 285 607 q 378 708 321 676 q 518 741 434 741 q 734 635 650 741 q 819 360 819 530 q 734 85 819 191 q 518 -20 650 -20 q 378 12 434 -20 q 285 112 321 44 l 285 -216 l 403 -216 l 403 -289 l 40 -289 l 40 -216 l 160 -216 l 160 648 "},"‡":{"x_min":39,"x_max":656,"ha":695,"o":"m 286 1013 l 409 1013 l 385 713 l 656 732 l 656 619 l 385 639 l 409 438 l 385 240 l 656 260 l 656 147 l 385 167 l 409 -134 l 286 -134 l 310 167 l 39 147 l 39 260 l 310 240 l 286 438 l 310 639 l 39 619 l 39 732 l 310 713 l 286 1013 "},"ﻰ":{"x_min":67.828125,"x_max":1142.8125,"ha":1143,"o":"m 1142 0 q 986 -24 1047 0 q 893 -77 925 -59 q 1019 -106 1002 -100 q 1132 -168 1110 -133 q 991 -379 1115 -296 q 709 -480 881 -453 q 554 -492 630 -492 q 309 -461 423 -492 q 129 -374 196 -430 q 83 -311 99 -348 q 67 -230 67 -275 q 73 -180 67 -206 q 181 -33 107 -100 q 337 70 244 22 q 507 142 406 105 q 547 151 526 148 q 586 155 568 155 q 642 146 618 155 q 656 133 653 141 q 659 119 659 125 q 657 107 659 114 q 654 94 656 100 q 484 29 627 81 q 307 -50 369 -12 q 177 -184 217 -106 q 172 -220 172 -205 q 221 -311 172 -271 q 335 -366 261 -342 q 450 -394 394 -385 q 562 -404 506 -404 q 777 -368 668 -404 q 902 -310 843 -347 q 1011 -221 961 -273 q 954 -181 1005 -195 q 775 -164 895 -164 q 738 -164 754 -164 q 708 -165 721 -164 q 691 -130 691 -149 q 715 -79 691 -106 q 756 -45 734 -57 q 883 30 820 -6 q 992 81 946 68 q 1142 99 1052 99 l 1142 0 "},"√":{"x_min":41,"x_max":885,"ha":885,"o":"m 756 1126 l 885 1126 l 885 1061 l 806 1061 l 403 -28 l 359 -28 l 142 570 l 57 540 l 41 594 l 233 661 l 406 180 l 756 1126 "},"S":{"x_min":117,"x_max":850,"ha":952,"o":"m 129 49 l 129 280 l 207 279 q 273 108 210 163 q 466 53 337 53 q 650 100 587 53 q 714 240 714 148 q 675 352 714 313 q 514 429 637 392 l 380 469 q 176 579 235 513 q 117 759 117 645 q 208 959 117 888 q 465 1031 300 1031 q 620 1015 535 1031 q 799 971 704 1000 l 799 755 l 722 755 q 650 910 710 862 q 467 958 590 958 q 304 914 360 958 q 249 787 249 870 q 291 673 249 714 q 469 591 333 631 l 594 554 q 791 448 732 512 q 850 276 850 384 q 755 54 850 129 q 474 -20 661 -20 q 305 -2 391 -20 q 129 49 218 14 "},"ص":{"x_min":68,"x_max":1541.640625,"ha":1609,"o":"m 1499 316 q 1227 71 1415 159 q 866 -8 1058 -8 q 857 -53 862 -19 q 826 -123 849 -105 q 821 -124 825 -124 q 815 -124 817 -124 q 789 -119 802 -124 q 773 -104 777 -115 q 763 -71 765 -88 q 761 -32 761 -54 q 761 -13 761 -22 q 761 4 761 -4 q 760 28 761 19 q 753 46 758 38 q 708 80 730 63 q 667 114 685 97 l 672 40 q 647 -65 660 -24 q 600 -165 628 -124 q 514 -241 566 -214 q 448 -267 485 -258 q 376 -276 411 -276 q 239 -245 302 -276 q 104 -78 147 -185 q 68 139 68 12 q 76 263 68 200 q 98 393 84 326 q 127 470 121 461 q 167 498 142 493 q 199 490 183 494 q 217 466 214 484 q 190 335 214 442 q 173 201 173 256 q 196 5 173 82 q 298 -148 225 -93 q 377 -162 337 -162 q 512 -117 455 -162 q 548 -31 537 -76 q 559 61 559 13 q 546 183 559 116 q 515 309 541 204 q 487 440 495 392 q 514 464 495 454 q 554 474 533 474 q 588 462 575 474 q 612 415 605 448 q 626 351 619 381 l 634 314 q 702 229 664 269 q 785 155 745 182 q 866 388 814 280 q 1005 595 925 512 q 1210 729 1096 690 q 1279 744 1243 744 q 1393 713 1333 744 q 1487 645 1443 687 q 1527 567 1513 611 q 1541 474 1541 522 q 1499 316 1541 385 m 1439 425 q 1441 468 1439 441 q 1443 501 1443 496 q 1437 552 1443 533 q 1412 593 1430 577 q 1358 626 1387 615 q 1298 638 1329 638 q 1157 592 1233 638 q 1037 496 1093 554 q 955 355 990 434 q 902 195 921 275 q 898 153 900 189 q 885 105 895 118 q 888 101 884 102 q 906 100 892 100 q 957 103 921 100 q 1005 106 994 106 q 1013 105 1011 105 q 1275 207 1165 134 q 1439 425 1409 295 "},"/":{"x_min":0,"x_max":468,"ha":468,"o":"m 359 1013 l 468 1013 l 108 -128 l 0 -128 l 359 1013 "},"ﻚ":{"x_min":67.8125,"x_max":1270,"ha":1269,"o":"m 1270 0 q 1211 12 1240 0 q 1153 46 1182 24 l 1134 9 q 978 -156 1081 -95 q 762 -230 889 -209 q 530 -247 666 -247 q 277 -180 393 -247 q 91 8 158 -112 q 67 109 67 53 q 84 200 67 156 q 130 279 100 244 q 240 363 173 334 q 380 392 307 392 q 503 371 444 392 q 514 373 511 373 q 576 350 529 373 q 613 339 599 339 q 638 347 627 339 q 661 371 650 354 q 760 392 703 392 q 918 352 847 392 q 928 324 928 337 q 912 294 928 306 q 876 282 897 282 q 861 284 868 282 q 770 314 822 314 q 659 279 713 314 q 650 266 650 276 q 650 247 650 256 q 752 221 665 228 q 838 163 838 213 q 834 133 838 150 q 789 60 807 82 q 717 11 758 23 q 654 3 689 3 q 517 36 579 3 q 434 135 447 72 q 451 150 446 145 q 480 160 465 160 q 503 156 489 160 q 564 97 522 120 q 650 74 605 74 q 694 81 673 74 q 730 103 714 89 q 741 122 731 112 q 750 140 750 132 q 749 148 750 143 q 736 156 744 156 q 721 152 731 156 q 706 148 711 148 q 635 167 659 157 q 571 212 596 183 q 562 238 566 218 q 535 272 556 269 q 452 291 463 289 q 362 300 402 300 q 270 285 308 300 q 195 223 225 266 q 174 178 181 200 q 168 133 168 155 q 220 7 168 69 q 341 -89 265 -45 q 475 -147 410 -128 q 609 -166 541 -166 q 757 -150 675 -166 q 898 -106 840 -134 q 1014 -22 967 -74 q 1062 62 1047 17 q 1077 158 1077 107 q 1035 345 1077 242 q 943 526 1003 424 q 847 683 895 604 q 845 692 845 690 q 865 720 845 709 q 898 740 896 737 q 904 741 901 741 q 908 741 906 741 q 952 699 940 741 q 982 635 967 646 q 1027 551 1006 591 q 1070 466 1043 521 q 1112 379 1095 415 q 1157 269 1140 329 q 1175 149 1175 208 q 1209 109 1177 122 q 1270 99 1235 99 l 1270 0 "},"ﻠ":{"x_min":0,"x_max":488.328125,"ha":488,"o":"m 488 0 q 361 25 399 0 q 290 118 333 44 q 177 21 231 49 q 62 -4 127 -4 q 0 0 33 -4 l 0 98 q 151 128 82 98 q 239 215 228 162 q 179 450 223 310 q 94 705 162 506 q 20 936 38 867 q 46 979 20 965 q 66 985 59 983 q 81 988 72 988 q 106 973 98 988 q 168 781 131 910 q 233 549 200 665 q 308 335 274 414 q 377 177 342 257 q 488 98 422 98 l 488 0 "},"ﺖ":{"x_min":67.828125,"x_max":1481.234375,"ha":1481,"o":"m 876 582 q 883 552 883 569 q 851 497 883 515 q 821 490 838 490 q 790 498 804 490 q 767 521 775 506 q 758 552 758 536 q 791 607 758 588 q 819 614 804 614 q 852 605 836 614 q 876 582 868 596 m 722 582 q 729 552 729 569 q 698 497 729 515 q 668 490 685 490 q 636 498 651 490 q 614 521 622 506 q 605 552 605 536 q 638 607 605 588 q 666 614 651 614 q 699 605 683 614 q 722 582 714 596 m 1481 0 q 1377 36 1430 0 q 1300 111 1336 64 q 1199 10 1269 58 q 1060 -65 1142 -29 q 935 -114 1000 -93 q 680 -171 843 -142 q 430 -201 518 -201 q 288 -176 364 -201 q 144 -101 200 -148 q 67 27 76 -45 q 187 226 67 147 q 446 322 283 290 q 697 347 572 347 q 719 304 719 323 q 704 276 719 289 q 668 254 692 266 q 514 249 575 254 q 358 219 424 240 q 217 145 278 193 q 180 102 192 117 q 157 47 157 74 q 180 -3 157 18 q 265 -51 189 -11 q 366 -77 311 -69 q 483 -86 421 -86 q 786 -45 622 -86 q 1050 42 925 -11 q 1157 100 1106 62 q 1224 200 1224 151 q 1216 231 1224 217 q 1177 274 1197 252 q 1152 332 1152 305 q 1154 347 1152 342 q 1205 373 1180 373 q 1222 369 1214 373 q 1239 360 1231 366 q 1281 304 1262 344 q 1308 233 1296 273 q 1387 138 1342 174 q 1481 98 1436 98 l 1481 0 "},"٩":{"x_min":56.96875,"x_max":594.796875,"ha":653,"o":"m 594 -1 q 580 -21 585 -14 q 551 -41 563 -41 q 517 -21 540 -41 q 496 -1 510 -14 l 383 639 l 153 639 l 177 505 l 325 505 q 347 489 340 495 q 373 459 370 471 q 359 425 375 446 q 343 407 354 419 l 183 407 q 120 426 145 407 q 79 505 88 451 l 59 623 q 56 647 56 636 q 82 709 56 687 q 147 731 108 731 l 370 731 q 442 705 409 731 q 482 636 474 680 l 594 -1 "},"y":{"x_min":-4,"x_max":781,"ha":785,"o":"m 300 -132 l 347 -12 l 78 648 l -4 648 l -4 721 l 328 721 l 328 648 l 212 648 l 415 152 l 618 648 l 510 648 l 510 721 l 781 721 l 781 648 l 700 648 l 370 -162 q 294 -278 336 -247 q 178 -309 253 -309 q 112 -303 146 -309 q 45 -288 78 -298 l 45 -150 l 109 -150 q 132 -216 113 -196 q 192 -236 151 -236 q 252 -215 229 -236 q 300 -132 275 -194 "},"≈":{"x_min":147,"x_max":1016,"ha":1164,"o":"m 1016 415 l 1016 316 q 887 226 948 255 q 763 198 826 198 q 588 240 700 198 q 572 247 578 244 q 551 255 565 249 q 386 294 451 294 q 265 269 324 294 q 147 192 207 244 l 147 292 q 276 381 215 353 q 399 409 336 409 q 582 364 464 409 l 589 361 q 610 353 597 359 q 774 315 708 315 q 896 339 837 315 q 1016 415 956 364 m 1016 678 l 1016 579 q 888 491 949 519 q 763 463 826 463 q 580 507 698 463 l 573 510 q 550 518 565 513 q 386 557 451 557 q 265 532 324 557 q 147 456 207 507 l 147 555 q 276 644 215 616 q 399 672 336 672 q 582 628 464 672 l 589 625 q 610 616 597 622 q 774 578 708 578 q 896 602 837 578 q 1016 678 956 627 "},"ر":{"x_min":69.03125,"x_max":752.828125,"ha":821,"o":"m 746 118 q 674 105 710 118 q 596 59 631 90 q 545 -47 562 9 q 528 -138 532 -90 q 524 -245 524 -186 q 487 -342 524 -288 q 398 -442 456 -388 q 295 -528 351 -487 q 216 -569 264 -551 q 118 -606 168 -587 q 106 -608 113 -608 q 79 -600 91 -608 q 69 -583 67 -592 q 128 -531 73 -561 q 183 -500 183 -501 q 352 -378 287 -439 q 436 -243 430 -305 q 444 -120 440 -185 q 465 0 448 -55 q 539 141 489 73 q 588 181 556 163 q 668 203 627 203 q 731 190 699 203 q 747 170 742 181 q 752 148 752 159 q 750 131 752 139 q 746 118 748 122 "},"g":{"x_min":69,"x_max":848,"ha":889,"o":"m 729 648 l 729 15 q 643 -224 729 -140 q 400 -309 558 -309 q 263 -296 328 -309 q 139 -257 198 -283 l 139 -106 l 204 -106 q 261 -209 216 -176 q 391 -242 307 -242 q 552 -179 501 -242 q 604 15 604 -117 l 604 112 q 510 12 567 44 q 370 -20 454 -20 q 153 85 237 -20 q 69 360 69 191 q 153 635 69 530 q 370 741 237 741 q 510 708 454 741 q 604 607 567 676 l 604 721 l 848 721 l 848 648 l 729 648 m 604 395 q 554 594 604 525 q 409 663 504 663 q 264 586 313 663 q 215 360 215 510 q 264 134 215 211 q 409 58 313 58 q 554 126 504 58 q 604 324 604 194 l 604 395 "},"²":{"x_min":61,"x_max":469,"ha":557,"o":"m 115 879 l 68 879 l 68 986 q 160 1019 112 1008 q 254 1031 207 1031 q 406 986 348 1031 q 464 870 464 941 q 332 670 464 788 l 319 658 l 157 513 l 419 513 l 419 586 l 469 586 l 469 453 l 61 453 l 61 504 l 254 676 q 337 769 312 728 q 363 856 363 811 q 330 947 363 913 q 240 981 297 981 q 155 955 187 981 q 115 879 123 929 "},"٣":{"x_min":65.109375,"x_max":613.796875,"ha":688,"o":"m 612 542 q 613 525 613 535 q 589 476 613 493 q 531 462 568 462 l 210 462 l 293 1 q 278 -23 284 -14 q 248 -47 261 -47 q 215 -23 237 -47 q 194 1 208 -14 l 65 732 q 74 753 70 746 q 104 773 87 773 q 143 753 120 773 q 163 732 151 746 l 188 588 q 206 569 199 575 q 250 549 229 549 q 288 568 272 549 q 299 588 293 574 l 274 732 q 284 754 280 746 q 313 775 298 775 q 356 754 335 775 q 373 732 362 747 l 398 588 q 413 569 406 575 q 461 549 434 549 q 497 568 484 549 q 505 588 501 574 l 480 732 q 489 753 485 746 q 516 773 500 773 q 560 753 537 773 q 579 732 568 746 l 612 542 "},"–":{"x_min":0,"x_max":695,"ha":695,"o":"m 0 414 l 695 414 l 695 324 l 0 324 l 0 414 "},"ë":{"x_min":69,"x_max":753,"ha":822,"o":"m 753 348 l 215 348 l 215 342 q 270 121 215 196 q 432 47 325 47 q 567 90 514 47 q 641 218 619 133 l 741 218 q 630 39 711 99 q 419 -20 550 -20 q 165 84 261 -20 q 69 360 69 188 q 163 636 69 531 q 411 741 257 741 q 662 640 574 741 q 753 348 749 539 m 606 420 q 552 609 601 545 q 411 674 503 674 q 275 609 324 674 q 215 420 225 545 l 606 420 m 278 1064 q 334 1040 311 1064 q 358 984 358 1017 q 335 927 358 949 q 278 905 313 905 q 222 927 244 905 q 200 984 200 949 q 223 1040 200 1017 q 278 1064 246 1064 m 543 1064 q 598 1040 575 1064 q 622 984 622 1017 q 599 927 622 949 q 543 905 577 905 q 486 927 508 905 q 464 984 464 949 q 487 1040 464 1017 q 543 1064 510 1064 "},"ƒ":{"x_min":24,"x_max":845,"ha":884,"o":"m 418 769 q 501 963 433 895 q 682 1031 570 1031 q 757 1023 717 1031 q 845 1000 797 1015 l 845 849 l 779 849 q 749 935 774 907 q 674 964 723 964 q 590 916 620 964 q 546 753 560 869 l 522 557 l 730 557 l 730 485 l 513 485 l 450 -31 q 366 -225 435 -157 q 184 -293 297 -293 q 111 -285 150 -293 q 24 -262 72 -277 l 24 -112 l 90 -112 q 119 -198 94 -170 q 193 -227 144 -227 q 277 -179 247 -227 q 321 -16 306 -131 l 383 485 l 212 485 l 212 557 l 392 557 l 418 769 "},"ﺕ":{"x_min":67.828125,"x_max":1311,"ha":1379,"o":"m 876 582 q 883 552 883 569 q 851 497 883 515 q 821 490 838 490 q 790 498 804 490 q 767 521 775 506 q 758 552 758 536 q 791 607 758 588 q 819 614 804 614 q 852 605 836 614 q 876 582 868 596 m 722 582 q 729 552 729 569 q 698 497 729 515 q 668 490 685 490 q 636 498 651 490 q 614 521 622 506 q 605 552 605 536 q 638 607 605 588 q 666 614 651 614 q 699 605 683 614 q 722 582 714 596 m 1308 233 q 1311 203 1311 216 q 1286 115 1311 161 q 1130 -24 1252 47 q 935 -114 1032 -82 q 680 -171 843 -142 q 430 -201 518 -201 q 288 -176 364 -201 q 144 -101 200 -148 q 67 27 76 -45 q 187 226 67 147 q 446 322 283 290 q 697 347 572 347 q 719 304 719 323 q 704 276 719 289 q 668 254 692 266 q 514 249 575 254 q 358 219 424 240 q 217 145 278 193 q 180 102 192 117 q 157 47 157 74 q 180 -3 157 18 q 265 -51 189 -11 q 366 -77 311 -69 q 483 -86 421 -86 q 786 -45 622 -86 q 1050 42 925 -11 q 1155 104 1123 81 q 1224 201 1224 155 q 1216 231 1224 217 q 1176 272 1196 252 q 1150 328 1150 302 q 1154 347 1150 337 q 1205 373 1180 373 q 1222 369 1214 373 q 1239 360 1231 366 q 1284 308 1266 341 q 1308 233 1303 275 "},"J":{"x_min":-116,"x_max":494,"ha":557,"o":"m -116 -243 l -116 -84 l -39 -84 q -7 -183 -36 -150 q 82 -216 22 -216 q 195 -165 163 -216 q 227 32 227 -114 l 227 940 l 70 940 l 70 1013 l 494 1013 l 494 940 l 365 940 l 365 27 q 297 -214 365 -140 q 81 -289 230 -289 q -16 -277 33 -289 q -116 -243 -66 -266 "},"Ã":{"x_min":-8,"x_max":1017,"ha":1003,"o":"m 278 367 l 649 367 l 464 848 l 278 367 m -8 0 l -8 72 l 80 72 l 441 1013 l 555 1013 l 917 72 l 1017 72 l 1017 0 l 648 0 l 648 72 l 761 72 l 676 294 l 250 294 l 165 72 l 276 72 l 276 0 l -8 0 m 492 1162 l 459 1181 q 431 1195 445 1190 q 406 1200 418 1200 q 362 1180 380 1200 q 342 1130 344 1161 l 277 1130 q 312 1238 278 1198 q 405 1279 347 1279 q 450 1272 429 1279 q 508 1245 471 1266 l 542 1227 q 572 1213 557 1218 q 599 1209 587 1209 q 643 1227 627 1209 q 659 1279 659 1246 l 725 1279 q 688 1168 723 1207 q 589 1130 653 1130 q 495 1160 544 1130 l 492 1162 "},"ﻹ":{"x_min":67.828125,"x_max":681,"ha":749,"o":"m 679 264 q 679 219 679 240 q 681 177 680 198 q 668 78 681 124 q 606 -77 652 16 q 624 -137 617 -105 q 630 -202 630 -169 q 625 -256 630 -231 q 606 -301 619 -281 q 524 -349 574 -334 q 427 -361 483 -361 q 362 -358 397 -361 q 279 -335 306 -344 q 211 -289 230 -320 q 209 -279 209 -283 q 222 -257 209 -267 q 245 -244 228 -253 q 254 -245 250 -245 q 264 -245 259 -245 q 396 -194 333 -245 q 490 -84 444 -155 q 435 23 468 -37 q 377 132 406 78 q 321 243 344 195 q 240 413 271 343 q 169 589 196 512 q 117 773 136 682 q 142 792 121 787 q 175 800 172 798 q 209 762 202 800 q 218 729 213 736 q 320 482 262 613 q 433 243 368 373 q 555 8 489 131 q 582 101 574 51 q 591 198 591 150 q 578 337 591 261 q 553 476 576 352 q 532 615 536 565 q 525 654 527 635 q 523 692 523 672 q 538 710 523 703 q 574 718 554 718 q 590 716 582 718 l 607 688 q 635 544 621 616 q 660 407 654 445 q 679 264 671 339 m 420 -510 q 424 -522 424 -513 q 421 -543 424 -532 q 412 -559 417 -555 q 402 -572 406 -568 q 383 -586 394 -583 q 233 -622 305 -611 q 121 -631 174 -631 q 85 -630 95 -631 q 67 -628 72 -628 l 84 -601 q 92 -601 86 -601 q 149 -590 113 -601 q 202 -572 170 -584 q 147 -551 164 -563 q 114 -500 125 -536 q 113 -489 113 -497 q 127 -444 113 -466 q 162 -402 140 -421 q 209 -372 184 -383 q 259 -361 235 -361 q 324 -386 297 -361 q 357 -426 344 -405 q 369 -467 369 -447 q 354 -500 369 -488 q 325 -517 339 -512 q 297 -521 311 -521 q 242 -502 269 -521 q 221 -483 233 -496 q 231 -472 227 -476 q 243 -466 238 -466 q 250 -468 246 -466 q 268 -489 259 -483 q 285 -496 277 -496 q 304 -486 297 -496 q 308 -466 311 -476 q 291 -440 303 -448 q 262 -431 280 -431 q 254 -432 257 -432 q 217 -446 233 -434 q 200 -469 201 -458 q 198 -487 198 -479 q 210 -521 198 -508 q 255 -538 223 -533 q 284 -540 269 -540 q 311 -537 297 -540 q 342 -531 326 -534 q 383 -521 358 -529 q 420 -510 408 -512 m 548 -248 l 548 -238 q 548 -215 548 -226 q 540 -179 547 -194 q 514 -200 529 -189 q 468 -232 491 -216 q 407 -280 438 -256 q 484 -273 449 -280 q 548 -248 518 -265 "},"©":{"x_min":192,"x_max":1199,"ha":1389,"o":"m 935 389 q 855 251 916 299 q 696 204 793 204 q 493 285 569 204 q 418 502 418 367 q 494 721 418 639 q 696 804 571 804 q 804 791 751 804 q 916 752 856 778 l 916 608 l 859 608 q 808 716 847 681 q 698 751 769 751 q 576 688 617 751 q 535 502 535 626 q 575 318 535 379 q 696 257 616 257 q 801 289 762 257 q 854 389 839 321 l 935 389 m 695 1007 q 888 969 798 1007 q 1051 858 977 932 q 1162 695 1125 784 q 1199 502 1199 606 q 1162 310 1199 399 q 1051 148 1125 222 q 888 37 977 74 q 695 0 798 0 q 502 37 592 0 q 339 148 413 74 q 228 310 265 222 q 192 502 192 399 q 228 695 192 606 q 339 858 265 784 q 502 969 413 932 q 695 1007 592 1007 m 695 938 q 529 906 606 938 q 388 810 452 874 q 293 669 325 747 q 261 502 261 591 q 293 337 261 414 q 388 197 325 261 q 529 101 452 133 q 695 69 606 69 q 862 101 785 69 q 1003 197 939 133 q 1098 337 1066 260 q 1130 502 1130 413 q 1098 670 1130 593 q 1003 810 1066 747 q 862 906 939 874 q 695 938 785 938 "},"َ":{"x_min":27.125,"x_max":354.703125,"ha":387,"o":"m 354 1272 q 353 1262 354 1264 l 337 1248 l 320 1230 q 313 1220 316 1226 q 303 1205 309 1215 q 288 1193 297 1193 q 274 1196 283 1193 l 246 1200 l 48 1200 q 27 1209 27 1200 q 28 1219 27 1217 l 44 1231 l 78 1276 q 93 1289 85 1289 q 107 1286 98 1289 q 120 1283 111 1284 q 135 1283 128 1283 l 333 1283 q 354 1272 354 1283 "},"˘":{"x_min":135,"x_max":560,"ha":695,"o":"m 135 1091 l 200 1091 q 244 1013 208 1037 q 347 989 279 989 q 450 1013 415 989 q 495 1091 486 1037 l 560 1091 q 499 944 553 993 q 347 896 445 896 q 195 944 249 896 q 135 1091 141 993 "},"≥":{"x_min":147,"x_max":1016,"ha":1164,"o":"m 1016 106 l 1016 0 l 147 0 l 147 106 l 1016 106 m 147 695 l 147 808 l 1016 559 l 1016 443 l 147 194 l 147 306 l 862 500 l 147 695 "},"D":{"x_min":77,"x_max":1034,"ha":1114,"o":"m 344 72 l 470 72 q 772 184 667 72 q 878 507 878 297 q 772 828 878 717 q 470 940 667 940 l 344 940 l 344 72 m 77 0 l 77 72 l 206 72 l 206 940 l 77 940 l 77 1013 l 480 1013 q 887 879 741 1013 q 1034 507 1034 745 q 887 134 1034 268 q 480 0 741 0 l 77 0 "},"ÿ":{"x_min":-4,"x_max":781,"ha":785,"o":"m 300 -132 l 347 -12 l 78 648 l -4 648 l -4 721 l 328 721 l 328 648 l 212 648 l 415 152 l 618 648 l 510 648 l 510 721 l 781 721 l 781 648 l 700 648 l 370 -162 q 294 -278 336 -247 q 178 -309 253 -309 q 112 -303 146 -309 q 45 -288 78 -298 l 45 -150 l 109 -150 q 132 -216 113 -196 q 192 -236 151 -236 q 252 -215 229 -236 q 300 -132 275 -194 m 260 1064 q 316 1040 293 1064 q 340 984 340 1017 q 317 927 340 949 q 260 905 295 905 q 204 927 226 905 q 182 984 182 949 q 205 1040 182 1017 q 260 1064 228 1064 m 525 1064 q 580 1040 557 1064 q 604 984 604 1017 q 581 927 604 949 q 525 905 559 905 q 468 927 490 905 q 446 984 446 949 q 469 1040 446 1017 q 525 1064 492 1064 "},"ł":{"x_min":30.21875,"x_max":430.03125,"ha":450,"o":"m 290 72 l 409 72 l 409 0 l 47 0 l 47 72 l 165 72 l 165 461 l 71 396 l 30 454 l 165 549 l 165 983 l 47 983 l 47 1055 l 290 1055 l 290 637 l 389 703 l 430 645 l 290 549 l 290 72 "},"ﻓ":{"x_min":-0.875,"x_max":498,"ha":566,"o":"m 380 971 q 387 942 387 958 q 355 887 387 904 q 325 879 342 879 q 294 887 308 879 q 271 911 279 895 q 265 935 265 923 q 276 969 265 952 q 305 997 287 986 q 331 1004 317 1004 q 358 995 346 1004 q 380 971 371 987 m 498 434 q 462 258 498 341 q 359 112 426 174 q 187 28 259 52 q 0 0 102 0 l 0 98 q 154 116 81 98 q 290 181 241 138 q 223 317 248 236 q 199 472 199 397 q 201 514 199 493 q 237 656 201 592 q 341 729 279 729 q 395 715 367 729 q 474 585 447 664 q 498 434 498 516 m 390 518 q 365 577 379 549 q 333 629 351 606 q 301 577 316 603 q 284 522 284 546 q 283 510 283 516 q 283 495 283 504 q 304 363 283 433 q 359 251 325 294 q 390 337 378 290 q 402 429 402 383 q 390 518 402 473 "},"ه":{"x_min":68,"x_max":538,"ha":606,"o":"m 391 440 q 339 458 365 458 q 268 425 304 458 q 208 345 236 396 q 174 265 187 307 q 161 187 161 223 q 175 125 161 149 q 224 92 190 101 q 235 90 228 91 q 247 90 242 90 q 327 130 289 90 q 388 213 341 146 q 423 282 410 246 q 437 350 437 318 q 426 402 437 379 q 391 440 415 424 m 161 14 q 91 73 114 32 q 68 168 68 113 q 79 253 68 209 q 113 346 91 298 q 212 487 154 435 q 347 546 276 546 q 413 537 384 546 q 463 510 442 529 q 518 434 499 476 q 538 345 538 392 q 530 285 538 315 q 429 104 503 190 q 234 -1 337 -1 q 161 14 199 -1 "},"Ł":{"x_min":58.03125,"x_max":896,"ha":929,"o":"m 83 0 l 83 72 l 212 72 l 212 397 l 105 320 l 58 383 l 212 493 l 212 940 l 83 940 l 83 1013 l 478 1013 l 478 940 l 348 940 l 348 590 l 556 743 l 604 680 l 348 494 l 348 83 l 813 83 l 813 253 l 896 253 l 896 0 l 83 0 "},"ﺾ":{"x_min":68,"x_max":1565,"ha":1565,"o":"m 712 707 q 718 677 718 694 q 687 622 718 640 q 657 615 674 615 q 626 623 640 615 q 603 646 611 631 q 594 677 594 661 q 627 732 594 713 q 655 739 640 739 q 688 730 672 739 q 712 707 704 721 m 1565 0 q 1443 53 1505 0 q 1368 144 1392 96 l 1360 161 q 1117 43 1261 84 q 853 7 989 7 q 847 -51 851 0 q 822 -117 844 -101 q 810 -119 818 -119 q 785 -115 797 -119 q 769 -99 773 -110 q 759 -64 762 -83 q 757 -25 757 -46 l 757 2 q 755 35 757 25 q 749 51 754 44 q 706 85 748 52 q 665 118 676 108 q 667 81 665 98 q 670 46 668 64 q 644 -59 657 -20 q 596 -160 624 -119 q 510 -237 561 -210 q 444 -263 481 -254 q 373 -272 407 -272 q 236 -240 298 -272 q 103 -79 145 -180 q 68 130 68 9 q 77 261 68 195 q 100 388 83 314 q 119 456 109 422 q 165 502 134 496 q 196 495 180 498 q 213 472 210 489 q 170 205 191 338 q 192 11 170 86 q 293 -144 221 -88 q 370 -157 329 -157 q 507 -113 449 -157 q 543 -26 532 -72 q 555 67 555 20 q 541 189 555 120 q 512 311 534 222 q 482 446 490 399 q 511 469 492 460 q 550 479 530 479 q 585 467 572 479 q 610 418 602 453 q 621 357 615 387 l 629 319 q 692 202 645 245 q 779 142 704 190 q 859 380 807 269 q 999 596 919 509 q 1206 735 1091 696 q 1275 749 1237 749 q 1390 718 1329 749 q 1484 650 1441 692 q 1524 572 1511 616 q 1538 480 1538 529 q 1527 396 1538 437 q 1495 322 1516 355 q 1464 271 1482 296 q 1424 221 1446 245 q 1486 132 1455 162 q 1565 96 1523 96 l 1565 0 m 1436 430 q 1436 470 1436 454 q 1438 500 1437 486 q 1431 560 1438 535 q 1404 601 1424 584 q 1351 634 1380 624 q 1292 645 1323 645 q 1152 599 1227 645 q 1034 501 1091 563 q 951 356 987 438 q 898 198 917 281 q 892 165 895 185 q 881 110 883 117 q 889 105 881 106 q 909 104 896 104 q 959 106 931 104 q 1010 110 988 108 q 1187 165 1105 128 q 1344 270 1284 209 q 1436 430 1414 340 "},"$":{"x_min":118,"x_max":768,"ha":884,"o":"m 468 46 q 584 90 544 52 q 625 191 625 127 q 585 291 625 250 q 468 352 545 331 l 468 46 m 400 805 q 291 764 330 800 q 253 669 253 729 q 288 579 253 615 q 400 521 324 543 l 400 805 m 119 49 l 119 236 l 192 236 q 246 95 194 143 q 400 46 298 48 l 400 375 q 181 475 244 418 q 118 625 118 532 q 192 800 118 734 q 400 874 267 865 l 400 1056 l 468 1056 l 468 874 q 599 852 536 868 q 723 808 662 835 l 723 630 l 649 630 q 594 753 640 708 q 468 805 547 798 l 468 498 q 701 394 634 453 q 768 237 768 336 q 689 57 768 124 q 468 -21 610 -10 l 468 -204 l 400 -204 l 400 -21 q 264 -2 334 -19 q 119 49 195 15 "},"w":{"x_min":22,"x_max":1170,"ha":1189,"o":"m 666 721 l 850 157 l 1013 648 l 908 648 l 908 721 l 1170 721 l 1170 648 l 1089 648 l 875 0 l 771 0 l 594 538 l 415 0 l 316 0 l 102 648 l 22 648 l 22 721 l 348 721 l 348 648 l 231 648 l 392 157 l 578 721 l 666 721 "},"∫":{"x_min":32,"x_max":690,"ha":724,"o":"m 210 -178 q 291 288 282 -178 q 294 400 293 361 q 366 900 302 749 q 567 1051 430 1051 q 656 1022 622 1051 q 690 950 690 994 q 668 892 690 913 q 609 871 646 871 q 561 883 580 871 q 534 920 542 896 q 527 954 530 930 q 513 979 524 979 q 431 559 440 979 q 426 353 428 428 q 350 -111 414 28 q 153 -252 286 -252 q 66 -223 100 -252 q 32 -151 32 -195 q 55 -92 32 -113 q 119 -71 78 -71 q 157 -80 141 -71 q 184 -109 174 -90 q 194 -149 191 -121 q 210 -178 197 -178 "},"\\":{"x_min":0,"x_max":468,"ha":468,"o":"m 108 1013 l 468 -128 l 359 -128 l 0 1013 l 108 1013 "},"Ì":{"x_min":77,"x_max":473,"ha":549,"o":"m 344 72 l 473 72 l 473 0 l 77 0 l 77 72 l 206 72 l 206 940 l 77 940 l 77 1013 l 473 1013 l 473 940 l 344 940 l 344 72 m 228 1288 l 353 1109 l 273 1109 l 96 1288 l 228 1288 "},"Ç":{"x_min":78,"x_max":979,"ha":1063,"o":"m 979 268 q 828 53 934 126 q 562 -20 723 -20 q 378 13 463 -20 q 227 113 293 47 q 114 286 151 189 q 78 505 78 383 q 214 886 78 741 q 573 1031 350 1031 q 749 1009 656 1031 q 951 943 843 987 l 951 710 l 874 710 q 773 897 848 837 q 561 958 697 958 q 316 843 399 958 q 233 505 233 728 q 316 167 233 282 q 561 53 399 53 q 748 106 675 53 q 854 268 821 160 l 979 268 m 617 0 q 681 -81 660 -43 q 703 -152 703 -119 q 660 -237 703 -207 q 541 -268 617 -268 q 483 -263 512 -268 q 422 -251 453 -259 l 422 -163 q 476 -180 449 -174 q 527 -186 503 -186 q 588 -168 566 -186 q 611 -119 611 -150 q 596 -70 611 -100 q 551 0 581 -40 l 617 0 "},"ﻀ":{"x_min":0,"x_max":1311,"ha":1311,"o":"m 441 761 q 448 731 448 748 q 417 676 448 694 q 386 669 404 669 q 355 677 369 669 q 332 700 341 685 q 324 731 324 715 q 356 786 324 767 q 385 793 369 793 q 417 784 402 793 q 441 761 433 775 m 1311 0 q 1187 52 1249 0 q 1112 144 1138 94 q 1108 153 1109 149 q 1104 159 1106 156 q 868 37 1003 80 q 608 -3 739 -3 q 599 -49 603 -16 q 567 -119 592 -100 q 557 -121 565 -121 q 533 -116 545 -121 q 516 -102 520 -111 q 506 -65 508 -85 q 503 -20 503 -45 l 503 0 q 503 21 503 10 q 495 49 502 39 l 411 116 q 354 172 377 142 q 270 59 345 117 q 79 -10 182 -10 q 39 -8 56 -10 q 0 0 21 -5 l 0 94 q 39 88 17 90 q 75 86 60 86 q 211 122 154 86 q 266 190 261 153 q 267 203 267 197 q 267 219 267 210 q 261 289 267 250 q 245 362 259 299 q 238 403 243 375 q 230 444 232 430 q 257 469 239 459 q 296 478 276 478 q 331 465 317 478 q 358 399 346 452 q 377 317 372 330 q 438 229 398 272 q 529 159 481 182 q 609 393 558 286 q 747 600 668 517 q 954 733 838 694 q 989 745 970 741 q 1026 749 1008 749 q 1134 721 1078 749 q 1224 657 1184 697 q 1267 573 1252 621 q 1281 475 1281 526 q 1241 320 1281 386 q 1209 269 1227 294 q 1167 219 1190 244 q 1230 130 1199 161 q 1311 94 1268 94 l 1311 0 m 1182 429 q 1183 465 1182 440 q 1184 504 1184 491 q 1179 556 1184 536 q 1154 597 1171 581 q 1100 631 1129 620 q 1040 641 1072 641 q 899 596 974 641 q 780 499 836 559 q 697 356 733 438 q 645 198 663 280 q 636 151 640 180 q 628 108 632 122 q 634 104 628 105 q 651 103 640 103 q 706 106 669 103 q 748 109 744 109 q 756 108 754 108 q 1018 210 908 137 q 1182 429 1150 298 "},"ﻷ":{"x_min":67.609375,"x_max":631,"ha":699,"o":"m 509 942 q 513 930 513 939 q 510 908 513 920 q 501 893 506 897 q 491 880 495 884 q 472 866 482 869 q 322 830 394 841 q 210 821 263 821 q 183 822 193 821 q 156 824 173 823 l 172 851 q 181 850 175 850 q 238 861 202 850 q 291 880 259 867 q 236 901 252 888 q 203 951 214 916 q 202 962 202 955 q 216 1008 202 985 q 251 1050 229 1031 q 298 1080 273 1069 q 348 1091 324 1091 q 413 1066 386 1091 q 445 1026 433 1047 q 458 985 458 1004 q 443 952 458 964 q 414 935 427 940 q 385 930 400 930 q 331 949 358 930 q 309 969 322 956 q 320 979 316 976 q 332 986 326 986 q 339 984 335 986 q 357 963 347 969 q 374 956 366 956 q 393 966 385 956 q 397 986 400 976 q 380 1012 392 1004 q 351 1021 368 1021 q 343 1020 345 1020 q 306 1005 322 1017 q 288 983 290 994 q 287 964 287 973 q 299 931 287 943 q 343 914 311 919 q 373 911 358 911 q 400 914 385 911 q 431 920 415 917 q 472 931 447 923 q 509 942 497 939 m 629 264 q 629 218 629 239 q 631 177 630 197 q 618 78 631 124 q 556 -78 602 15 q 574 -137 567 -105 q 580 -202 580 -169 q 575 -256 580 -231 q 556 -301 569 -281 q 474 -349 524 -334 q 377 -362 433 -362 q 312 -358 347 -362 q 229 -336 256 -344 q 161 -289 180 -320 q 159 -279 159 -283 q 172 -258 159 -267 q 195 -245 178 -253 q 204 -245 200 -245 q 214 -245 209 -245 q 346 -195 283 -245 q 440 -84 394 -156 q 385 23 418 -38 q 327 132 356 77 q 271 243 294 195 q 190 413 221 343 q 119 588 146 512 q 67 772 86 681 q 92 791 71 787 q 125 799 122 797 q 159 761 152 799 q 168 728 163 736 q 270 481 212 612 q 383 243 318 372 q 505 7 439 131 q 532 100 524 51 q 541 198 541 150 q 528 337 541 261 q 503 475 526 352 q 482 614 486 565 q 475 653 477 635 q 473 692 473 672 q 488 710 473 703 q 524 717 504 717 q 540 715 532 717 l 557 687 q 585 544 571 616 q 610 407 604 445 q 629 264 621 338 m 499 -248 l 499 -239 q 499 -215 499 -227 q 491 -180 497 -194 q 465 -200 479 -190 q 419 -233 442 -216 q 358 -280 388 -256 q 434 -273 400 -280 q 499 -248 469 -266 "},"C":{"x_min":78,"x_max":979,"ha":1063,"o":"m 979 268 q 828 53 934 126 q 562 -20 723 -20 q 378 13 463 -20 q 227 113 293 47 q 114 286 151 189 q 78 505 78 383 q 214 886 78 741 q 573 1031 350 1031 q 749 1009 656 1031 q 951 943 843 987 l 951 710 l 874 710 q 773 897 848 837 q 561 958 697 958 q 316 843 399 958 q 233 505 233 728 q 316 167 233 282 q 561 53 399 53 q 748 106 675 53 q 854 268 821 160 l 979 268 "},"ﺦ":{"x_min":67.828125,"x_max":1064.8125,"ha":1063,"o":"m 538 849 q 545 819 545 836 q 514 764 545 782 q 483 757 501 757 q 452 765 466 757 q 429 788 438 773 q 421 819 421 803 q 453 874 421 855 q 482 881 466 881 q 514 872 499 881 q 538 849 530 863 m 1063 0 q 961 30 1011 0 q 878 100 918 56 q 822 177 851 132 q 639 76 725 130 q 459 -57 537 12 q 296 -230 372 -133 q 171 -420 224 -322 q 178 -466 171 -445 q 201 -501 185 -488 q 299 -519 244 -519 q 480 -481 381 -519 q 656 -390 567 -447 q 795 -285 736 -339 q 811 -281 804 -282 q 826 -280 819 -280 q 850 -286 841 -280 q 864 -304 860 -291 q 865 -312 865 -306 q 860 -334 865 -321 q 855 -346 859 -338 q 548 -547 716 -480 q 417 -589 483 -572 q 263 -612 329 -612 q 174 -599 213 -612 q 110 -557 135 -586 q 78 -513 88 -540 q 67 -455 67 -486 q 71 -415 67 -435 q 159 -258 108 -336 q 288 -89 221 -163 q 394 7 336 -37 q 524 94 453 52 q 439 90 481 90 q 323 97 377 90 q 232 113 268 104 q 115 177 162 126 q 69 289 69 229 q 79 341 69 317 q 110 386 89 365 q 353 516 216 473 q 648 559 490 559 q 793 556 748 559 q 940 528 880 549 q 1045 455 1013 503 q 1064 408 1064 434 q 1014 313 1064 366 q 911 230 975 273 q 980 138 943 172 q 1063 98 1022 98 l 1063 0 m 940 407 q 806 460 903 449 q 652 469 729 464 q 474 448 534 458 q 309 401 376 431 q 185 305 230 365 q 179 282 179 293 q 216 223 179 254 q 282 179 235 207 q 307 170 293 173 q 333 167 321 167 q 432 203 368 167 q 531 240 495 240 q 542 240 537 240 q 558 237 547 240 q 572 224 569 232 q 576 202 576 215 q 575 188 576 195 q 574 173 575 180 q 576 161 574 167 q 715 226 602 176 q 863 302 815 269 q 940 407 934 352 "},"ﺷ":{"x_min":0,"x_max":1040.390625,"ha":1108,"o":"m 706 890 q 712 860 712 877 q 681 805 712 823 q 651 798 668 798 q 619 806 634 798 q 597 829 605 814 q 588 860 588 844 q 621 915 588 896 q 649 922 634 922 q 682 913 666 922 q 706 890 697 904 m 783 765 q 790 735 790 752 q 758 680 790 698 q 728 673 746 673 q 697 681 711 673 q 674 704 682 689 q 666 735 666 719 q 698 790 666 771 q 727 796 711 796 q 759 788 744 796 q 783 765 775 779 m 630 765 q 636 735 636 752 q 605 680 636 698 q 575 673 592 673 q 543 681 558 673 q 521 704 529 689 q 512 735 512 719 q 545 790 512 771 q 573 796 558 796 q 606 788 590 796 q 630 765 621 779 m 1027 292 q 1035 240 1031 266 q 1040 194 1040 214 q 1025 121 1040 158 q 980 37 999 59 q 896 0 948 0 q 805 20 832 0 q 763 67 779 49 q 715 13 739 30 q 665 -3 691 -3 q 623 5 645 -3 q 575 30 602 13 q 513 93 542 52 q 467 178 483 133 q 302 50 419 96 q 0 0 178 0 l 0 94 q 307 157 187 94 q 425 286 410 211 q 427 302 427 292 q 411 365 427 324 q 386 435 390 420 q 406 455 394 448 q 447 471 427 463 q 503 431 491 471 q 522 345 512 388 q 562 194 550 225 q 660 94 599 102 q 710 143 694 113 q 727 224 727 173 q 705 365 727 281 q 691 405 705 376 q 677 447 677 434 q 681 463 677 456 q 698 474 686 470 q 725 483 710 483 q 741 480 733 483 q 758 471 750 477 q 799 325 777 427 q 834 185 820 224 q 900 94 859 114 q 952 142 937 102 q 963 216 963 171 q 932 342 963 259 q 902 460 902 426 q 935 479 920 479 q 946 478 942 479 q 965 471 951 477 q 1001 390 992 412 q 1027 292 1020 340 "},"!":{"x_min":189,"x_max":369,"ha":558,"o":"m 189 70 q 214 134 189 108 q 279 161 240 161 q 342 134 316 161 q 369 70 369 108 q 342 6 369 32 q 279 -20 316 -20 q 214 6 240 -20 q 189 70 189 32 m 192 1013 l 366 1013 l 320 455 l 320 284 l 237 284 l 237 455 l 192 1013 "},"ç":{"x_min":69,"x_max":714,"ha":778,"o":"m 714 216 q 612 40 687 100 q 417 -20 536 -20 q 164 84 260 -20 q 69 360 69 188 q 164 637 69 533 q 417 741 260 741 q 553 725 485 741 q 690 677 621 709 l 690 493 l 617 493 q 555 630 602 587 q 418 674 507 674 q 266 595 317 674 q 215 360 215 517 q 266 125 215 204 q 419 47 317 47 q 548 89 500 47 q 614 216 596 131 l 714 216 m 460 0 q 524 -81 503 -43 q 546 -152 546 -119 q 503 -237 546 -207 q 384 -268 460 -268 q 326 -263 355 -268 q 265 -251 296 -259 l 265 -163 q 319 -180 292 -174 q 370 -186 346 -186 q 431 -168 409 -186 q 454 -119 454 -150 q 439 -70 454 -100 q 394 0 424 -40 l 460 0 "},"ﻋ":{"x_min":0,"x_max":910.171875,"ha":978,"o":"m 897 179 q 843 153 878 158 q 786 144 786 144 q 353 27 535 64 q 77 -4 193 -4 q 0 0 35 -4 l 0 98 q 106 90 42 90 q 205 96 156 90 q 288 115 254 102 q 126 183 182 140 q 27 334 59 235 q 26 349 27 343 q 26 358 26 355 q 67 476 26 421 q 168 562 103 523 q 292 615 225 595 q 426 635 360 635 q 560 611 498 635 q 632 562 596 586 q 686 502 671 533 q 706 464 699 484 q 712 421 712 443 q 707 379 712 400 q 694 335 702 357 q 613 265 668 290 q 514 242 565 242 q 503 242 508 242 q 491 244 495 244 q 446 255 461 251 q 406 276 420 261 q 369 313 382 299 q 323 383 330 355 q 345 404 331 389 q 385 429 368 429 q 405 423 394 429 q 457 351 434 373 q 518 324 484 324 q 585 344 548 324 q 609 376 601 356 q 617 435 617 396 l 617 451 q 552 520 598 494 q 458 551 512 544 q 271 516 352 551 q 140 398 177 476 q 139 376 139 391 q 168 292 139 330 q 234 231 190 263 q 321 194 271 208 q 419 175 361 183 q 487 168 459 168 q 591 181 523 168 q 662 191 637 189 q 880 251 771 221 q 901 231 893 244 q 910 206 910 219 q 897 179 910 191 "},"È":{"x_min":77,"x_max":903,"ha":1014,"o":"m 77 0 l 77 72 l 206 72 l 206 940 l 77 940 l 77 1013 l 892 1013 l 892 788 l 809 788 l 809 930 l 344 930 l 344 590 l 675 590 l 675 717 l 758 717 l 758 380 l 675 380 l 675 507 l 344 507 l 344 83 l 820 83 l 820 225 l 903 225 l 903 0 l 77 0 m 459 1288 l 584 1109 l 504 1109 l 327 1288 l 459 1288 "},"ش":{"x_min":68,"x_max":1134.765625,"ha":1202,"o":"m 841 876 q 847 846 847 863 q 816 791 847 809 q 786 784 803 784 q 754 792 769 784 q 732 815 740 800 q 723 846 723 830 q 756 901 723 882 q 784 908 769 908 q 817 899 801 908 q 841 876 832 890 m 918 752 q 925 722 925 738 q 893 667 925 685 q 863 660 881 660 q 832 668 846 660 q 809 691 817 676 q 800 722 800 706 q 833 776 800 758 q 862 783 846 783 q 894 774 878 783 q 918 752 910 766 m 765 752 q 771 722 771 738 q 740 667 771 685 q 710 660 727 660 q 678 668 693 660 q 656 691 664 676 q 647 722 647 706 q 680 776 647 758 q 708 783 693 783 q 741 774 725 783 q 765 752 756 766 m 1116 112 q 1072 45 1103 70 q 1002 17 1041 21 q 990 16 996 16 q 982 16 985 16 q 914 45 938 16 q 867 86 883 80 q 819 39 850 58 q 754 17 788 21 q 708 36 737 19 q 679 54 688 49 q 651 -51 664 -11 q 603 -152 632 -110 q 516 -229 567 -202 q 452 -254 487 -246 q 378 -263 416 -263 q 238 -233 302 -263 q 104 -71 146 -173 q 68 138 68 17 q 76 265 68 198 q 100 397 85 331 q 120 464 110 430 q 166 511 136 504 q 191 507 178 509 q 217 481 213 502 q 171 213 194 347 q 194 19 171 96 q 299 -134 225 -80 q 379 -149 337 -149 q 450 -138 415 -149 q 513 -105 485 -127 q 550 -18 538 -64 q 561 77 561 27 q 548 199 561 129 q 518 325 539 241 q 490 455 497 410 q 520 476 499 469 q 554 491 548 486 q 607 443 596 491 q 629 366 623 373 q 652 271 641 318 q 691 178 669 210 q 762 129 720 134 q 790 171 782 146 q 798 228 798 195 q 789 310 798 259 q 778 383 778 371 q 770 419 778 393 q 762 456 762 444 q 768 476 762 467 q 787 491 773 485 q 824 500 801 500 q 845 497 835 500 q 863 490 856 495 q 901 355 882 448 q 934 226 921 263 q 1007 113 959 155 q 1032 160 1024 134 q 1039 214 1039 185 q 1022 314 1039 254 q 986 476 986 448 q 1009 491 996 486 q 1037 497 1022 497 q 1070 490 1054 497 q 1117 363 1099 430 q 1134 232 1134 296 q 1130 170 1134 199 q 1116 112 1125 142 "},"ﬁ":{"x_min":51,"x_max":895,"ha":926,"o":"m 727 872 l 663 872 q 619 960 660 931 q 494 989 578 989 q 343 940 391 989 q 295 788 295 892 l 295 721 l 777 721 l 777 72 l 895 72 l 895 0 l 532 0 l 532 72 l 652 72 l 652 648 l 295 648 l 295 72 l 413 72 l 413 0 l 51 0 l 51 72 l 170 72 l 170 648 l 51 648 l 51 721 l 170 721 l 170 786 q 249 987 170 919 q 484 1055 328 1055 q 604 1046 543 1055 q 727 1019 666 1037 l 727 872 "},"X":{"x_min":8,"x_max":982,"ha":989,"o":"m 459 433 l 212 72 l 343 72 l 343 0 l 8 0 l 8 72 l 124 72 l 416 497 l 120 940 l 12 940 l 12 1013 l 413 1013 l 413 940 l 294 940 l 511 613 l 734 940 l 604 940 l 604 1013 l 936 1013 l 936 940 l 822 940 l 554 550 l 873 72 l 982 72 l 982 0 l 580 0 l 580 72 l 701 72 l 459 433 "},"ﺚ":{"x_min":67.828125,"x_max":1481.234375,"ha":1481,"o":"m 778 680 q 785 650 785 667 q 754 595 785 613 q 723 588 741 588 q 692 596 706 588 q 669 619 678 604 q 661 650 661 634 q 693 705 661 686 q 722 711 706 711 q 754 702 739 711 q 778 680 770 694 m 855 555 q 862 525 862 541 q 831 470 862 488 q 800 463 818 463 q 769 471 784 463 q 747 494 755 479 q 738 525 738 509 q 771 579 738 561 q 799 586 784 586 q 832 577 816 586 q 855 555 847 569 m 702 555 q 709 525 709 541 q 678 470 709 488 q 647 463 665 463 q 616 471 630 463 q 593 494 602 479 q 585 525 585 509 q 617 579 585 561 q 646 586 630 586 q 678 577 663 586 q 702 555 694 569 m 1481 0 q 1377 36 1430 0 q 1300 111 1336 64 q 1199 10 1269 58 q 1060 -65 1142 -29 q 935 -114 1000 -93 q 680 -171 843 -142 q 430 -201 518 -201 q 288 -176 364 -201 q 144 -101 200 -148 q 67 27 76 -45 q 187 226 67 147 q 446 322 283 290 q 697 347 572 347 q 719 304 719 323 q 704 276 719 289 q 668 254 692 266 q 514 249 575 254 q 358 219 424 240 q 217 145 278 193 q 180 102 192 117 q 157 47 157 74 q 180 -3 157 18 q 265 -51 189 -11 q 366 -77 311 -69 q 483 -86 421 -86 q 786 -45 622 -86 q 1050 42 925 -11 q 1157 100 1106 62 q 1224 200 1224 151 q 1216 231 1224 217 q 1177 274 1197 252 q 1152 332 1152 305 q 1154 347 1152 342 q 1205 373 1180 373 q 1222 369 1214 373 q 1239 360 1231 366 q 1281 304 1262 344 q 1308 233 1296 273 q 1387 138 1342 174 q 1481 98 1436 98 l 1481 0 "},"ô":{"x_min":69,"x_max":766,"ha":836,"o":"m 417 47 q 568 126 517 47 q 620 360 620 205 q 568 594 620 515 q 417 674 517 674 q 266 594 317 674 q 215 360 215 515 q 266 126 215 205 q 417 47 317 47 m 417 -20 q 164 84 260 -20 q 69 360 69 188 q 164 637 69 533 q 417 741 259 741 q 670 637 575 741 q 766 360 766 533 q 670 84 766 188 q 417 -20 575 -20 m 361 1111 l 475 1111 l 635 856 l 556 856 l 418 1032 l 280 856 l 202 856 l 361 1111 "},"٦":{"x_min":39.796875,"x_max":632.78125,"ha":695,"o":"m 632 0 q 618 -21 623 -14 q 588 -43 600 -43 q 554 -22 577 -43 q 534 0 547 -15 l 421 640 l 87 640 q 65 657 72 651 q 40 690 42 678 q 54 718 37 701 q 71 733 59 723 l 503 733 l 632 0 "},"đ":{"x_min":69,"x_max":848,"ha":889,"o":"m 729 72 l 848 72 l 848 0 l 604 0 l 604 112 q 510 12 567 44 q 370 -20 454 -20 q 153 85 237 -20 q 69 360 69 191 q 153 635 69 530 q 370 741 237 741 q 510 708 454 741 q 604 608 567 676 l 604 833 l 383 833 l 383 905 l 604 905 l 604 983 l 486 983 l 486 1055 l 729 1055 l 729 905 l 848 905 l 848 833 l 729 833 l 729 72 m 604 325 l 604 396 q 554 594 604 525 q 409 663 504 663 q 264 586 313 663 q 215 360 215 510 q 264 134 215 211 q 409 58 313 58 q 554 126 504 58 q 604 325 604 194 "},"ٍ":{"x_min":45.4375,"x_max":373.015625,"ha":387,"o":"m 373 -657 q 371 -667 373 -664 l 356 -680 l 338 -699 l 321 -724 q 306 -737 314 -737 q 293 -733 301 -737 l 264 -730 l 66 -730 q 45 -719 45 -730 q 46 -710 45 -712 l 62 -695 l 80 -677 q 88 -666 82 -674 q 96 -653 93 -658 q 111 -640 103 -640 q 125 -644 116 -640 q 138 -646 130 -645 q 153 -647 146 -647 l 352 -647 q 373 -657 373 -647 m 373 -794 q 372 -803 373 -800 q 357 -817 370 -805 q 348 -825 351 -822 q 338 -836 343 -830 l 321 -861 q 306 -874 315 -874 q 292 -870 301 -874 q 264 -867 282 -867 l 66 -867 q 45 -857 45 -867 q 46 -848 45 -850 l 62 -833 q 70 -825 67 -828 q 80 -814 73 -822 q 88 -803 82 -811 q 96 -789 93 -795 q 111 -777 104 -777 l 125 -780 q 153 -784 135 -784 l 352 -784 q 373 -794 373 -784 "},"}":{"x_min":173.765625,"x_max":710.609375,"ha":884,"o":"m 173 -156 l 221 -156 q 345 -126 316 -156 q 374 0 374 -96 l 374 194 q 407 346 374 300 q 529 414 440 391 q 407 481 441 435 q 374 634 374 527 l 374 828 q 345 954 374 925 q 221 984 316 984 l 173 984 l 173 1055 l 216 1055 q 442 1005 385 1055 q 499 805 499 955 l 499 630 q 535 489 499 528 q 668 450 572 450 l 710 450 l 710 379 l 668 379 q 535 339 572 379 q 499 198 499 300 l 499 23 q 442 -176 499 -126 q 216 -227 385 -227 l 173 -227 l 173 -156 "},"â":{"x_min":69,"x_max":788,"ha":828,"o":"m 552 226 l 552 378 l 391 378 q 253 338 298 378 q 208 215 208 298 q 254 96 208 140 q 378 53 300 53 q 504 100 456 53 q 552 226 552 148 m 677 449 l 677 72 l 788 72 l 788 0 l 552 0 l 552 78 q 456 3 510 27 q 329 -20 402 -20 q 139 43 209 -20 q 69 215 69 107 q 149 389 69 327 q 377 451 230 451 l 552 451 l 552 500 q 502 628 552 583 q 362 674 452 674 q 243 639 287 674 q 189 539 199 605 l 125 539 l 125 685 q 251 727 190 713 q 370 741 312 741 q 598 666 520 741 q 677 449 677 591 m 329 1111 l 443 1111 l 603 856 l 524 856 l 386 1032 l 248 856 l 170 856 l 329 1111 "},"ø":{"x_min":51.40625,"x_max":778.890625,"ha":836,"o":"m 569 596 q 505 654 543 635 q 417 674 467 674 q 266 594 317 674 q 215 360 215 515 q 220 271 215 311 q 234 198 225 231 l 569 596 m 265 128 q 329 67 292 87 q 417 47 367 47 q 568 126 517 47 q 620 360 620 206 q 614 453 620 412 q 599 529 609 494 l 265 128 m 680 625 q 744 508 722 575 q 766 360 766 441 q 670 84 766 188 q 417 -20 575 -20 q 299 -2 353 -20 q 200 52 245 15 l 102 -64 l 51 -21 l 152 99 q 90 217 111 151 q 69 360 69 282 q 164 637 69 533 q 417 741 259 741 q 535 723 481 741 q 632 672 589 706 l 727 785 l 778 742 l 680 625 "},"‰":{"x_min":77,"x_max":1789,"ha":1864,"o":"m 1555 531 q 1725 456 1662 531 q 1789 255 1789 381 q 1725 54 1789 128 q 1555 -20 1662 -20 q 1384 54 1447 -20 q 1321 255 1321 128 q 1384 456 1321 382 q 1555 531 1447 531 m 1555 470 q 1462 413 1496 470 q 1429 255 1429 356 q 1462 98 1429 155 q 1555 42 1496 42 q 1646 98 1613 42 q 1680 255 1680 155 q 1646 413 1680 355 q 1555 470 1613 470 m 311 968 q 218 911 251 968 q 185 754 185 855 q 218 598 185 655 q 311 542 252 542 q 402 598 369 542 q 436 754 436 654 q 402 911 436 854 q 311 968 369 968 m 1010 469 q 918 412 951 469 q 885 255 885 356 q 918 98 885 155 q 1010 42 952 42 q 1101 98 1068 42 q 1135 255 1135 155 q 1102 411 1135 354 q 1012 469 1069 469 l 1010 469 m 1010 531 q 1180 456 1117 531 q 1244 255 1244 381 q 1180 54 1244 128 q 1010 -20 1117 -20 q 839 54 902 -20 q 776 255 776 128 q 839 456 776 382 q 1010 531 902 531 m 925 1031 l 1028 1031 l 395 -20 l 291 -20 l 925 1031 m 310 1031 q 481 956 417 1031 q 545 755 545 882 q 481 553 545 627 q 310 480 418 480 q 139 554 202 480 q 77 755 77 628 q 140 956 77 881 q 310 1031 203 1031 "},"Ä":{"x_min":-8,"x_max":1017,"ha":1003,"o":"m 278 367 l 649 367 l 464 848 l 278 367 m -8 0 l -8 72 l 80 72 l 441 1013 l 555 1013 l 917 72 l 1017 72 l 1017 0 l 648 0 l 648 72 l 761 72 l 676 294 l 250 294 l 165 72 l 276 72 l 276 0 l -8 0 m 368 1278 q 424 1254 401 1278 q 448 1199 448 1230 q 425 1142 448 1165 q 368 1120 402 1120 q 312 1142 335 1120 q 290 1199 290 1165 q 313 1254 290 1230 q 368 1278 336 1278 m 633 1278 q 688 1254 665 1278 q 712 1199 712 1230 q 689 1142 712 1165 q 633 1120 666 1120 q 576 1142 599 1120 q 554 1199 554 1165 q 577 1254 554 1230 q 633 1278 600 1278 "}}}
